<svg width="54" height="54" viewBox="0 0 54 54" fill="none" xmlns="http://www.w3.org/2000/svg">
<g id="Frame">
<path id="Vector" d="M34.4523 31.725L42.9804 40.2493C43.0704 40.3419 43.1501 40.4409 43.2196 40.5463C43.2916 40.6492 43.3507 40.7597 43.397 40.878C43.4484 40.9963 43.4857 41.1172 43.5088 41.2406C43.5346 41.364 43.5474 41.4887 43.5474 41.6147C43.5474 41.7433 43.5346 41.8693 43.5088 41.9927C43.4831 42.1162 43.4458 42.237 43.397 42.3553C43.3507 42.471 43.2916 42.5816 43.2196 42.687C43.1501 42.7925 43.0704 42.8902 42.9804 42.9802C42.8904 43.0702 42.7927 43.1499 42.6873 43.2193C42.5844 43.2913 42.4738 43.3505 42.3556 43.3967C42.2373 43.4482 42.1164 43.4855 41.993 43.5086C41.8696 43.5343 41.7436 43.5472 41.615 43.5472C41.489 43.5472 41.3643 43.5343 41.2408 43.5086C41.1174 43.4829 40.9966 43.4456 40.8783 43.3967C40.7626 43.3505 40.652 43.2913 40.5466 43.2193C40.4411 43.1499 40.3434 43.0702 40.2534 42.9802L31.7291 34.4559C31.6391 34.3659 31.5581 34.2682 31.4861 34.1627C31.4167 34.0573 31.3576 33.9455 31.3087 33.8272C31.2598 33.7115 31.2238 33.5906 31.2007 33.4646C31.175 33.3412 31.1621 33.2165 31.1621 33.0905C31.1621 32.9619 31.175 32.8359 31.2007 32.7125C31.2264 32.589 31.2624 32.4695 31.3087 32.3537C31.3576 32.2355 31.4167 32.1236 31.4861 32.0182C31.5581 31.9153 31.6378 31.8176 31.7253 31.725C31.8153 31.6376 31.913 31.5579 32.0184 31.4859C32.1238 31.4165 32.2357 31.3573 32.354 31.3085C32.4697 31.2596 32.5893 31.2236 32.7127 31.2005C32.8387 31.1747 32.9647 31.1619 33.0907 31.1619C33.2193 31.1619 33.344 31.1747 33.4648 31.2005C33.5908 31.2262 33.7117 31.2622 33.8274 31.3085C33.9457 31.3573 34.0576 31.4165 34.163 31.4859C34.2658 31.5579 34.3623 31.6376 34.4523 31.725ZM19.5444 22.275L11.0201 13.7507C10.9301 13.6582 10.8504 13.5592 10.781 13.4537C10.709 13.3509 10.6498 13.2403 10.6036 13.122C10.5521 13.0037 10.5148 12.8829 10.4917 12.7595C10.466 12.636 10.4531 12.5113 10.4531 12.3853C10.4531 12.2567 10.466 12.1307 10.4917 12.0073C10.5174 11.8839 10.5547 11.763 10.6036 11.6447C10.6498 11.529 10.709 11.4185 10.781 11.313C10.8504 11.2076 10.9301 11.1099 11.0201 11.0199C11.1101 10.9299 11.2078 10.8502 11.3133 10.7807C11.4161 10.7087 11.5267 10.6496 11.645 10.6033C11.7633 10.5519 11.8841 10.5146 12.0076 10.4915C12.131 10.4657 12.257 10.4529 12.3856 10.4529C12.5116 10.4529 12.6363 10.4657 12.7597 10.4915C12.8831 10.5172 13.004 10.5545 13.1223 10.6033C13.238 10.6496 13.3486 10.7087 13.454 10.7807C13.5594 10.8502 13.6571 10.9299 13.7471 11.0199L22.2714 19.5442C22.3614 19.6342 22.4424 19.7319 22.5144 19.8373C22.5838 19.9427 22.643 20.0546 22.6918 20.1729C22.7407 20.2886 22.7767 20.4095 22.7998 20.5355C22.8256 20.6589 22.8384 20.7836 22.8384 20.9096C22.8384 21.0382 22.8256 21.1642 22.7998 21.2876C22.7741 21.411 22.7381 21.5306 22.6918 21.6463C22.643 21.7646 22.5838 21.8765 22.5144 21.9819C22.4424 22.0847 22.3627 22.1825 22.2753 22.275C22.1853 22.3625 22.0876 22.4422 21.9821 22.5142C21.8767 22.5836 21.7648 22.6427 21.6466 22.6916C21.5308 22.7405 21.4113 22.7765 21.2878 22.7996C21.1618 22.8253 21.0358 22.8382 20.9098 22.8382C20.7813 22.8382 20.6566 22.8253 20.5357 22.7996C20.4097 22.7739 20.2888 22.7379 20.1731 22.6916C20.0548 22.6427 19.943 22.5836 19.8376 22.5142C19.7347 22.4422 19.637 22.3625 19.5444 22.275ZM35.0231 33.0905C35.0231 33.219 35.0103 33.3437 34.9846 33.4646C34.9588 33.5906 34.9228 33.7115 34.8766 33.8272C34.8277 33.9455 34.7686 34.0573 34.6991 34.1627C34.6271 34.2656 34.5461 34.362 34.4561 34.452C34.3687 34.542 34.2723 34.623 34.1668 34.695C34.0614 34.7645 33.9496 34.8236 33.8313 34.8725C33.7156 34.9213 33.5947 34.9573 33.4687 34.9805C33.3453 35.0062 33.2206 35.019 33.0946 35.019C32.966 35.019 32.84 35.0062 32.7166 34.9805C32.5931 34.9547 32.4736 34.9187 32.3578 34.8725C32.2396 34.8236 32.1277 34.7645 32.0223 34.695C31.9194 34.623 31.8217 34.542 31.7291 34.452C31.6417 34.3646 31.562 34.2682 31.49 34.1627C31.4206 34.0573 31.3614 33.9455 31.3126 33.8272C31.2637 33.7115 31.2277 33.5906 31.2046 33.4646C31.1788 33.3412 31.166 33.2165 31.166 33.0905C31.166 32.9619 31.1788 32.8359 31.2046 32.7125C31.2303 32.589 31.2663 32.4695 31.3126 32.3537C31.3614 32.2355 31.4206 32.1236 31.49 32.0182C31.562 31.9153 31.6417 31.8176 31.7291 31.725C31.8191 31.6376 31.9168 31.5579 32.0223 31.4859C32.1277 31.4165 32.2396 31.3573 32.3578 31.3085C32.4736 31.2596 32.5931 31.2236 32.7166 31.2005C32.8426 31.1747 32.9686 31.1619 33.0946 31.1619C33.2231 31.1619 33.3478 31.1747 33.4687 31.2005C33.5947 31.2262 33.7156 31.2622 33.8313 31.3085C33.9496 31.3573 34.0614 31.4165 34.1668 31.4859C34.2697 31.5579 34.3661 31.6376 34.4561 31.725C34.5461 31.815 34.6271 31.9127 34.6991 32.0182C34.7686 32.1236 34.8277 32.2355 34.8766 32.3537C34.9254 32.4695 34.9614 32.589 34.9846 32.7125C35.0103 32.8385 35.0231 32.9645 35.0231 33.0905ZM43.5474 41.6147C43.5474 41.7433 43.5346 41.8693 43.5088 41.9927C43.4857 42.1162 43.4497 42.237 43.4008 42.3553C43.3546 42.471 43.2954 42.5816 43.2234 42.687C43.154 42.7925 43.0743 42.8902 42.9843 42.9802C42.8943 43.0702 42.7966 43.1499 42.6911 43.2193C42.5883 43.2913 42.4777 43.3505 42.3594 43.3967C42.2411 43.4482 42.1203 43.4855 41.9968 43.5086C41.8734 43.5343 41.7474 43.5472 41.6188 43.5472C41.4928 43.5472 41.3681 43.5343 41.2447 43.5086C41.1213 43.4829 41.0004 43.4456 40.8821 43.3967C40.7664 43.3505 40.6558 43.2913 40.5504 43.2193C40.445 43.1499 40.3473 43.0702 40.2573 42.9802C40.1673 42.8902 40.0876 42.7925 40.0181 42.687C39.9461 42.5842 39.887 42.4736 39.8407 42.3553C39.7893 42.237 39.752 42.1162 39.7288 41.9927C39.7031 41.8693 39.6903 41.7433 39.6903 41.6147C39.6903 41.4887 39.7031 41.364 39.7288 41.2406C39.7546 41.1172 39.7918 40.9963 39.8407 40.878C39.887 40.7623 39.9461 40.6517 40.0181 40.5463C40.0876 40.4409 40.1673 40.3432 40.2573 40.2532C40.3473 40.1632 40.445 40.0835 40.5504 40.014C40.6533 39.942 40.7638 39.8829 40.8821 39.8366C41.0004 39.7852 41.1213 39.7479 41.2447 39.7247C41.3681 39.699 41.4928 39.6862 41.6188 39.6862C41.7474 39.6862 41.8734 39.699 41.9968 39.7247C42.1203 39.7505 42.2411 39.7877 42.3594 39.8366C42.4751 39.8829 42.5857 39.942 42.6911 40.014C42.7966 40.0835 42.8943 40.1632 42.9843 40.2532C43.0743 40.3432 43.154 40.4409 43.2234 40.5463C43.2954 40.6492 43.3546 40.7597 43.4008 40.878C43.4523 40.9963 43.4896 41.1172 43.5127 41.2406C43.5384 41.364 43.5513 41.4887 43.5513 41.6147H43.5474ZM22.8384 20.9096C22.8384 21.0382 22.8256 21.1642 22.7998 21.2876C22.7741 21.411 22.7381 21.5306 22.6918 21.6463C22.643 21.7646 22.5838 21.8765 22.5144 21.9819C22.4424 22.0847 22.3627 22.1825 22.2753 22.275C22.1853 22.3625 22.0876 22.4422 21.9821 22.5142C21.8767 22.5836 21.7648 22.6427 21.6466 22.6916C21.5308 22.7405 21.4113 22.7765 21.2878 22.7996C21.1618 22.8253 21.0358 22.8382 20.9098 22.8382C20.7813 22.8382 20.6566 22.8253 20.5357 22.7996C20.4097 22.7739 20.2888 22.7379 20.1731 22.6916C20.0548 22.6427 19.943 22.5836 19.8376 22.5142C19.7347 22.4422 19.637 22.3625 19.5444 22.275C19.457 22.185 19.3773 22.0873 19.3053 21.9819C19.2358 21.8765 19.1767 21.7646 19.1278 21.6463C19.079 21.5306 19.043 21.411 19.0198 21.2876C18.9941 21.1616 18.9813 21.0356 18.9813 20.9096C18.9813 20.781 18.9941 20.6563 19.0198 20.5355C19.0456 20.4095 19.0816 20.2886 19.1278 20.1729C19.1767 20.0546 19.2358 19.9427 19.3053 19.8373C19.3773 19.7345 19.457 19.6367 19.5444 19.5442C19.6344 19.4567 19.7321 19.377 19.8376 19.305C19.943 19.2356 20.0548 19.1765 20.1731 19.1276C20.2888 19.0787 20.4097 19.0427 20.5357 19.0196C20.6591 18.9939 20.7838 18.981 20.9098 18.981C21.0384 18.981 21.1644 18.9939 21.2878 19.0196C21.4113 19.0453 21.5308 19.0813 21.6466 19.1276C21.7648 19.1765 21.8767 19.2356 21.9821 19.305C22.085 19.377 22.1827 19.4567 22.2753 19.5442C22.3627 19.6342 22.4424 19.7319 22.5144 19.8373C22.5838 19.9427 22.643 20.0546 22.6918 20.1729C22.7407 20.2886 22.7767 20.4095 22.7998 20.5355C22.8256 20.6589 22.8384 20.7836 22.8384 20.9096ZM14.3141 12.3853C14.3141 12.5113 14.3013 12.636 14.2756 12.7595C14.2498 12.8829 14.2126 13.0037 14.1637 13.122C14.1174 13.2377 14.0583 13.3483 13.9863 13.4537C13.9168 13.5592 13.8371 13.6569 13.7471 13.7469C13.6571 13.8369 13.5594 13.9166 13.454 13.986C13.3511 14.058 13.2406 14.1172 13.1223 14.1635C13.004 14.2149 12.8831 14.2522 12.7597 14.2753C12.6363 14.301 12.5116 14.3139 12.3856 14.3139C12.257 14.3139 12.131 14.301 12.0076 14.2753C11.8841 14.2496 11.7633 14.2123 11.645 14.1635C11.5293 14.1172 11.4187 14.058 11.3133 13.986C11.2078 13.9166 11.1101 13.8369 11.0201 13.7469C10.9301 13.6569 10.8504 13.5592 10.781 13.4537C10.709 13.3509 10.6498 13.2403 10.6036 13.122C10.5521 13.0037 10.5148 12.8829 10.4917 12.7595C10.466 12.636 10.4531 12.5113 10.4531 12.3853C10.4531 12.2567 10.466 12.1307 10.4917 12.0073C10.5174 11.8839 10.5547 11.763 10.6036 11.6447C10.6498 11.529 10.709 11.4185 10.781 11.313C10.8504 11.2076 10.9301 11.1099 11.0201 11.0199C11.1101 10.9299 11.2078 10.8502 11.3133 10.7807C11.4161 10.7087 11.5267 10.6496 11.645 10.6033C11.7633 10.5519 11.8841 10.5146 12.0076 10.4915C12.131 10.4657 12.257 10.4529 12.3856 10.4529C12.5116 10.4529 12.6363 10.4657 12.7597 10.4915C12.8831 10.5172 13.004 10.5545 13.1223 10.6033C13.238 10.6496 13.3486 10.7087 13.454 10.7807C13.5594 10.8502 13.6571 10.9299 13.7471 11.0199C13.8371 11.1099 13.9168 11.2076 13.9863 11.313C14.0583 11.4159 14.1174 11.5265 14.1637 11.6447C14.2151 11.763 14.2524 11.8839 14.2756 12.0073C14.3013 12.1307 14.3141 12.2567 14.3141 12.3853ZM22.2753 34.452L13.751 42.9802C13.6584 43.0702 13.5594 43.1499 13.454 43.2193C13.3511 43.2913 13.2406 43.3505 13.1223 43.3967C13.004 43.4482 12.8831 43.4855 12.7597 43.5086C12.6363 43.5343 12.5116 43.5472 12.3856 43.5472C12.257 43.5472 12.131 43.5343 12.0076 43.5086C11.8841 43.4829 11.7633 43.4456 11.645 43.3967C11.5293 43.3505 11.4187 43.2913 11.3133 43.2193C11.2078 43.1499 11.1101 43.0702 11.0201 42.9802C10.9301 42.8902 10.8504 42.7925 10.781 42.687C10.709 42.5842 10.6498 42.4736 10.6036 42.3553C10.5521 42.237 10.5148 42.1162 10.4917 41.9927C10.466 41.8693 10.4531 41.7433 10.4531 41.6147C10.4531 41.4887 10.466 41.364 10.4917 41.2406C10.5174 41.1172 10.5547 40.9963 10.6036 40.878C10.6498 40.7623 10.709 40.6517 10.781 40.5463C10.8504 40.4409 10.9301 40.3432 11.0201 40.2532L19.5444 31.7289C19.6344 31.6389 19.7321 31.5579 19.8376 31.4859C19.943 31.4165 20.0548 31.3573 20.1731 31.3085C20.2888 31.2596 20.4097 31.2236 20.5357 31.2005C20.6591 31.1747 20.7838 31.1619 20.9098 31.1619C21.0384 31.1619 21.1644 31.1747 21.2878 31.2005C21.4113 31.2262 21.5308 31.2622 21.6466 31.3085C21.7648 31.3573 21.8767 31.4165 21.9821 31.4859C22.085 31.5579 22.1827 31.6376 22.2753 31.725C22.3627 31.815 22.4424 31.9127 22.5144 32.0182C22.5838 32.1236 22.643 32.2355 22.6918 32.3537C22.7407 32.4695 22.7767 32.589 22.7998 32.7125C22.8256 32.8385 22.8384 32.9645 22.8384 33.0905C22.8384 33.219 22.8256 33.3437 22.7998 33.4646C22.7741 33.5906 22.7381 33.7115 22.6918 33.8272C22.643 33.9455 22.5838 34.0573 22.5144 34.1627C22.4424 34.2656 22.3627 34.362 22.2753 34.452ZM31.7253 19.5442L40.2496 11.0199C40.3421 10.9299 40.4411 10.8502 40.5466 10.7807C40.6494 10.7087 40.76 10.6496 40.8783 10.6033C40.9966 10.5519 41.1174 10.5146 41.2408 10.4915C41.3643 10.4657 41.489 10.4529 41.615 10.4529C41.7436 10.4529 41.8696 10.4657 41.993 10.4915C42.1164 10.5172 42.2373 10.5545 42.3556 10.6033C42.4713 10.6496 42.5818 10.7087 42.6873 10.7807C42.7927 10.8502 42.8904 10.9299 42.9804 11.0199C43.0704 11.1099 43.1501 11.2076 43.2196 11.313C43.2916 11.4159 43.3507 11.5265 43.397 11.6447C43.4484 11.763 43.4857 11.8839 43.5088 12.0073C43.5346 12.1307 43.5474 12.2567 43.5474 12.3853C43.5474 12.5113 43.5346 12.636 43.5088 12.7595C43.4831 12.8829 43.4458 13.0037 43.397 13.122C43.3507 13.2377 43.2916 13.3483 43.2196 13.4537C43.1501 13.5592 43.0704 13.6569 42.9804 13.7469L34.4561 22.2712C34.3661 22.3612 34.2684 22.4422 34.163 22.5142C34.0576 22.5836 33.9457 22.6427 33.8274 22.6916C33.7117 22.7405 33.5908 22.7765 33.4648 22.7996C33.3414 22.8253 33.2167 22.8382 33.0907 22.8382C32.9621 22.8382 32.8361 22.8253 32.7127 22.7996C32.5893 22.7739 32.4697 22.7379 32.354 22.6916C32.2357 22.6427 32.1238 22.5836 32.0184 22.5142C31.9156 22.4422 31.8178 22.3625 31.7253 22.275C31.6378 22.185 31.5581 22.0873 31.4861 21.9819C31.4167 21.8765 31.3576 21.7646 31.3087 21.6463C31.2598 21.5306 31.2238 21.411 31.2007 21.2876C31.175 21.1616 31.1621 21.0356 31.1621 20.9096C31.1621 20.781 31.175 20.6563 31.2007 20.5355C31.2264 20.4095 31.2624 20.2886 31.3087 20.1729C31.3576 20.0546 31.4167 19.9427 31.4861 19.8373C31.5581 19.7345 31.6378 19.6367 31.7253 19.5442ZM22.8384 33.0943C22.8384 33.2229 22.8256 33.3476 22.7998 33.4685C22.7741 33.5945 22.7381 33.7153 22.6918 33.831C22.643 33.9493 22.5838 34.0612 22.5144 34.1666C22.4424 34.2695 22.3627 34.3659 22.2753 34.4559C22.1853 34.5459 22.0876 34.6269 21.9821 34.6989C21.8767 34.7683 21.7648 34.8275 21.6466 34.8763C21.5308 34.9252 21.4113 34.9612 21.2878 34.9843C21.1618 35.01 21.0358 35.0229 20.9098 35.0229C20.7813 35.0229 20.6566 35.01 20.5357 34.9843C20.4097 34.9586 20.2888 34.9226 20.1731 34.8763C20.0548 34.8275 19.943 34.7683 19.8376 34.6989C19.7347 34.6269 19.637 34.5459 19.5444 34.4559C19.457 34.3685 19.3773 34.272 19.3053 34.1666C19.2358 34.0612 19.1767 33.9493 19.1278 33.831C19.079 33.7153 19.043 33.5945 19.0198 33.4685C18.9941 33.345 18.9813 33.2203 18.9813 33.0943C18.9813 32.9657 18.9941 32.8397 19.0198 32.7163C19.0456 32.5929 19.0816 32.4733 19.1278 32.3576C19.1767 32.2393 19.2358 32.1275 19.3053 32.022C19.3773 31.9192 19.457 31.8215 19.5444 31.7289C19.6344 31.6415 19.7321 31.5617 19.8376 31.4897C19.943 31.4203 20.0548 31.3612 20.1731 31.3123C20.2888 31.2635 20.4097 31.2275 20.5357 31.2043C20.6591 31.1786 20.7838 31.1657 20.9098 31.1657C21.0384 31.1657 21.1644 31.1786 21.2878 31.2043C21.4113 31.23 21.5308 31.266 21.6466 31.3123C21.7648 31.3612 21.8767 31.4203 21.9821 31.4897C22.085 31.5617 22.1827 31.6415 22.2753 31.7289C22.3627 31.8189 22.4424 31.9166 22.5144 32.022C22.5838 32.1275 22.643 32.2393 22.6918 32.3576C22.7407 32.4733 22.7767 32.5929 22.7998 32.7163C22.8256 32.8423 22.8384 32.9683 22.8384 33.0943ZM14.3141 41.6186C14.3141 41.7472 14.3013 41.8732 14.2756 41.9966C14.2498 42.12 14.2126 42.2409 14.1637 42.3592C14.1174 42.4749 14.0583 42.5855 13.9863 42.6909C13.9168 42.7963 13.8371 42.894 13.7471 42.984C13.6571 43.074 13.5594 43.1537 13.454 43.2232C13.3511 43.2952 13.2406 43.3543 13.1223 43.4006C13.004 43.452 12.8831 43.4893 12.7597 43.5125C12.6363 43.5382 12.5116 43.551 12.3856 43.551C12.257 43.551 12.131 43.5382 12.0076 43.5125C11.8841 43.4867 11.7633 43.4495 11.645 43.4006C11.5293 43.3543 11.4187 43.2952 11.3133 43.2232C11.2078 43.1537 11.1101 43.074 11.0201 42.984C10.9301 42.894 10.8504 42.7963 10.781 42.6909C10.709 42.588 10.6498 42.4775 10.6036 42.3592C10.5521 42.2409 10.5148 42.12 10.4917 41.9966C10.466 41.8732 10.4531 41.7472 10.4531 41.6186C10.4531 41.4926 10.466 41.3679 10.4917 41.2445C10.5174 41.121 10.5547 41.0002 10.6036 40.8819C10.6498 40.7662 10.709 40.6556 10.781 40.5502C10.8504 40.4447 10.9301 40.347 11.0201 40.257C11.1101 40.167 11.2078 40.0873 11.3133 40.0179C11.4161 39.9459 11.5267 39.8867 11.645 39.8405C11.7633 39.789 11.8841 39.7517 12.0076 39.7286C12.131 39.7029 12.257 39.69 12.3856 39.69C12.5116 39.69 12.6363 39.7029 12.7597 39.7286C12.8831 39.7543 13.004 39.7916 13.1223 39.8405C13.238 39.8867 13.3486 39.9459 13.454 40.0179C13.5594 40.0873 13.6571 40.167 13.7471 40.257C13.8371 40.347 13.9168 40.4447 13.9863 40.5502C14.0583 40.653 14.1174 40.7636 14.1637 40.8819C14.2151 41.0002 14.2524 41.121 14.2756 41.2445C14.3013 41.3679 14.3141 41.4926 14.3141 41.6186ZM35.0193 20.9135C35.0193 21.042 35.0064 21.168 34.9807 21.2915C34.955 21.4149 34.919 21.5345 34.8727 21.6502C34.8238 21.7685 34.7647 21.8803 34.6953 21.9857C34.6233 22.0886 34.5423 22.1863 34.4523 22.2789C34.3648 22.3663 34.2684 22.446 34.163 22.518C34.0576 22.5875 33.9457 22.6466 33.8274 22.6955C33.7117 22.7443 33.5908 22.7803 33.4648 22.8035C33.3414 22.8292 33.2167 22.842 33.0907 22.842C32.9621 22.842 32.8361 22.8292 32.7127 22.8035C32.5893 22.7777 32.4697 22.7417 32.354 22.6955C32.2357 22.6466 32.1238 22.5875 32.0184 22.518C31.9156 22.446 31.8178 22.3663 31.7253 22.2789C31.6378 22.1889 31.5581 22.0912 31.4861 21.9857C31.4167 21.8803 31.3576 21.7685 31.3087 21.6502C31.2598 21.5345 31.2238 21.4149 31.2007 21.2915C31.175 21.1655 31.1621 21.0395 31.1621 20.9135C31.1621 20.7849 31.175 20.6602 31.2007 20.5393C31.2264 20.4133 31.2624 20.2925 31.3087 20.1767C31.3576 20.0585 31.4167 19.9466 31.4861 19.8412C31.5581 19.7383 31.6378 19.6406 31.7253 19.548C31.8153 19.4606 31.913 19.3809 32.0184 19.3089C32.1238 19.2395 32.2357 19.1803 32.354 19.1315C32.4697 19.0826 32.5893 19.0466 32.7127 19.0235C32.8387 18.9977 32.9647 18.9849 33.0907 18.9849C33.2193 18.9849 33.344 18.9977 33.4648 19.0235C33.5908 19.0492 33.7117 19.0852 33.8274 19.1315C33.9457 19.1803 34.0576 19.2395 34.163 19.3089C34.2658 19.3809 34.3623 19.4606 34.4523 19.548C34.5423 19.638 34.6233 19.7357 34.6953 19.8412C34.7647 19.9466 34.8238 20.0585 34.8727 20.1767C34.9216 20.2925 34.9576 20.4133 34.9807 20.5393C35.0064 20.6627 35.0193 20.7875 35.0193 20.9135ZM43.5436 12.3892C43.5436 12.5152 43.5307 12.6399 43.505 12.7633C43.4818 12.8867 43.4458 13.0076 43.397 13.1259C43.3507 13.2416 43.2916 13.3522 43.2196 13.4576C43.1501 13.563 43.0704 13.6607 42.9804 13.7507C42.8904 13.8407 42.7927 13.9205 42.6873 13.9899C42.5844 14.0619 42.4738 14.121 42.3556 14.1673C42.2373 14.2187 42.1164 14.256 41.993 14.2792C41.8696 14.3049 41.7436 14.3177 41.615 14.3177C41.489 14.3177 41.3643 14.3049 41.2408 14.2792C41.1174 14.2535 40.9966 14.2162 40.8783 14.1673C40.7626 14.121 40.652 14.0619 40.5466 13.9899C40.4411 13.9205 40.3434 13.8407 40.2534 13.7507C40.1634 13.6607 40.0837 13.563 40.0143 13.4576C39.9423 13.3547 39.8831 13.2442 39.8368 13.1259C39.7854 13.0076 39.7481 12.8867 39.725 12.7633C39.6993 12.6399 39.6864 12.5152 39.6864 12.3892C39.6864 12.2606 39.6993 12.1346 39.725 12.0112C39.7507 11.8877 39.788 11.7669 39.8368 11.6486C39.8831 11.5329 39.9423 11.4223 40.0143 11.3169C40.0837 11.2115 40.1634 11.1137 40.2534 11.0237C40.3434 10.9337 40.4411 10.854 40.5466 10.7846C40.6494 10.7126 40.76 10.6535 40.8783 10.6072C40.9966 10.5557 41.1174 10.5185 41.2408 10.4953C41.3643 10.4696 41.489 10.4567 41.615 10.4567C41.7436 10.4567 41.8696 10.4696 41.993 10.4953C42.1164 10.521 42.2373 10.5583 42.3556 10.6072C42.4713 10.6535 42.5818 10.7126 42.6873 10.7846C42.7927 10.854 42.8904 10.9337 42.9804 11.0237C43.0704 11.1137 43.1501 11.2115 43.2196 11.3169C43.2916 11.4197 43.3507 11.5303 43.397 11.6486C43.4484 11.7669 43.4857 11.8877 43.5088 12.0112C43.5346 12.1346 43.5474 12.2606 43.5474 12.3892H43.5436Z" fill="#FFD9D9"/>
<path id="Vector_2" d="M18.981 33.0905V20.9057C18.981 20.7772 18.9939 20.6525 19.0196 20.5316C19.0453 20.4056 19.0813 20.2847 19.1276 20.169C19.1765 20.0507 19.2356 19.9389 19.305 19.8335C19.377 19.7306 19.4567 19.6329 19.5442 19.5403C19.6342 19.4529 19.7319 19.3732 19.8373 19.3012C19.9427 19.2317 20.0546 19.1726 20.1729 19.1237C20.2886 19.0749 20.4095 19.0389 20.5355 19.0157C20.6589 18.99 20.7836 18.9772 20.9096 18.9772H33.0943C33.2229 18.9772 33.3476 18.99 33.4685 19.0157C33.5945 19.0415 33.7153 19.0775 33.831 19.1237C33.9493 19.1726 34.0612 19.2317 34.1666 19.3012C34.2695 19.3732 34.3672 19.4529 34.4597 19.5403C34.5472 19.6303 34.6269 19.728 34.6989 19.8335C34.7683 19.9389 34.8275 20.0507 34.8763 20.169C34.9252 20.2847 34.9612 20.4056 34.9843 20.5316C35.01 20.655 35.0229 20.7797 35.0229 20.9057V33.0943C35.0229 33.2229 35.01 33.3476 34.9843 33.4685C34.9586 33.5945 34.9226 33.7153 34.8763 33.831C34.8275 33.9493 34.7683 34.0612 34.6989 34.1666C34.6269 34.2695 34.5472 34.3672 34.4597 34.4597C34.3697 34.5472 34.272 34.6269 34.1666 34.6989C34.0612 34.7683 33.9493 34.8275 33.831 34.8763C33.7153 34.9252 33.5945 34.9612 33.4685 34.9843C33.345 35.01 33.2203 35.0229 33.0943 35.0229H20.9057C20.7772 35.0229 20.6525 35.01 20.5316 34.9843C20.4056 34.9586 20.2847 34.9226 20.169 34.8763C20.0507 34.8275 19.9389 34.7683 19.8335 34.6989C19.7306 34.6269 19.6329 34.5472 19.5403 34.4597C19.4529 34.3697 19.3732 34.272 19.3012 34.1666C19.2317 34.0612 19.1726 33.9493 19.1237 33.831C19.0749 33.7153 19.0389 33.5945 19.0157 33.4685C18.99 33.345 18.9772 33.2203 18.9772 33.0943L18.981 33.0905ZM22.8382 22.8382V31.1657H31.1657V22.8343H22.8343L22.8382 22.8382ZM31.1619 12.3815C31.1619 10.2677 31.7495 8.33274 32.9246 6.57645C34.0997 4.8176 35.6632 3.53317 37.6149 2.72317C39.5692 1.91574 41.5826 1.71774 43.6552 2.12917C45.7303 2.5406 47.5149 3.4946 49.0089 4.99117C50.5055 6.48517 51.4595 8.26974 51.8709 10.3449C52.2823 12.4175 52.0843 14.4309 51.2769 16.3852C50.4669 18.3395 49.1825 19.9029 47.4236 21.0755C45.6673 22.2506 43.731 22.8382 41.6147 22.8382C41.4887 22.8382 41.364 22.8253 41.2406 22.7996C41.1172 22.7739 40.9963 22.7379 40.878 22.6916C40.7623 22.6427 40.6517 22.5836 40.5463 22.5142C40.4409 22.4422 40.3432 22.3625 40.2532 22.275C40.1632 22.185 40.0835 22.0873 40.014 21.9819C39.942 21.8765 39.8829 21.7646 39.8366 21.6463C39.7852 21.5306 39.7479 21.411 39.7247 21.2876C39.699 21.1616 39.6862 21.0356 39.6862 20.9096C39.6862 20.781 39.699 20.6563 39.7247 20.5355C39.7505 20.4095 39.7877 20.2886 39.8366 20.1729C39.8829 20.0546 39.942 19.9427 40.014 19.8373C40.0835 19.7345 40.1632 19.638 40.2532 19.548C40.3432 19.458 40.4409 19.377 40.5463 19.305C40.6492 19.2356 40.7597 19.1765 40.878 19.1276C40.9963 19.0787 41.1172 19.0427 41.2406 19.0196C41.364 18.9939 41.4887 18.981 41.6147 18.981C42.9519 18.981 44.1733 18.6107 45.279 17.8702C46.3899 17.127 47.1999 16.1396 47.709 14.9079C48.2233 13.6736 48.3493 12.4033 48.087 11.097C47.8273 9.7856 47.2269 8.65802 46.2857 7.71431C45.342 6.7706 44.2157 6.16888 42.9069 5.90917C41.598 5.64945 40.3277 5.77417 39.096 6.28331C37.8617 6.79502 36.8743 7.60503 36.1337 8.71331C35.3932 9.82417 35.0229 11.0456 35.0229 12.3776C35.0229 12.5062 35.01 12.6322 34.9843 12.7556C34.9586 12.879 34.9226 12.9999 34.8763 13.1182C34.8275 13.2339 34.7683 13.3445 34.6989 13.4499C34.6269 13.5553 34.5459 13.653 34.4559 13.743C34.3685 13.833 34.272 13.9127 34.1666 13.9822C34.0612 14.0542 33.9493 14.1133 33.831 14.1596C33.7153 14.211 33.5945 14.2483 33.4685 14.2715C33.345 14.2972 33.2203 14.31 33.0943 14.31C32.9657 14.31 32.8397 14.2972 32.7163 14.2715C32.5929 14.2457 32.4733 14.2085 32.3576 14.1596C32.2393 14.1133 32.1275 14.0542 32.022 13.9822C31.9192 13.9127 31.8215 13.833 31.7289 13.743C31.6415 13.653 31.5617 13.5553 31.4897 13.4499C31.4203 13.347 31.3612 13.2365 31.3123 13.1182C31.2635 12.9999 31.2275 12.879 31.2043 12.7556C31.1786 12.6322 31.1657 12.5075 31.1657 12.3815H31.1619ZM35.019 12.3815C35.019 12.51 35.0062 12.636 34.9805 12.7595C34.9547 12.8829 34.9187 13.0037 34.8725 13.122C34.8236 13.2377 34.7645 13.3483 34.695 13.4537C34.623 13.5592 34.542 13.6569 34.452 13.7469C34.3646 13.8369 34.2682 13.9166 34.1627 13.986C34.0573 14.058 33.9455 14.1172 33.8272 14.1635C33.7115 14.2149 33.5906 14.2522 33.4646 14.2753C33.3412 14.301 33.2165 14.3139 33.0905 14.3139C32.9619 14.3139 32.8359 14.301 32.7125 14.2753C32.589 14.2496 32.4695 14.2123 32.3537 14.1635C32.2355 14.1172 32.1236 14.058 32.0182 13.986C31.9153 13.9166 31.8176 13.8369 31.725 13.7469C31.6376 13.6569 31.5579 13.5592 31.4859 13.4537C31.4165 13.3509 31.3573 13.2403 31.3085 13.122C31.2596 13.0037 31.2236 12.8829 31.2005 12.7595C31.1747 12.636 31.1619 12.5113 31.1619 12.3853C31.1619 12.2567 31.1747 12.1307 31.2005 12.0073C31.2262 11.8839 31.2622 11.763 31.3085 11.6447C31.3573 11.529 31.4165 11.4185 31.4859 11.313C31.5579 11.2076 31.6376 11.1099 31.725 11.0199C31.815 10.9299 31.9127 10.8502 32.0182 10.7807C32.1236 10.7087 32.2355 10.6496 32.3537 10.6033C32.4695 10.5519 32.589 10.5146 32.7125 10.4915C32.8385 10.4657 32.9645 10.4529 33.0905 10.4529C33.219 10.4529 33.3437 10.4657 33.4646 10.4915C33.5906 10.5172 33.7115 10.5545 33.8272 10.6033C33.9455 10.6496 34.0573 10.7087 34.1627 10.7807C34.2656 10.8502 34.362 10.9299 34.452 11.0199C34.542 11.1099 34.623 11.2076 34.695 11.313C34.7645 11.4159 34.8236 11.5265 34.8725 11.6447C34.9213 11.763 34.9573 11.8839 34.9805 12.0073C35.0062 12.1307 35.019 12.2567 35.019 12.3853V12.3815ZM43.5433 20.9096C43.5433 21.0382 43.5305 21.1642 43.5047 21.2876C43.4816 21.411 43.4456 21.5306 43.3967 21.6463C43.3505 21.7646 43.2913 21.8765 43.2193 21.9819C43.1499 22.0847 43.0702 22.1825 42.9802 22.275C42.8902 22.3625 42.7925 22.4422 42.687 22.5142C42.5842 22.5836 42.4736 22.6427 42.3553 22.6916C42.237 22.7405 42.1162 22.7765 41.9927 22.7996C41.8693 22.8253 41.7433 22.8382 41.6147 22.8382C41.4887 22.8382 41.364 22.8253 41.2406 22.7996C41.1172 22.7739 40.9963 22.7379 40.878 22.6916C40.7623 22.6427 40.6517 22.5836 40.5463 22.5142C40.4409 22.4422 40.3432 22.3625 40.2532 22.275C40.1632 22.185 40.0835 22.0873 40.014 21.9819C39.942 21.8765 39.8829 21.7646 39.8366 21.6463C39.7852 21.5306 39.7479 21.411 39.7247 21.2876C39.699 21.1616 39.6862 21.0356 39.6862 20.9096C39.6862 20.781 39.699 20.6563 39.7247 20.5355C39.7505 20.4095 39.7877 20.2886 39.8366 20.1729C39.8829 20.0546 39.942 19.9427 40.014 19.8373C40.0835 19.7345 40.1632 19.638 40.2532 19.548C40.3432 19.458 40.4409 19.377 40.5463 19.305C40.6492 19.2356 40.7597 19.1765 40.878 19.1276C40.9963 19.0787 41.1172 19.0427 41.2406 19.0196C41.364 18.9939 41.4887 18.981 41.6147 18.981C41.7433 18.981 41.8693 18.9939 41.9927 19.0196C42.1162 19.0453 42.237 19.0813 42.3553 19.1276C42.471 19.1765 42.5816 19.2356 42.687 19.305C42.7925 19.377 42.8902 19.458 42.9802 19.548C43.0702 19.6355 43.1499 19.7319 43.2193 19.8373C43.2913 19.9427 43.3505 20.0546 43.3967 20.1729C43.4482 20.2886 43.4855 20.4095 43.5086 20.5355C43.5343 20.6589 43.5472 20.7836 43.5472 20.9096H43.5433ZM35.019 41.6186C35.019 42.9506 35.3893 44.172 36.1299 45.2829C36.873 46.3912 37.8605 47.2012 39.0922 47.7129C40.3265 48.222 41.5967 48.3467 42.903 48.087C44.2145 47.8273 45.3407 47.2256 46.2819 46.2819C47.2256 45.3382 47.8273 44.2119 48.087 42.903C48.3467 41.5942 48.222 40.3239 47.7129 39.0922C47.2012 37.8579 46.3912 36.8705 45.2829 36.1299C44.172 35.3893 42.9506 35.019 41.6186 35.019C41.49 35.019 41.364 35.0062 41.2406 34.9805C41.1172 34.9547 40.9963 34.9187 40.878 34.8725C40.7623 34.8236 40.6517 34.7645 40.5463 34.695C40.4409 34.623 40.3432 34.542 40.2532 34.452C40.1632 34.3646 40.0835 34.2682 40.014 34.1627C39.942 34.0573 39.8829 33.9455 39.8366 33.8272C39.7852 33.7115 39.7479 33.5906 39.7247 33.4646C39.699 33.3412 39.6862 33.2165 39.6862 33.0905C39.6862 32.9619 39.699 32.8359 39.7247 32.7125C39.7505 32.589 39.7877 32.4695 39.8366 32.3537C39.8829 32.2355 39.942 32.1236 40.014 32.0182C40.0835 31.9153 40.1632 31.8176 40.2532 31.725C40.3432 31.6376 40.4409 31.5579 40.5463 31.4859C40.6492 31.4165 40.7597 31.3573 40.878 31.3085C40.9963 31.2596 41.1172 31.2236 41.2406 31.2005C41.364 31.1747 41.4887 31.1619 41.6147 31.1619C43.731 31.1619 45.6673 31.7495 47.4236 32.9246C49.1825 34.0997 50.4669 35.6632 51.2769 37.6149C52.0843 39.5692 52.2823 41.5826 51.8709 43.6552C51.4595 45.7303 50.5055 47.5149 49.0089 49.0089C47.5149 50.5055 45.7303 51.4595 43.6552 51.8709C41.5826 52.2823 39.5692 52.0843 37.6149 51.2769C35.6606 50.4669 34.0972 49.1825 32.9246 47.4236C31.7495 45.6673 31.1619 43.731 31.1619 41.6147C31.1619 41.4887 31.1747 41.364 31.2005 41.2406C31.2262 41.1172 31.2622 40.9963 31.3085 40.878C31.3573 40.7623 31.4165 40.6517 31.4859 40.5463C31.5579 40.4409 31.6376 40.3432 31.725 40.2532C31.815 40.1632 31.9127 40.0835 32.0182 40.014C32.1236 39.942 32.2355 39.8829 32.3537 39.8366C32.4695 39.7852 32.589 39.7479 32.7125 39.7247C32.8385 39.699 32.9645 39.6862 33.0905 39.6862C33.219 39.6862 33.3437 39.699 33.4646 39.7247C33.5906 39.7505 33.7115 39.7877 33.8272 39.8366C33.9455 39.8829 34.0573 39.942 34.1627 40.014C34.2656 40.0835 34.362 40.1632 34.452 40.2532C34.542 40.3432 34.623 40.4409 34.695 40.5463C34.7645 40.6492 34.8236 40.7597 34.8725 40.878C34.9213 40.9963 34.9573 41.1172 34.9805 41.2406C35.0062 41.364 35.019 41.4887 35.019 41.6147V41.6186ZM35.019 41.6186C35.019 41.7446 35.0062 41.8693 34.9805 41.9927C34.9547 42.1162 34.9187 42.237 34.8725 42.3553C34.8236 42.471 34.7645 42.5816 34.695 42.687C34.623 42.7925 34.542 42.8902 34.452 42.9802C34.3646 43.0702 34.2682 43.1499 34.1627 43.2193C34.0573 43.2913 33.9455 43.3505 33.8272 43.3967C33.7115 43.4482 33.5906 43.4855 33.4646 43.5086C33.3412 43.5343 33.2165 43.5472 33.0905 43.5472C32.9619 43.5472 32.8359 43.5343 32.7125 43.5086C32.589 43.4829 32.4695 43.4456 32.3537 43.3967C32.2355 43.3505 32.1236 43.2913 32.0182 43.2193C31.9153 43.1499 31.8176 43.0702 31.725 42.9802C31.6376 42.8902 31.5579 42.7925 31.4859 42.687C31.4165 42.5842 31.3573 42.4736 31.3085 42.3553C31.2596 42.237 31.2236 42.1162 31.2005 41.9927C31.1747 41.8693 31.1619 41.7433 31.1619 41.6147C31.1619 41.4887 31.1747 41.364 31.2005 41.2406C31.2262 41.1172 31.2622 40.9963 31.3085 40.878C31.3573 40.7623 31.4165 40.6517 31.4859 40.5463C31.5579 40.4409 31.6376 40.3432 31.725 40.2532C31.815 40.1632 31.9127 40.0835 32.0182 40.014C32.1236 39.942 32.2355 39.8829 32.3537 39.8366C32.4695 39.7852 32.589 39.7479 32.7125 39.7247C32.8385 39.699 32.9645 39.6862 33.0905 39.6862C33.219 39.6862 33.3437 39.699 33.4646 39.7247C33.5906 39.7505 33.7115 39.7877 33.8272 39.8366C33.9455 39.8829 34.0573 39.942 34.1627 40.014C34.2656 40.0835 34.362 40.1632 34.452 40.2532C34.542 40.3432 34.623 40.4409 34.695 40.5463C34.7645 40.6492 34.8236 40.7597 34.8725 40.878C34.9213 40.9963 34.9573 41.1172 34.9805 41.2406C35.0062 41.364 35.019 41.4887 35.019 41.6147V41.6186ZM43.5433 33.0905C43.5433 33.219 43.5305 33.3437 43.5047 33.4646C43.4816 33.5906 43.4456 33.7115 43.3967 33.8272C43.3505 33.9455 43.2913 34.0573 43.2193 34.1627C43.1499 34.2656 43.0702 34.362 42.9802 34.452C42.8902 34.542 42.7925 34.623 42.687 34.695C42.5842 34.7645 42.4736 34.8236 42.3553 34.8725C42.237 34.9213 42.1162 34.9573 41.9927 34.9805C41.8693 35.0062 41.7433 35.019 41.6147 35.019C41.4887 35.019 41.364 35.0062 41.2406 34.9805C41.1172 34.9547 40.9963 34.9187 40.878 34.8725C40.7623 34.8236 40.6517 34.7645 40.5463 34.695C40.4409 34.623 40.3432 34.542 40.2532 34.452C40.1632 34.3646 40.0835 34.2682 40.014 34.1627C39.942 34.0573 39.8829 33.9455 39.8366 33.8272C39.7852 33.7115 39.7479 33.5906 39.7247 33.4646C39.699 33.3412 39.6862 33.2165 39.6862 33.0905C39.6862 32.9619 39.699 32.8359 39.7247 32.7125C39.7505 32.589 39.7877 32.4695 39.8366 32.3537C39.8829 32.2355 39.942 32.1236 40.014 32.0182C40.0835 31.9153 40.1632 31.8176 40.2532 31.725C40.3432 31.6376 40.4409 31.5579 40.5463 31.4859C40.6492 31.4165 40.7597 31.3573 40.878 31.3085C40.9963 31.2596 41.1172 31.2236 41.2406 31.2005C41.364 31.1747 41.4887 31.1619 41.6147 31.1619C41.7433 31.1619 41.8693 31.1747 41.9927 31.2005C42.1162 31.2262 42.237 31.2622 42.3553 31.3085C42.471 31.3573 42.5816 31.4165 42.687 31.4859C42.7925 31.5579 42.8902 31.6376 42.9802 31.725C43.0702 31.815 43.1499 31.9127 43.2193 32.0182C43.2913 32.1236 43.3505 32.2355 43.3967 32.3537C43.4482 32.4695 43.4855 32.589 43.5086 32.7125C43.5343 32.8385 43.5472 32.9645 43.5472 33.0905H43.5433ZM22.8382 41.6186C22.8382 43.7323 22.2506 45.6673 21.0755 47.4236C19.9003 49.1825 18.3369 50.4669 16.3852 51.2769C14.4309 52.0843 12.4175 52.2823 10.3449 51.8709C8.26974 51.4595 6.48517 50.5055 4.99117 49.0089C3.4946 47.5149 2.5406 45.7303 2.12917 43.6552C1.71774 41.5826 1.91574 39.5692 2.72317 37.6149C3.53317 35.6606 4.8176 34.0972 6.57645 32.9246C8.33274 31.7495 10.269 31.1619 12.3853 31.1619C12.5113 31.1619 12.636 31.1747 12.7595 31.2005C12.8829 31.2262 13.0037 31.2622 13.122 31.3085C13.2377 31.3573 13.3483 31.4165 13.4537 31.4859C13.5592 31.5579 13.6569 31.6376 13.7469 31.725C13.8369 31.815 13.9166 31.9127 13.986 32.0182C14.058 32.1236 14.1172 32.2355 14.1635 32.3537C14.2149 32.4695 14.2522 32.589 14.2753 32.7125C14.301 32.8385 14.3139 32.9645 14.3139 33.0905C14.3139 33.219 14.301 33.3437 14.2753 33.4646C14.2496 33.5906 14.2123 33.7115 14.1635 33.8272C14.1172 33.9455 14.058 34.0573 13.986 34.1627C13.9166 34.2656 13.8369 34.362 13.7469 34.452C13.6569 34.542 13.5592 34.623 13.4537 34.695C13.3509 34.7645 13.2403 34.8236 13.122 34.8725C13.0037 34.9213 12.8829 34.9573 12.7595 34.9805C12.636 35.0062 12.5113 35.019 12.3853 35.019C11.0482 35.019 9.82674 35.3893 8.72103 36.1299C7.61017 36.873 6.80017 37.8605 6.29102 39.0922C5.77674 40.3265 5.65074 41.5967 5.91302 42.903C6.17274 44.2145 6.77445 45.3407 7.71817 46.2819C8.66188 47.2256 9.78817 47.8273 11.097 48.087C12.4059 48.3467 13.6762 48.222 14.9079 47.7129C16.1422 47.2012 17.1296 46.3912 17.8702 45.2829C18.6107 44.172 18.981 42.9506 18.981 41.6186C18.981 41.49 18.9939 41.364 19.0196 41.2406C19.0453 41.1172 19.0813 40.9963 19.1276 40.878C19.1765 40.7623 19.2356 40.6517 19.305 40.5463C19.377 40.4409 19.458 40.3432 19.548 40.2532C19.6355 40.1632 19.7319 40.0835 19.8373 40.014C19.9427 39.942 20.0546 39.8829 20.1729 39.8366C20.2886 39.7852 20.4082 39.7479 20.5316 39.7247C20.6576 39.699 20.7836 39.6862 20.9096 39.6862C21.0382 39.6862 21.1642 39.699 21.2876 39.7247C21.411 39.7505 21.5306 39.7877 21.6463 39.8366C21.7646 39.8829 21.8765 39.942 21.9819 40.014C22.0847 40.0835 22.1825 40.1632 22.275 40.2532C22.3625 40.3432 22.4422 40.4409 22.5142 40.5463C22.5836 40.6492 22.6427 40.7597 22.6916 40.878C22.7405 40.9963 22.7765 41.1172 22.7996 41.2406C22.8253 41.364 22.8382 41.4887 22.8382 41.6147V41.6186ZM22.8382 41.6186C22.8382 41.7446 22.8253 41.8693 22.7996 41.9927C22.7739 42.1162 22.7379 42.237 22.6916 42.3553C22.6427 42.471 22.5836 42.5816 22.5142 42.687C22.4422 42.7925 22.3625 42.8902 22.275 42.9802C22.185 43.0702 22.0873 43.1499 21.9819 43.2193C21.8765 43.2913 21.7646 43.3505 21.6463 43.3967C21.5306 43.4482 21.411 43.4855 21.2876 43.5086C21.1616 43.5343 21.0356 43.5472 20.9096 43.5472C20.781 43.5472 20.6563 43.5343 20.5355 43.5086C20.4095 43.4829 20.2886 43.4456 20.1729 43.3967C20.0546 43.3505 19.9427 43.2913 19.8373 43.2193C19.7345 43.1499 19.638 43.0702 19.548 42.9802C19.458 42.8902 19.377 42.7925 19.305 42.687C19.2356 42.5842 19.1765 42.4736 19.1276 42.3553C19.0787 42.237 19.0427 42.1162 19.0196 41.9927C18.9939 41.8693 18.981 41.7433 18.981 41.6147C18.981 41.4887 18.9939 41.364 19.0196 41.2406C19.0453 41.1172 19.0813 40.9963 19.1276 40.878C19.1765 40.7623 19.2356 40.6517 19.305 40.5463C19.377 40.4409 19.458 40.3432 19.548 40.2532C19.6355 40.1632 19.7319 40.0835 19.8373 40.014C19.9427 39.942 20.0546 39.8829 20.1729 39.8366C20.2886 39.7852 20.4082 39.7479 20.5316 39.7247C20.6576 39.699 20.7836 39.6862 20.9096 39.6862C21.0382 39.6862 21.1642 39.699 21.2876 39.7247C21.411 39.7505 21.5306 39.7877 21.6463 39.8366C21.7646 39.8829 21.8765 39.942 21.9819 40.014C22.0847 40.0835 22.1825 40.1632 22.275 40.2532C22.3625 40.3432 22.4422 40.4409 22.5142 40.5463C22.5836 40.6492 22.6427 40.7597 22.6916 40.878C22.7405 40.9963 22.7765 41.1172 22.7996 41.2406C22.8253 41.364 22.8382 41.4887 22.8382 41.6147V41.6186ZM14.3139 33.0905C14.3139 33.219 14.301 33.3437 14.2753 33.4646C14.2496 33.5906 14.2123 33.7115 14.1635 33.8272C14.1172 33.9455 14.058 34.0573 13.986 34.1627C13.9166 34.2656 13.8369 34.362 13.7469 34.452C13.6569 34.542 13.5592 34.623 13.4537 34.695C13.3509 34.7645 13.2403 34.8236 13.122 34.8725C13.0037 34.9213 12.8829 34.9573 12.7595 34.9805C12.636 35.0062 12.5113 35.019 12.3853 35.019C12.2567 35.019 12.1307 35.0062 12.0073 34.9805C11.8839 34.9547 11.763 34.9187 11.6447 34.8725C11.529 34.8236 11.4185 34.7645 11.313 34.695C11.2076 34.623 11.1099 34.542 11.0199 34.452C10.9299 34.3646 10.8502 34.2682 10.7807 34.1627C10.7087 34.0573 10.6496 33.9455 10.6033 33.8272C10.5519 33.7115 10.5146 33.5906 10.4915 33.4646C10.4657 33.3412 10.4529 33.2165 10.4529 33.0905C10.4529 32.9619 10.4657 32.8359 10.4915 32.7125C10.5172 32.589 10.5545 32.4695 10.6033 32.3537C10.6496 32.2355 10.7087 32.1236 10.7807 32.0182C10.8502 31.9153 10.9299 31.8176 11.0199 31.725C11.1099 31.6376 11.2076 31.5579 11.313 31.4859C11.4159 31.4165 11.5265 31.3573 11.6447 31.3085C11.763 31.2596 11.8839 31.2236 12.0073 31.2005C12.1307 31.1747 12.2567 31.1619 12.3853 31.1619C12.5113 31.1619 12.636 31.1747 12.7595 31.2005C12.8829 31.2262 13.0037 31.2622 13.122 31.3085C13.2377 31.3573 13.3483 31.4165 13.4537 31.4859C13.5592 31.5579 13.6569 31.6376 13.7469 31.725C13.8369 31.815 13.9166 31.9127 13.986 32.0182C14.058 32.1236 14.1172 32.2355 14.1635 32.3537C14.2149 32.4695 14.2522 32.589 14.2753 32.7125C14.301 32.8385 14.3139 32.9645 14.3139 33.0905ZM18.981 12.3815C18.981 11.0495 18.6107 9.82802 17.8702 8.71717C17.127 7.60888 16.1396 6.79888 14.9079 6.28717C13.6736 5.77802 12.4033 5.65331 11.097 5.91302C9.7856 6.17274 8.65802 6.77317 7.71431 7.71431C6.7706 8.65802 6.16888 9.78431 5.90917 11.0932C5.64945 12.402 5.77417 13.6723 6.28331 14.904C6.79502 16.1383 7.60503 17.1257 8.71331 17.8663C9.82417 18.6069 11.0456 18.9772 12.3776 18.9772C12.5062 18.9772 12.6322 18.99 12.7556 19.0157C12.879 19.0415 12.9999 19.0775 13.1182 19.1237C13.2339 19.1726 13.3445 19.2317 13.4499 19.3012C13.5553 19.3732 13.653 19.4542 13.743 19.5442C13.833 19.6316 13.9127 19.728 13.9822 19.8335C14.0542 19.9389 14.1133 20.0507 14.1596 20.169C14.211 20.2847 14.2483 20.4056 14.2715 20.5316C14.2972 20.655 14.31 20.7797 14.31 20.9057C14.31 21.0343 14.2972 21.1603 14.2715 21.2837C14.2457 21.4072 14.2085 21.5267 14.1596 21.6425C14.1133 21.7607 14.0542 21.8726 13.9822 21.978C13.9127 22.0809 13.833 22.1786 13.743 22.2712C13.653 22.3586 13.5553 22.4383 13.4499 22.5103C13.347 22.5797 13.2365 22.6389 13.1182 22.6877C12.9999 22.7366 12.879 22.7726 12.7556 22.7957C12.6322 22.8215 12.5075 22.8343 12.3815 22.8343C10.2652 22.8343 8.32888 22.2467 6.5726 21.0716C4.81374 19.8965 3.52931 18.333 2.71931 16.3813C1.91188 14.427 1.71388 12.4136 2.12531 10.341C2.53674 8.26588 3.49074 6.48131 4.98731 4.98731C6.48131 3.49074 8.26588 2.53674 10.341 2.12531C12.4136 1.71388 14.427 1.91188 16.3813 2.71931C18.3356 3.52931 19.899 4.81374 21.0716 6.5726C22.2467 8.32888 22.8343 10.2652 22.8343 12.3815C22.8343 12.5075 22.8215 12.6322 22.7957 12.7556C22.77 12.879 22.734 12.9999 22.6877 13.1182C22.6389 13.2339 22.5797 13.3445 22.5103 13.4499C22.4383 13.5553 22.3586 13.653 22.2712 13.743C22.1812 13.833 22.0835 13.9127 21.978 13.9822C21.8726 14.0542 21.7607 14.1133 21.6425 14.1596C21.5267 14.211 21.4072 14.2483 21.2837 14.2715C21.1577 14.2972 21.0317 14.31 20.9057 14.31C20.7772 14.31 20.6525 14.2972 20.5316 14.2715C20.4056 14.2457 20.2847 14.2085 20.169 14.1596C20.0507 14.1133 19.9389 14.0542 19.8335 13.9822C19.7306 13.9127 19.6342 13.833 19.5442 13.743C19.4542 13.653 19.3732 13.5553 19.3012 13.4499C19.2317 13.347 19.1726 13.2365 19.1237 13.1182C19.0749 12.9999 19.0389 12.879 19.0157 12.7556C18.99 12.6322 18.9772 12.5075 18.9772 12.3815H18.981ZM22.8382 12.3815C22.8382 12.51 22.8253 12.636 22.7996 12.7595C22.7739 12.8829 22.7379 13.0037 22.6916 13.122C22.6427 13.2377 22.5836 13.3483 22.5142 13.4537C22.4422 13.5592 22.3625 13.6569 22.275 13.7469C22.185 13.8369 22.0873 13.9166 21.9819 13.986C21.8765 14.058 21.7646 14.1172 21.6463 14.1635C21.5306 14.2149 21.411 14.2522 21.2876 14.2753C21.1616 14.301 21.0356 14.3139 20.9096 14.3139C20.781 14.3139 20.6563 14.301 20.5355 14.2753C20.4095 14.2496 20.2886 14.2123 20.1729 14.1635C20.0546 14.1172 19.9427 14.058 19.8373 13.986C19.7345 13.9166 19.638 13.8369 19.548 13.7469C19.458 13.6569 19.377 13.5592 19.305 13.4537C19.2356 13.3509 19.1765 13.2403 19.1276 13.122C19.0787 13.0037 19.0427 12.8829 19.0196 12.7595C18.9939 12.636 18.981 12.5113 18.981 12.3853C18.981 12.2567 18.9939 12.1307 19.0196 12.0073C19.0453 11.8839 19.0813 11.763 19.1276 11.6447C19.1765 11.529 19.2356 11.4185 19.305 11.313C19.377 11.2076 19.458 11.1099 19.548 11.0199C19.6355 10.9299 19.7319 10.8502 19.8373 10.7807C19.9427 10.7087 20.0546 10.6496 20.1729 10.6033C20.2886 10.5519 20.4082 10.5146 20.5316 10.4915C20.6576 10.4657 20.7836 10.4529 20.9096 10.4529C21.0382 10.4529 21.1642 10.4657 21.2876 10.4915C21.411 10.5172 21.5306 10.5545 21.6463 10.6033C21.7646 10.6496 21.8765 10.7087 21.9819 10.7807C22.0847 10.8502 22.1825 10.9299 22.275 11.0199C22.3625 11.1099 22.4422 11.2076 22.5142 11.313C22.5836 11.4159 22.6427 11.5265 22.6916 11.6447C22.7405 11.763 22.7765 11.8839 22.7996 12.0073C22.8253 12.1307 22.8382 12.2567 22.8382 12.3853V12.3815ZM14.3139 20.9096C14.3139 21.0382 14.301 21.1642 14.2753 21.2876C14.2496 21.411 14.2123 21.5306 14.1635 21.6463C14.1172 21.7646 14.058 21.8765 13.986 21.9819C13.9166 22.0847 13.8369 22.1825 13.7469 22.275C13.6569 22.3625 13.5592 22.4422 13.4537 22.5142C13.3509 22.5836 13.2403 22.6427 13.122 22.6916C13.0037 22.7405 12.8829 22.7765 12.7595 22.7996C12.636 22.8253 12.5113 22.8382 12.3853 22.8382C12.2567 22.8382 12.1307 22.8253 12.0073 22.7996C11.8839 22.7739 11.763 22.7379 11.6447 22.6916C11.529 22.6427 11.4185 22.5836 11.313 22.5142C11.2076 22.4422 11.1099 22.3625 11.0199 22.275C10.9299 22.185 10.8502 22.0873 10.7807 21.9819C10.7087 21.8765 10.6496 21.7646 10.6033 21.6463C10.5519 21.5306 10.5146 21.411 10.4915 21.2876C10.4657 21.1616 10.4529 21.0356 10.4529 20.9096C10.4529 20.781 10.4657 20.6563 10.4915 20.5355C10.5172 20.4095 10.5545 20.2886 10.6033 20.1729C10.6496 20.0546 10.7087 19.9427 10.7807 19.8373C10.8502 19.7345 10.9299 19.638 11.0199 19.548C11.1099 19.458 11.2076 19.377 11.313 19.305C11.4159 19.2356 11.5265 19.1765 11.6447 19.1276C11.763 19.0787 11.8839 19.0427 12.0073 19.0196C12.1307 18.9939 12.2567 18.981 12.3853 18.981C12.5113 18.981 12.636 18.9939 12.7595 19.0196C12.8829 19.0453 13.0037 19.0813 13.122 19.1276C13.2377 19.1765 13.3483 19.2356 13.4537 19.305C13.5592 19.377 13.6569 19.458 13.7469 19.548C13.8369 19.6355 13.9166 19.7319 13.986 19.8373C14.058 19.9427 14.1172 20.0546 14.1635 20.1729C14.2149 20.2886 14.2522 20.4095 14.2753 20.5355C14.301 20.6589 14.3139 20.7836 14.3139 20.9096Z" fill="#FF5658"/>
</g>
</svg>
