<svg width="138" height="136" viewBox="0 0 138 136" fill="none" xmlns="http://www.w3.org/2000/svg">
<g opacity="0.1" clip-path="url(#clip0_6645_6159)">
<path d="M90.5904 144.109L-10.5047 117.021C-13.618 116.187 -15.4703 112.979 -14.6361 109.865L5.34912 35.2794C6.18332 32.1661 9.39169 30.3137 12.505 31.1479L113.6 58.2363C116.713 59.0705 118.566 62.2788 117.731 65.3921L97.7497 139.965C96.912 143.091 93.7036 144.944 90.5904 144.109Z" fill="#FFEBEC"/>
<path d="M86.9761 122.836L3.24916 100.402C0.520084 99.6704 -1.09951 96.8652 -0.368254 94.1361L8.48843 61.0825C9.21969 58.3534 12.0249 56.7338 14.754 57.4651L98.481 79.8996C101.21 80.6309 102.83 83.4361 102.098 86.1652L93.2452 119.206C92.5237 121.951 89.7185 123.571 86.9761 122.836Z" fill="#FFCDCE"/>
<path d="M117.507 64.6929L5.87978 34.7824C3.93233 34.2606 2.76855 32.2449 3.29037 30.2975L3.42526 29.794C3.94707 27.8466 5.9628 26.6828 7.91025 27.2046L119.537 57.115C121.485 57.6368 122.649 59.6526 122.127 61.6L121.992 62.1034C121.467 64.0641 119.468 65.2182 117.507 64.6929ZM13.8145 86.9888L23.9227 89.6973L19.8618 104.853L9.75359 102.144L13.8145 86.9888ZM30.3226 86.0023L40.4308 88.7107L35.0174 108.914L24.9092 106.205L30.3226 86.0023ZM46.4935 86.2743L56.6017 88.9828L50.1731 112.975L40.0649 110.266L46.4935 86.2743ZM62.6644 86.5463L72.7726 89.2548L65.3287 117.036L55.2205 114.327L62.6644 86.5463ZM79.1761 85.5466L89.2842 88.255L80.4879 121.083L70.3797 118.375L79.1761 85.5466Z" fill="#FE696B"/>
<path d="M98.5105 70.8339C98.3307 71.505 98.4248 72.2201 98.7722 72.8218C99.1196 73.4234 99.6917 73.8625 100.363 74.0423C101.034 74.2221 101.749 74.128 102.351 73.7806C102.952 73.4332 103.391 72.8611 103.571 72.19C103.751 71.5189 103.657 70.8038 103.309 70.2021C102.962 69.6005 102.39 69.1614 101.719 68.9816C101.048 68.8018 100.333 68.8959 99.731 69.2433C99.1293 69.5907 98.6903 70.1629 98.5105 70.8339Z" fill="white"/>
<path d="M92.8546 71.2212L65.1399 63.7951C64.0801 63.5111 63.4365 62.4157 63.724 61.3426L63.8411 60.9055C64.1251 59.8456 65.2205 59.202 66.2936 59.4895L94.0083 66.9157C95.0681 67.1996 95.7118 68.295 95.4242 69.3681L95.3071 69.8053C95.0099 70.8616 93.9145 71.5052 92.8546 71.2212ZM83.1986 133.595L1.14089 111.607C0.0810541 111.324 -0.562577 110.228 -0.275045 109.155L-0.157904 108.718C0.126079 107.658 1.22148 107.014 2.29457 107.302L84.3523 129.289C85.4121 129.573 86.0558 130.669 85.7682 131.742L85.6511 132.179C85.3636 133.252 84.2585 133.879 83.1986 133.595Z" fill="white"/>
<path d="M39.951 64.2167C27.517 62.7166 20.0836 69.8975 16.0815 77.9978C21.9651 73.1563 28.6879 72.0184 37.2461 74.3116L35.3647 81.333L50.5499 72.5659L41.7863 57.3675L39.951 64.2167Z" fill="#B91818"/>
</g>
<defs>
<clipPath id="clip0_6645_6159">
<rect width="140.444" height="140.444" fill="white" transform="translate(2.34961) rotate(15)"/>
</clipPath>
</defs>
</svg>
