<svg width="66" height="66" viewBox="0 0 66 66" fill="none" xmlns="http://www.w3.org/2000/svg">
<path d="M57.6196 51.9967H11.2507C9.8227 51.9967 8.66211 50.8361 8.66211 49.4081V15.198C8.66211 13.7701 9.8227 12.6095 11.2507 12.6095H57.6196C59.0475 12.6095 60.2081 13.7701 60.2081 15.198V49.402C60.2081 50.8361 59.0475 51.9967 57.6196 51.9967Z" fill="#FFEBEC"/>
<path d="M53.6331 43.3073H15.2304C13.9786 43.3073 12.9639 42.2926 12.9639 41.0409V25.8803C12.9639 24.6285 13.9786 23.6138 15.2304 23.6138H53.6331C54.8849 23.6138 55.8996 24.6285 55.8996 25.8803V41.0348C55.9057 42.2926 54.8909 43.3073 53.6331 43.3073Z" fill="#FFD9D9"/>
<path d="M60.032 14.9245H8.83236C7.93913 14.9245 7.20996 14.1954 7.20996 13.3022V13.0712C7.20996 12.178 7.93913 11.4489 8.83236 11.4489H60.032C60.9252 11.4489 61.6544 12.178 61.6544 13.0712V13.3022C61.6544 14.2015 60.9313 14.9245 60.032 14.9245ZM18.2143 36.356H22.8506V43.3074H18.2143V36.356ZM25.1657 34.0409H29.802V43.3074H25.1657V34.0409ZM32.1171 32.303H36.7534V43.3074H32.1171V32.303ZM39.0685 30.5652H43.7048V43.3074H39.0685V30.5652ZM46.0199 28.244H50.6561V43.3013H46.0199V28.244Z" fill="#FF5658"/>
<path d="M52.6064 19.7308C52.6064 20.0386 52.7287 20.3338 52.9464 20.5514C53.164 20.7691 53.4592 20.8914 53.767 20.8914C54.0748 20.8914 54.37 20.7691 54.5877 20.5514C54.8053 20.3338 54.9276 20.0386 54.9276 19.7308C54.9276 19.423 54.8053 19.1278 54.5877 18.9101C54.37 18.6925 54.0748 18.5702 53.767 18.5702C53.4592 18.5702 53.164 18.6925 52.9464 18.9101C52.7287 19.1278 52.6064 19.423 52.6064 19.7308Z" fill="white"/>
<path d="M50.2309 20.545H37.5191C37.033 20.545 36.6319 20.1501 36.6319 19.6579V19.4573C36.6319 18.9712 37.0269 18.5702 37.5191 18.5702H50.2309C50.717 18.5702 51.1181 18.9652 51.1181 19.4573V19.6579C51.112 20.144 50.717 20.545 50.2309 20.545ZM53.2509 48.3445H15.6137C15.1276 48.3445 14.7266 47.9495 14.7266 47.4573V47.2568C14.7266 46.7707 15.1215 46.3697 15.6137 46.3697H53.2509C53.737 46.3697 54.138 46.7646 54.138 47.2568V47.4573C54.138 47.9495 53.737 48.3445 53.2509 48.3445Z" fill="white"/>
<path d="M26.7879 23.6138C21.2948 24.3976 18.9372 28.323 18.1533 32.2483C20.116 29.5018 22.8625 28.244 26.7879 28.244V31.4645L32.2809 25.9714L26.7879 20.4723V23.6138Z" fill="#B91818"/>
</svg>
