<svg width="52" height="52" viewBox="0 0 52 52" fill="none" xmlns="http://www.w3.org/2000/svg">
<g id="Frame">
<path id="Vector" d="M8.651 35.2444L8.64992 35.2438C8.21404 35.014 7.93507 34.7317 7.76194 34.4221L7.76078 34.4201C7.58171 34.1011 7.49191 33.7323 7.51676 33.2945L7.51694 33.2911C7.5381 32.9029 7.65469 32.4804 7.89686 32.033L7.92059 31.9892L7.94135 31.9439L7.97252 31.8759C9.62578 28.3398 12.3165 24.8519 15.5507 22.0858L15.5513 22.0853C15.8082 21.8653 16.0032 21.8204 16.1768 21.8215C16.3929 21.8229 16.7114 21.9013 17.158 22.1495C18.0871 22.666 19.1117 23.6461 20.2479 24.8062L21.554 26.1397L22.5752 24.5772C23.5798 23.04 25.1522 20.7261 26.7335 18.6233C27.5247 17.5711 28.3067 16.5871 29.0129 15.7851C29.7417 14.9576 30.3131 14.4134 30.686 14.1598L30.6877 14.1586C31.5251 13.5877 32.3719 13.4588 33.1724 13.6591C33.9993 13.8659 34.9141 14.4621 35.7406 15.5859L35.7409 15.5863C36.7991 17.0243 38.3538 19.8803 39.9658 23.0939C41.5587 26.2696 43.1515 29.6792 44.2803 32.1457C44.601 32.8464 44.5459 33.646 44.1319 34.2956C43.7179 34.9449 43.0156 35.3334 42.2444 35.3389L10.199 35.5648C10.1973 35.5648 10.1957 35.5648 10.1941 35.5648C9.50774 35.5642 9.00888 35.4335 8.651 35.2444Z" stroke="white" stroke-width="3"/>
<path id="Vector_2" d="M18.8871 18.3543C21.7181 18.3543 24.0211 16.0514 24.0211 13.2204C24.0211 10.3908 21.7181 8.08789 18.8871 8.08789C16.0565 8.08789 13.7536 10.3903 13.7536 13.2204C13.7536 16.0509 16.0565 18.3543 18.8871 18.3543ZM45.2491 40.7697H6.75086C5.88301 40.7697 5.17969 41.473 5.17969 42.3409C5.17969 43.2087 5.88301 43.912 6.75086 43.912H45.2496C46.1175 43.912 46.8208 43.2087 46.8208 42.3409C46.8203 41.473 46.117 40.7697 45.2491 40.7697Z" fill="#FE3F3F"/>
</g>
</svg>
