<svg width="202" height="44" viewBox="0 0 202 44" fill="none" xmlns="http://www.w3.org/2000/svg">
<g clip-path="url(#clip0_6645_6112)">
<path d="M14.076 19.541L13.9788 20.1294L13.5967 22.4752C13.5967 22.4752 34.7079 22.4903 34.8677 22.4752H34.8816C35.4512 22.4375 36 22.3319 36.5349 22.1735C38.1118 21.6983 39.4943 20.7177 40.5154 19.3902C41.4324 18.206 42.0646 16.7502 42.3008 15.1511V15.1134L42.5578 13.5897H20.9047C17.5563 13.5897 14.7568 16.1467 14.076 19.5486V19.541Z" fill="#B91818"/>
<path d="M16.6789 3.49721C16.005 3.64053 15.352 3.8291 14.7129 4.06293C11.045 5.39047 7.94679 8.07573 5.92527 11.5681C5.5432 12.2092 5.20976 12.8805 4.91799 13.5745C4.32057 14.9548 3.88987 16.4257 3.63284 17.972L1.61133 30.4177H10.4337L12.2468 19.2316H12.2538C12.6359 17.2101 13.6015 15.4149 14.9561 14.0798C15.1367 13.8988 15.3173 13.7329 15.5118 13.5745C17.0054 12.3224 18.8671 11.5832 20.9025 11.5832V11.5681H42.8821L44.2506 3.1427H19.9717C18.8463 3.1427 17.7487 3.26339 16.6858 3.49721H16.6789Z" fill="black"/>
<path d="M28.6836 30.4251C27.19 31.6847 25.3144 32.4315 23.2859 32.4315H20.799L22.0911 24.4738H13.2756L11.9835 32.4315H1.28551L-0.0830078 40.8568H24.0292C29.9757 40.8568 35.1927 37.5003 38.1729 32.4315C38.548 31.7903 38.8884 31.119 39.1941 30.4251C39.9929 28.5846 40.5139 26.5858 40.7085 24.4738H31.9833C31.6082 26.8799 30.3994 28.9844 28.6905 30.4251H28.6836Z" fill="black"/>
</g>
<path d="M61.408 19.912H68.728V16.816H60.304V14.368H68.728V11.32H71.272V14.368H79.912V16.816H71.272V19.912H78.808V22.408H71.272V25.456H80.488V27.928H71.272V33.496H68.728V27.928H59.584V25.456H68.728V22.408H61.408V19.912ZM84.16 11.752H93.28V17.944H90.928V16.72C88.864 17.296 86.68 17.8 84.376 18.232L83.872 16.312C85.312 16.168 86.752 15.952 88.168 15.688C87.016 15.304 85.816 15.016 84.616 14.824L85.24 13.624H84.16V11.752ZM86.536 13.624C87.544 13.864 88.504 14.176 89.416 14.56L89.008 15.52C89.68 15.376 90.304 15.232 90.928 15.088V13.624H86.536ZM94.096 11.752H103.432V17.944H101.08V16.72C99.016 17.2 96.88 17.632 94.648 18.016L94.168 16.096C95.56 15.952 96.952 15.784 98.296 15.568C97.144 15.232 95.992 14.944 94.816 14.752L95.392 13.624H94.096V11.752ZM97 13.624C97.936 13.864 98.848 14.152 99.712 14.488L99.352 15.4L101.08 15.04V13.624H97ZM86.104 18.304H102.016V24.736H98.896V25.6H103.144V27.376H98.896V28.336H104.416V30.16H98.248C100.192 30.568 102.064 31.096 103.864 31.744L103.096 33.64C100.792 32.656 98.392 31.888 95.896 31.36L96.52 30.16H91.384L92.296 31.192C90.28 32.2 87.856 33.016 85 33.688L84.04 31.696C86.44 31.288 88.48 30.784 90.16 30.16H83.584V28.336H89.104V27.376H84.976V25.6H89.104V24.736H86.104V18.304ZM91.36 28.336H96.64V27.376H91.36V28.336ZM96.64 25.6V24.736H91.36V25.6H96.64ZM99.664 23.08V22.264H95.176V23.08H99.664ZM92.92 23.08V22.264H88.456V23.08H92.92ZM88.456 20.776H92.92V19.984H88.456V20.776ZM95.176 19.984V20.776H99.664V19.984H95.176ZM108.52 12.496H127.528V14.92H123.76V20.44H128.728V22.864H123.76V33.16H121.24V22.864H115.024C114.784 25.216 114.304 27.208 113.608 28.816C112.672 30.832 111.136 32.392 109 33.472L107.632 31.336C109.576 30.208 110.872 28.792 111.544 27.112C111.976 25.912 112.288 24.496 112.48 22.864H107.296V20.44H112.648C112.648 20.296 112.672 20.176 112.672 20.032V14.92H108.52V12.496ZM115.216 14.92V20.032C115.216 20.176 115.192 20.296 115.192 20.44H121.24V14.92H115.216ZM142.84 21.136C142.504 21.592 142.168 22 141.832 22.384L140.344 20.488C142.168 18.184 143.416 15.112 144.064 11.248L146.512 11.68C146.32 12.736 146.08 13.72 145.84 14.68H152.368V17.104H150.832C150.64 20.92 149.752 24.184 148.144 26.896C149.608 28.864 151.312 30.376 153.28 31.456L151.84 33.592C149.848 32.464 148.144 30.928 146.704 28.96C145.264 30.736 143.464 32.224 141.352 33.424L139.984 31.264C139.672 32.56 138.616 33.208 136.84 33.208C136.504 33.208 135.952 33.16 135.136 33.064L134.56 30.928C135.28 30.976 135.904 31.024 136.456 31.024C137.2 31.024 137.632 30.64 137.776 29.92C137.872 29.2 137.944 26.608 137.992 22.192H135.664C135.328 27.184 134.32 30.952 132.64 33.496L130.672 31.768C132.496 29.104 133.408 24.808 133.456 18.88V17.056H131.224V14.632H135.424C135.016 13.624 134.56 12.664 134.056 11.728L136.48 11.056C137.08 12.352 137.56 13.552 137.944 14.632H141.376V17.056H135.784V18.88C135.784 19.216 135.76 19.552 135.76 19.888H140.344C140.344 25.936 140.224 29.68 140.032 31.072C142.216 29.944 143.968 28.504 145.288 26.776C144.328 25.096 143.512 23.224 142.84 21.136ZM145.024 17.104C144.784 17.704 144.52 18.256 144.28 18.76C144.928 20.944 145.72 22.864 146.656 24.544C147.712 22.408 148.336 19.936 148.48 17.104H145.024ZM156.232 12.136H175.84V14.584H167.176V22.84H176.728V25.264H167.176V33.472H164.632V25.264H155.272V22.84H164.632V14.584H156.232V12.136ZM159.76 15.544C160.624 17.152 161.44 18.928 162.256 20.896L159.904 22.048C159.136 20.056 158.296 18.256 157.432 16.672L159.76 15.544ZM172.456 15.448L174.736 16.528C174.064 18.376 173.176 20.176 172.096 21.904L169.84 20.752C170.944 18.976 171.808 17.2 172.456 15.448ZM198.28 23.248V33.544H195.736V32.632H184.264V33.544H181.72V23.248H198.28ZM184.264 30.232H195.736V25.648H184.264V30.232ZM180.208 21.112L179.752 18.736C181.432 18.472 183.928 15.952 187.192 11.176L189.784 12.088C187.936 14.632 186.04 16.84 184.072 18.664C187.96 18.472 191.752 18.208 195.448 17.872C194.728 16.816 193.984 15.808 193.24 14.872L195.52 13.792C197.44 16.192 199.24 18.832 200.968 21.736L198.52 22.936C197.992 21.952 197.44 21.016 196.888 20.104C191.896 20.56 186.328 20.896 180.208 21.112Z" fill="black"/>
<defs>
<clipPath id="clip0_6645_6112">
<rect width="44" height="44" fill="white"/>
</clipPath>
</defs>
</svg>
