<svg width="72" height="72" viewBox="0 0 72 72" fill="none" xmlns="http://www.w3.org/2000/svg">
<g id="Frame 23" clip-path="url(#clip0_6645_5912)">
<g id="Group">
<path id="Vector" d="M23.0324 31.9762L22.8733 32.9389L22.248 36.7776C22.248 36.7776 56.7937 36.8022 57.0552 36.7776H57.0779C58.01 36.7158 58.9081 36.543 59.7834 36.2838C62.3638 35.5062 64.6259 33.9017 66.2969 31.7293C67.7974 29.7915 68.8319 27.4093 69.2183 24.7926V24.7309L69.6389 22.2377H34.2066C28.7275 22.2377 24.1464 26.4219 23.0324 31.9885V31.9762Z" fill="url(#paint0_linear_6645_5912)"/>
<path id="Vector_2" d="M27.2917 5.72269C26.1891 5.95721 25.1206 6.26578 24.0748 6.64841C18.0727 8.82075 13.0029 13.2148 9.69493 18.9295C9.06972 19.9787 8.52408 21.0772 8.04665 22.2127C7.06905 24.4715 6.36427 26.8783 5.94367 29.4086L2.63574 49.7743H17.0724L20.0393 31.4699H20.0507C20.6759 28.162 22.256 25.2244 24.4726 23.0397C24.7682 22.7435 25.0637 22.4719 25.382 22.2127C27.826 20.1638 30.8725 18.9542 34.2031 18.9542V18.9295H70.1698L72.4091 5.14258H32.6799C30.8384 5.14258 29.0423 5.34006 27.3031 5.72269H27.2917Z" fill="url(#paint1_linear_6645_5912)"/>
<path id="Vector_3" d="M46.9359 49.7865C44.4919 51.8477 41.4227 53.0697 38.1034 53.0697H34.0338L36.1482 40.048H21.7229L19.6085 53.0697H2.10267L-0.136719 66.8567H39.3197C49.0502 66.8567 57.5872 61.3641 62.4638 53.0697C63.0777 52.0205 63.6347 50.922 64.1348 49.7865C65.4421 46.7748 66.2947 43.504 66.6129 40.048H52.3354C51.7216 43.9853 49.7436 47.429 46.9473 49.7865H46.9359Z" fill="url(#paint2_linear_6645_5912)"/>
</g>
</g>
<defs>
<linearGradient id="paint0_linear_6645_5912" x1="32.9685" y1="21.5532" x2="81.3001" y2="36.3568" gradientUnits="userSpaceOnUse">
<stop stop-color="#FFFBFB"/>
<stop offset="1" stop-color="#FFC7C8"/>
</linearGradient>
<linearGradient id="paint1_linear_6645_5912" x1="18.4194" y1="3.04297" x2="94.6068" y2="14.244" gradientUnits="userSpaceOnUse">
<stop stop-color="#FFFBFB"/>
<stop offset="1" stop-color="#FFC7C8"/>
</linearGradient>
<linearGradient id="paint2_linear_6645_5912" x1="14.9629" y1="38.7868" x2="85.5536" y2="55.316" gradientUnits="userSpaceOnUse">
<stop stop-color="#FFFBFB"/>
<stop offset="1" stop-color="#FFC7C8"/>
</linearGradient>
<clipPath id="clip0_6645_5912">
<rect width="72" height="72" fill="white"/>
</clipPath>
</defs>
</svg>
