<svg width="122" height="105" viewBox="0 0 122 105" fill="none" xmlns="http://www.w3.org/2000/svg">
<g id="Frame" opacity="0.15" clip-path="url(#clip0_6645_6150)">
<path id="Vector" d="M66.5617 79.8543L78.736 100.93C78.8631 101.157 78.9668 101.392 79.0471 101.634C79.1337 101.872 79.1913 102.118 79.2197 102.373C79.2582 102.631 79.2677 102.886 79.2484 103.139C79.234 103.393 79.1939 103.643 79.1281 103.888C79.0609 104.139 78.9701 104.378 78.8554 104.605C78.7408 104.832 78.605 105.049 78.4479 105.254C78.2972 105.455 78.1241 105.64 77.9287 105.808C77.7382 105.977 77.5318 106.126 77.3093 106.254C77.0868 106.383 76.8546 106.487 76.6128 106.567C76.3746 106.654 76.1281 106.712 75.8733 106.74C75.6158 106.779 75.3607 106.788 75.108 106.769C74.8539 106.754 74.6015 106.714 74.3508 106.646C74.1052 106.581 73.8687 106.49 73.6415 106.376C73.4143 106.261 73.1981 106.125 72.993 105.968C72.7916 105.818 72.6069 105.645 72.4389 105.449C72.2697 105.259 72.1208 105.052 71.9923 104.83L59.8256 83.7561C59.6971 83.5336 59.5902 83.3008 59.5049 83.0576C59.4246 82.8158 59.3677 82.5668 59.3343 82.3107C59.2995 82.0595 59.2924 81.8051 59.3131 81.5473C59.3275 81.2932 59.3676 81.0434 59.4334 80.7977C59.5006 80.547 59.5915 80.3081 59.7061 80.0808C59.8207 79.8536 59.9534 79.6393 60.104 79.4379C60.2611 79.2328 60.4349 79.0456 60.6253 78.8763C60.8194 78.7134 61.0259 78.5645 61.2447 78.4297C61.4659 78.3062 61.698 78.2019 61.9412 78.1165C62.183 78.0363 62.432 77.9794 62.6882 77.9459C62.9393 77.9111 63.1913 77.9034 63.444 77.9228C63.7031 77.9384 63.9555 77.9792 64.2011 78.045C64.4518 78.1122 64.6883 78.2024 64.9105 78.3157C65.1427 78.4317 65.3595 78.565 65.561 78.7157C65.7661 78.8727 65.9533 79.0465 66.1226 79.2369C66.2855 79.4311 66.4319 79.6369 66.5617 79.8543ZM42.4322 53.641L30.2654 32.5675C30.1383 32.34 30.0346 32.1053 29.9543 31.8635C29.8677 31.6253 29.8101 31.3788 29.7817 31.124C29.7432 30.8665 29.7336 30.6114 29.753 30.3587C29.7673 30.1046 29.8074 29.8547 29.8733 29.609C29.9404 29.3584 30.0313 29.1194 30.1459 28.8922C30.2606 28.665 30.3964 28.4488 30.5534 28.2437C30.7041 28.0423 30.8772 27.8576 31.0727 27.6896C31.2631 27.5204 31.4696 27.3715 31.6921 27.243C31.9146 27.1146 32.1468 27.0102 32.3886 26.9299C32.6267 26.8433 32.8732 26.7857 33.128 26.7573C33.3855 26.7188 33.6406 26.7092 33.8934 26.7286C34.1475 26.7429 34.3999 26.7837 34.6505 26.8509C34.8962 26.9167 35.1327 27.0069 35.3599 27.1215C35.5871 27.2362 35.8033 27.372 36.0084 27.529C36.2098 27.6797 36.3945 27.8528 36.5624 28.0483C36.7317 28.2387 36.8806 28.4452 37.009 28.6677L49.1758 49.7412C49.3043 49.9637 49.4112 50.1965 49.4965 50.4397C49.5767 50.6815 49.6336 50.9305 49.6671 51.1867C49.7019 51.4378 49.7089 51.6922 49.6882 51.95C49.6739 52.2041 49.6338 52.454 49.568 52.6996C49.5008 52.9503 49.4099 53.1893 49.2953 53.4165C49.1807 53.6437 49.048 53.858 48.8973 54.0595C48.7403 54.2646 48.5665 54.4518 48.3761 54.621C48.1819 54.784 47.9755 54.9328 47.7567 55.0677C47.5355 55.1911 47.3033 55.2955 47.0602 55.3808C46.8183 55.4611 46.5693 55.5179 46.3132 55.5514C46.0621 55.5862 45.8101 55.5939 45.5574 55.5746C45.2983 55.5589 45.0459 55.5181 44.8002 55.4523C44.5495 55.3851 44.3131 55.2949 44.0909 55.1816C43.8587 55.0657 43.6418 54.9323 43.4404 54.7816C43.2353 54.6246 43.0481 54.4508 42.8788 54.2604C42.7159 54.0663 42.567 53.8598 42.4322 53.641ZM66.9613 82.8148C66.8942 83.0655 66.8039 83.3019 66.6907 83.5241C66.5747 83.7564 66.4414 83.9732 66.2907 84.1746C66.1336 84.3797 65.9599 84.5669 65.7694 84.7362C65.5753 84.8991 65.367 85.0448 65.1445 85.1733C64.927 85.3031 64.6967 85.4106 64.4535 85.4959C64.2117 85.5762 63.9627 85.6331 63.7066 85.6666C63.4554 85.7014 63.201 85.7084 62.9432 85.6877C62.6891 85.6734 62.4392 85.6333 62.1936 85.5675C61.9429 85.5003 61.7039 85.4094 61.4767 85.2948C61.2495 85.1802 61.0352 85.0475 60.8338 84.8968C60.6287 84.7398 60.4415 84.566 60.2722 84.3756C60.1092 84.1814 59.961 83.9725 59.8276 83.7486C59.7028 83.5325 59.5977 83.3028 59.5124 83.0597C59.4321 82.8178 59.3753 82.5688 59.3418 82.3127C59.307 82.0615 59.3 81.8071 59.3207 81.5493C59.335 81.2953 59.3751 81.0454 59.4409 80.7997C59.5081 80.549 59.599 80.3101 59.7136 80.0829C59.8282 79.8556 59.9609 79.6413 60.1116 79.4399C60.2686 79.2348 60.4424 79.0476 60.6328 78.8783C60.8269 78.7154 61.0334 78.5665 61.2522 78.4317C61.4734 78.3082 61.7056 78.2039 61.9487 78.1186C62.1906 78.0383 62.4396 77.9814 62.6957 77.9479C62.9468 77.9131 63.1988 77.9054 63.4515 77.9248C63.7106 77.9405 63.963 77.9812 64.2087 78.047C64.4594 78.1142 64.6958 78.2044 64.918 78.3177C65.1502 78.4337 65.3671 78.567 65.5685 78.7177C65.7736 78.8748 65.9608 79.0485 66.1301 79.239C66.293 79.4331 66.4394 79.6389 66.5692 79.8564C66.6976 80.0788 66.8045 80.3117 66.8898 80.5549C66.9701 80.7967 67.027 81.0457 67.0604 81.3018C67.0952 81.553 67.103 81.8049 67.0836 82.0577C67.0679 82.3168 67.0272 82.5691 66.9613 82.8148ZM79.1281 103.888C79.0609 104.139 78.9701 104.378 78.8554 104.605C78.7458 104.834 78.6125 105.051 78.4554 105.256C78.3047 105.457 78.1317 105.642 77.9362 105.81C77.7458 105.979 77.5393 106.128 77.3168 106.256C77.0943 106.385 76.8621 106.489 76.6203 106.569C76.3821 106.656 76.1357 106.714 75.8809 106.742C75.6234 106.781 75.3682 106.79 75.1155 106.771C74.8614 106.756 74.609 106.716 74.3583 106.648C74.1127 106.583 73.8762 106.492 73.649 106.378C73.4218 106.263 73.2056 106.127 73.0005 105.97C72.7991 105.82 72.6144 105.647 72.4465 105.451C72.2772 105.261 72.1283 105.054 71.9999 104.832C71.8714 104.609 71.767 104.377 71.6867 104.135C71.6001 103.897 71.5425 103.651 71.5141 103.396C71.4756 103.138 71.4661 102.883 71.4854 102.63C71.4998 102.376 71.5405 102.124 71.6077 101.873C71.6735 101.628 71.7637 101.391 71.8784 101.164C71.993 100.937 72.1288 100.72 72.2859 100.515C72.4366 100.314 72.6096 100.129 72.8051 99.9613C72.9956 99.792 73.202 99.6432 73.4245 99.5147C73.647 99.3862 73.8792 99.2819 74.121 99.2016C74.3592 99.1149 74.6057 99.0574 74.8605 99.0289C75.118 98.9905 75.3731 98.9809 75.6258 99.0003C75.8799 99.0146 76.1298 99.0547 76.3755 99.1205C76.6261 99.1877 76.8651 99.2786 77.0923 99.3932C77.3195 99.5078 77.5357 99.6437 77.7408 99.8007C77.9422 99.9514 78.1269 100.125 78.2948 100.32C78.4641 100.51 78.613 100.717 78.7415 100.939C78.8699 101.162 78.9743 101.394 79.0546 101.636C79.1412 101.874 79.1988 102.121 79.2272 102.375C79.2657 102.633 79.2753 102.888 79.2559 103.141C79.2415 103.395 79.2015 103.645 79.1356 103.89L79.1281 103.888ZM49.568 52.6996C49.5008 52.9503 49.4099 53.1893 49.2953 53.4165C49.1807 53.6437 49.048 53.858 48.8973 54.0595C48.7403 54.2646 48.5665 54.4518 48.3761 54.621C48.1819 54.784 47.9755 54.9328 47.7567 55.0677C47.5355 55.1911 47.3033 55.2955 47.0602 55.3808C46.8183 55.4611 46.5693 55.5179 46.3132 55.5514C46.0621 55.5862 45.8101 55.5939 45.5574 55.5746C45.2983 55.5589 45.0459 55.5181 44.8002 55.4523C44.5495 55.3851 44.3131 55.2949 44.0909 55.1816C43.8587 55.0657 43.6418 54.9323 43.4404 54.7816C43.2353 54.6246 43.0481 54.4508 42.8788 54.2604C42.7159 54.0663 42.567 53.8598 42.4322 53.641C42.3088 53.4198 42.2044 53.1877 42.1191 52.9445C42.0388 52.7027 41.9819 52.4537 41.9484 52.1975C41.9136 51.9464 41.9059 51.6944 41.9253 51.4417C41.941 51.1826 41.9817 50.9302 42.0476 50.6845C42.1147 50.4339 42.2049 50.1974 42.3182 49.9752C42.4342 49.743 42.5675 49.5261 42.7182 49.3247C42.8753 49.1196 43.049 48.9324 43.2395 48.7631C43.4336 48.6002 43.6401 48.4513 43.8589 48.3165C44.08 48.1931 44.3122 48.0887 44.5554 48.0034C44.7972 47.9231 45.0462 47.8662 45.3023 47.8328C45.5535 47.798 45.8079 47.7909 46.0657 47.8116C46.3198 47.826 46.5696 47.866 46.8153 47.9319C47.066 47.999 47.3049 48.0899 47.5322 48.2046C47.7594 48.3192 47.9737 48.4518 48.1751 48.6025C48.3802 48.7596 48.5674 48.9333 48.7367 49.1238C48.8997 49.3179 49.0485 49.5244 49.1833 49.7432C49.3068 49.9644 49.4112 50.1965 49.4965 50.4397C49.5767 50.6815 49.6336 50.9305 49.6671 51.1867C49.7019 51.4378 49.7089 51.6922 49.6882 51.95C49.6739 52.2041 49.6338 52.454 49.568 52.6996ZM37.4012 31.6261C37.3354 31.8718 37.2451 32.1083 37.1305 32.3355C37.0159 32.5627 36.8801 32.7789 36.723 32.984C36.5723 33.1854 36.3992 33.3701 36.2038 33.538C36.0133 33.7073 35.8069 33.8562 35.5844 33.9846C35.3619 34.1131 35.1297 34.2175 34.8879 34.2978C34.6497 34.3844 34.4032 34.4419 34.1484 34.4704C33.8909 34.5089 33.6358 34.5184 33.3831 34.4991C33.129 34.4847 32.8791 34.4446 32.6334 34.3788C32.3828 34.3116 32.1438 34.2207 31.9166 34.1061C31.6894 33.9915 31.4732 33.8557 31.2681 33.6986C31.0667 33.5479 30.882 33.3748 30.714 33.1794C30.5448 32.9889 30.3959 32.7825 30.2674 32.56C30.139 32.3375 30.0346 32.1053 29.9543 31.8635C29.8677 31.6253 29.8101 31.3788 29.7817 31.124C29.7432 30.8665 29.7336 30.6114 29.753 30.3587C29.7673 30.1046 29.8074 29.8547 29.8733 29.609C29.9404 29.3584 30.0313 29.1194 30.1459 28.8922C30.2606 28.665 30.3964 28.4488 30.5534 28.2437C30.7041 28.0423 30.8772 27.8576 31.0727 27.6896C31.2631 27.5204 31.4696 27.3715 31.6921 27.243C31.9146 27.1146 32.1468 27.0102 32.3886 26.9299C32.6267 26.8433 32.8732 26.7857 33.128 26.7573C33.3855 26.7188 33.6406 26.7092 33.8934 26.7286C34.1475 26.7429 34.3999 26.7837 34.6505 26.8509C34.8962 26.9167 35.1327 27.0069 35.3599 27.1215C35.5871 27.2362 35.8033 27.372 36.0084 27.529C36.2098 27.6797 36.3945 27.8528 36.5624 28.0483C36.7317 28.2387 36.8806 28.4452 37.009 28.6677C37.1375 28.8902 37.2419 29.1224 37.3222 29.3642C37.4088 29.6023 37.4663 29.8488 37.4948 30.1036C37.5333 30.3611 37.5428 30.6162 37.5235 30.869C37.5091 31.1231 37.4684 31.3755 37.4012 31.6261ZM41.395 78.8096L20.3195 90.9839C20.092 91.1111 19.8573 91.2148 19.6155 91.295C19.3773 91.3817 19.1309 91.4392 18.8761 91.4677C18.6186 91.5062 18.3634 91.5157 18.1107 91.4964C17.8566 91.482 17.6067 91.4419 17.3611 91.3761C17.1104 91.3089 16.8714 91.218 16.6442 91.1034C16.417 90.9888 16.2008 90.853 15.9957 90.6959C15.7943 90.5452 15.6096 90.3721 15.4417 90.1767C15.2724 89.9862 15.1235 89.7797 14.995 89.5573C14.8666 89.3348 14.7622 89.1026 14.6819 88.8608C14.5953 88.6226 14.5377 88.3761 14.5093 88.1213C14.4708 87.8638 14.4613 87.6087 14.4806 87.356C14.495 87.1019 14.5357 86.8495 14.6029 86.5988C14.6687 86.3531 14.7589 86.1167 14.8736 85.8895C14.9882 85.6623 15.124 85.4461 15.2811 85.241C15.4318 85.0396 15.6048 84.8549 15.8003 84.6869C15.9908 84.5176 16.1972 84.3688 16.4197 84.2403L37.4932 72.0735C37.7157 71.9451 37.9485 71.8382 38.1917 71.7529C38.4335 71.6726 38.6825 71.6157 38.9387 71.5823C39.1898 71.5475 39.4443 71.5404 39.702 71.5611C39.9561 71.5755 40.206 71.6155 40.4517 71.6814C40.7023 71.7485 40.9413 71.8394 41.1685 71.9541C41.3957 72.0687 41.61 72.2013 41.8115 72.352C42.0166 72.5091 42.2038 72.6828 42.3731 72.8733C42.536 73.0674 42.6849 73.2739 42.8197 73.4927C42.9431 73.7138 43.0475 73.946 43.1328 74.1892C43.2131 74.431 43.27 74.68 43.3034 74.9362C43.3382 75.1873 43.346 75.4392 43.3266 75.692C43.3109 75.9511 43.2701 76.2035 43.2043 76.4491C43.1371 76.6998 43.0469 76.9363 42.9337 77.1585C42.8177 77.3907 42.6844 77.6075 42.5337 77.809C42.3766 78.0141 42.2029 78.2013 42.0124 78.3705C41.8183 78.5335 41.6125 78.6798 41.395 78.8096ZM67.6084 54.6802L88.6819 42.5134C88.9094 42.3863 89.144 42.2826 89.3859 42.2023C89.624 42.1156 89.8705 42.0581 90.1253 42.0296C90.3828 41.9912 90.6379 41.9816 90.8907 42.001C91.1448 42.0153 91.3946 42.0554 91.6403 42.1212C91.891 42.1884 92.1299 42.2793 92.3572 42.3939C92.5844 42.5085 92.8005 42.6444 93.0056 42.8014C93.2071 42.9521 93.3918 43.1252 93.5597 43.3207C93.729 43.5111 93.8779 43.7176 94.0063 43.9401C94.1348 44.1626 94.2392 44.3947 94.3194 44.6366C94.4061 44.8747 94.4636 45.1212 94.4921 45.376C94.5306 45.6335 94.5401 45.8886 94.5208 46.1414C94.5064 46.3955 94.4656 46.6478 94.3985 46.8985C94.3327 47.1442 94.2424 47.3806 94.1278 47.6079C94.0132 47.8351 93.8774 48.0512 93.7203 48.2563C93.5696 48.4578 93.3965 48.6425 93.2011 48.8104C93.0106 48.9797 92.8041 49.1286 92.5817 49.257L71.5082 61.4238C71.2857 61.5523 71.0528 61.6591 70.8097 61.7444C70.5678 61.8247 70.3188 61.8816 70.0627 61.9151C69.8116 61.9499 69.5571 61.9569 69.2993 61.9362C69.0453 61.9219 68.7954 61.8818 68.5497 61.816C68.299 61.7488 68.0601 61.6579 67.8329 61.5433C67.6056 61.4287 67.3913 61.296 67.1899 61.1453C66.9848 60.9882 66.7976 60.8145 66.6283 60.624C66.4654 60.4299 66.3165 60.2235 66.1817 60.0046C66.0582 59.7835 65.9539 59.5513 65.8686 59.3081C65.7883 59.0663 65.7314 58.8173 65.6979 58.5612C65.6631 58.31 65.6554 58.0581 65.6748 57.8054C65.6905 57.5463 65.7312 57.2939 65.7971 57.0482C65.8642 56.7975 65.9544 56.5611 66.0677 56.3389C66.1837 56.1066 66.317 55.8898 66.4677 55.6884C66.6248 55.4833 66.7985 55.2961 66.989 55.1268C67.1831 54.9639 67.3895 54.815 67.6084 54.6802ZM43.2023 76.4567C43.1351 76.7073 43.0449 76.9438 42.9316 77.166C42.8157 77.3982 42.6823 77.615 42.5316 77.8165C42.3746 78.0216 42.2008 78.2088 42.0104 78.3781C41.8163 78.541 41.6105 78.6874 41.393 78.8172C41.1705 78.9456 40.9377 79.0525 40.6945 79.1378C40.4527 79.2181 40.2037 79.275 39.9475 79.3084C39.6964 79.3432 39.4444 79.3509 39.1917 79.3316C38.9326 79.3159 38.6802 79.2751 38.4345 79.2093C38.1839 79.1421 37.9474 79.0519 37.7252 78.9386C37.493 78.8227 37.2762 78.6894 37.0747 78.5387C36.8696 78.3816 36.6824 78.2079 36.5131 78.0174C36.3502 77.8233 36.202 77.6143 36.0685 77.3905C35.9437 77.1743 35.8387 76.9447 35.7534 76.7015C35.6731 76.4597 35.6162 76.2107 35.5828 75.9545C35.548 75.7034 35.5409 75.4489 35.5616 75.1912C35.576 74.9371 35.6161 74.6872 35.6819 74.4416C35.7491 74.1909 35.8399 73.9519 35.9546 73.7247C36.0692 73.4975 36.2018 73.2832 36.3525 73.0817C36.5096 72.8766 36.6833 72.6894 36.8738 72.5201C37.0679 72.3572 37.2744 72.2083 37.4932 72.0735C37.7144 71.9501 37.9465 71.8457 38.1897 71.7604C38.4315 71.6801 38.6805 71.6233 38.9367 71.5898C39.1878 71.555 39.4422 71.5479 39.7 71.5686C39.9541 71.583 40.204 71.6231 40.4496 71.6889C40.7003 71.7561 40.9393 71.847 41.1665 71.9616C41.3937 72.0762 41.608 72.2089 41.8095 72.3596C42.0146 72.5166 42.2018 72.6904 42.371 72.8808C42.534 73.0749 42.6828 73.2814 42.8177 73.5002C42.9411 73.7214 43.0455 73.9535 43.1308 74.1967C43.2111 74.4385 43.2679 74.6875 43.3014 74.9437C43.3362 75.1948 43.3439 75.4468 43.3246 75.6995C43.3089 75.9586 43.2681 76.211 43.2023 76.4567ZM22.1288 88.6234C22.0616 88.8741 21.9708 89.1131 21.8561 89.3403C21.7415 89.5675 21.6057 89.7837 21.4486 89.9888C21.2979 90.1902 21.1248 90.3749 20.9294 90.5428C20.7389 90.7121 20.5325 90.861 20.31 90.9894C20.0875 91.1179 19.8553 91.2223 19.6135 91.3026C19.3753 91.3892 19.1288 91.4468 18.874 91.4752C18.6165 91.5137 18.3614 91.5232 18.1087 91.5039C17.8546 91.4895 17.6047 91.4494 17.359 91.3836C17.1084 91.3164 16.8694 91.2256 16.6422 91.1109C16.415 90.9963 16.1988 90.8605 15.9937 90.7034C15.7923 90.5527 15.6076 90.3796 15.4397 90.1842C15.2704 89.9937 15.1215 89.7873 14.993 89.5648C14.8646 89.3423 14.7602 89.1101 14.6799 88.8683C14.5933 88.6301 14.5357 88.3836 14.5073 88.1288C14.4688 87.8713 14.4592 87.6162 14.4786 87.3635C14.4929 87.1094 14.5337 86.857 14.6009 86.6063C14.6667 86.3607 14.7569 86.1242 14.8715 85.897C14.9862 85.6698 15.122 85.4536 15.2791 85.2485C15.4298 85.0471 15.6028 84.8624 15.7983 84.6944C15.9887 84.5252 16.1952 84.3763 16.4177 84.2478C16.6402 84.1194 16.8724 84.015 17.1142 83.9347C17.3524 83.8481 17.5988 83.7905 17.8536 83.7621C18.1111 83.7236 18.3663 83.714 18.619 83.7334C18.8731 83.7477 19.1255 83.7885 19.3762 83.8557C19.6218 83.9215 19.8583 84.0117 20.0855 84.1263C20.3127 84.241 20.5289 84.3768 20.734 84.5339C20.9354 84.6845 21.1201 84.8576 21.288 85.0531C21.4573 85.2435 21.6062 85.45 21.7346 85.6725C21.8631 85.895 21.9675 86.1272 22.0478 86.369C22.1344 86.6071 22.192 86.8536 22.2204 87.1084C22.2589 87.3659 22.2684 87.6211 22.2491 87.8738C22.2347 88.1279 22.1946 88.3778 22.1288 88.6234ZM73.3155 59.0708C73.2483 59.3215 73.1574 59.5604 73.0428 59.7877C72.9282 60.0149 72.7955 60.2292 72.6448 60.4306C72.4877 60.6357 72.314 60.8229 72.1235 60.9922C71.9294 61.1551 71.7205 61.3034 71.4966 61.4368C71.2805 61.5616 71.0508 61.6667 70.8076 61.752C70.5658 61.8322 70.3168 61.8891 70.0607 61.9226C69.8095 61.9574 69.5551 61.9644 69.2973 61.9437C69.0432 61.9294 68.7934 61.8893 68.5477 61.8235C68.297 61.7563 68.0581 61.6654 67.8309 61.5508C67.6036 61.4362 67.3893 61.3035 67.1879 61.1528C66.9828 60.9958 66.7956 60.822 66.6263 60.6316C66.4634 60.4374 66.3145 60.231 66.1797 60.0122C66.0562 59.791 65.9519 59.5588 65.8666 59.3157C65.7863 59.0738 65.7294 58.8248 65.6959 58.5687C65.6611 58.3176 65.6534 58.0656 65.6728 57.8129C65.6885 57.5538 65.7292 57.3014 65.795 57.0557C65.8622 56.805 65.9524 56.5686 66.0657 56.3464C66.1817 56.1142 66.315 55.8973 66.4657 55.6959C66.6228 55.4908 66.7965 55.3036 66.9869 55.1343C67.1811 54.9714 67.3875 54.8225 67.6064 54.6877C67.8275 54.5642 68.0597 54.4599 68.3029 54.3746C68.5447 54.2943 68.7937 54.2374 69.0498 54.2039C69.301 54.1691 69.5529 54.1614 69.8056 54.1808C70.0647 54.1965 70.3171 54.2372 70.5628 54.3031C70.8135 54.3702 71.0499 54.4604 71.2721 54.5737C71.5044 54.6897 71.7212 54.823 71.9226 54.9737C72.1277 55.1308 72.3149 55.3045 72.4842 55.495C72.6471 55.6891 72.7935 55.8949 72.9233 56.1124C73.0518 56.3349 73.1586 56.5677 73.2439 56.8109C73.3242 57.0527 73.3811 57.3017 73.4146 57.5578C73.4494 57.809 73.4564 58.0634 73.4357 58.3212C73.4214 58.5753 73.3813 58.8251 73.3155 59.0708ZM94.3889 46.904C94.3231 47.1497 94.2329 47.3861 94.1183 47.6134C94.0087 47.8419 93.8753 48.0588 93.7183 48.2639C93.5676 48.4653 93.3945 48.65 93.1991 48.8179C93.0086 48.9872 92.8021 49.1361 92.5796 49.2645C92.3571 49.393 92.125 49.4974 91.8831 49.5777C91.645 49.6643 91.3985 49.7218 91.1437 49.7503C90.8862 49.7888 90.6311 49.7983 90.3783 49.779C90.1242 49.7646 89.8719 49.7239 89.6212 49.6567C89.3755 49.5909 89.1391 49.5006 88.9119 49.386C88.6846 49.2714 88.4685 49.1356 88.2634 48.9785C88.0619 48.8278 87.8773 48.6547 87.7093 48.4593C87.54 48.2688 87.3912 48.0624 87.2627 47.8399C87.1342 47.6174 87.0299 47.3852 86.9496 47.1434C86.8629 46.9052 86.8054 46.6587 86.7769 46.4039C86.7385 46.1464 86.7289 45.8913 86.7483 45.6386C86.7626 45.3845 86.8027 45.1346 86.8685 44.8889C86.9357 44.6383 87.0266 44.3993 87.1412 44.1721C87.2558 43.9449 87.3917 43.7287 87.5487 43.5236C87.6994 43.3222 87.8725 43.1375 88.068 42.9695C88.2584 42.8003 88.4649 42.6514 88.6874 42.5229C88.9099 42.3945 89.142 42.2901 89.3838 42.2098C89.622 42.1232 89.8685 42.0656 90.1233 42.0372C90.3808 41.9987 90.6359 41.9891 90.8887 42.0085C91.1427 42.0228 91.3926 42.0629 91.6383 42.1288C91.889 42.1959 92.1279 42.2868 92.3551 42.4014C92.5824 42.5161 92.7985 42.6519 93.0036 42.8089C93.2051 42.9596 93.3897 43.1327 93.5577 43.3282C93.727 43.5186 93.8758 43.7251 94.0043 43.9476C94.1328 44.1701 94.2371 44.4023 94.3174 44.6441C94.4041 44.8822 94.4616 45.1287 94.4901 45.3835C94.5285 45.641 94.5381 45.8961 94.5187 46.1489C94.5044 46.403 94.4636 46.6554 94.3965 46.906L94.3889 46.904Z" fill="#FE696B"/>
<path id="Vector_2" d="M35.6836 74.434L42.0493 50.677C42.1165 50.4263 42.2067 50.1899 42.32 49.9677C42.4359 49.7355 42.5693 49.5186 42.72 49.3172C42.877 49.1121 43.0508 48.9249 43.2412 48.7556C43.4353 48.5927 43.6418 48.4438 43.8606 48.309C44.0818 48.1855 44.314 48.0812 44.5571 47.9959C44.799 47.9156 45.048 47.8587 45.3041 47.8252C45.5552 47.7904 45.8097 47.7834 46.0674 47.8041C46.3215 47.8184 46.5714 47.8585 46.8171 47.9244L70.5741 54.29C70.8248 54.3572 71.0612 54.4474 71.2834 54.5607C71.5157 54.6767 71.7325 54.81 71.9339 54.9607C72.139 55.1177 72.3262 55.2915 72.4955 55.4819C72.6584 55.6761 72.8073 55.8825 72.9421 56.1013C73.0656 56.3225 73.1699 56.5547 73.2552 56.7978C73.3355 57.0397 73.3924 57.2887 73.4259 57.5448C73.4607 57.7959 73.4677 58.0504 73.447 58.3081C73.4327 58.5622 73.3926 58.8121 73.3268 59.0578L66.9591 82.8223C66.8919 83.073 66.8017 83.3094 66.6884 83.5316C66.5724 83.7639 66.4391 83.9807 66.2884 84.1821C66.1314 84.3872 65.9576 84.5744 65.7672 84.7437C65.573 84.9067 65.3666 85.0555 65.1477 85.1903C64.9266 85.3138 64.6944 85.4182 64.4513 85.5035C64.2094 85.5837 63.9604 85.6406 63.7043 85.6741C63.4531 85.7089 63.1987 85.7159 62.9409 85.6952C62.6869 85.6809 62.437 85.6408 62.1913 85.575L38.4268 79.2073C38.1761 79.1401 37.9397 79.0499 37.7174 78.9366C37.4852 78.8207 37.2684 78.6873 37.0669 78.5366C36.8618 78.3796 36.6747 78.2058 36.5054 78.0154C36.3424 77.8213 36.1936 77.6148 36.0588 77.396C35.9353 77.1748 35.8309 76.9427 35.7456 76.6995C35.6653 76.4576 35.6085 76.2087 35.575 75.9525C35.5402 75.7014 35.5331 75.4469 35.5539 75.1892C35.5682 74.9351 35.6083 74.6852 35.6741 74.4395L35.6836 74.434ZM48.5602 56.4598L44.2096 72.6964L60.4462 77.047L64.7988 60.8029L48.5547 56.4503L48.5602 56.4598ZM70.2522 40.4205C71.3564 36.2994 73.5129 32.8336 76.7217 30.0232C79.9318 27.2078 83.6511 25.5203 87.8796 24.9607C92.1118 24.4074 96.1409 25.0732 99.9669 26.9581C103.798 28.8444 106.779 31.6368 108.91 35.3352C111.047 39.03 111.975 43.0079 111.693 47.2688C111.413 51.5247 109.975 55.3469 107.379 58.7354C104.779 62.1226 101.458 64.4999 97.4162 65.8672C93.378 67.2409 89.2958 67.3749 85.1696 66.2693C84.9239 66.2035 84.6875 66.1133 84.4603 65.9986C84.233 65.884 84.0162 65.7507 83.8098 65.5986C83.6097 65.4429 83.425 65.2699 83.2557 65.0794C83.0878 64.8839 82.9389 64.6775 82.8091 64.46C82.6806 64.2375 82.5763 64.0053 82.496 63.7635C82.4107 63.5203 82.3538 63.2713 82.3253 63.0165C82.2855 62.7641 82.2753 62.5114 82.2947 62.2587C82.3103 61.9996 82.3511 61.7472 82.4169 61.5015C82.4841 61.2509 82.5743 61.0144 82.6876 60.7922C82.8036 60.56 82.9394 60.3438 83.0951 60.1437C83.2472 59.9373 83.4209 59.7501 83.6164 59.5822C83.8055 59.4179 84.0113 59.2715 84.2338 59.1431C84.4563 59.0146 84.6891 58.9077 84.9323 58.8224C85.1691 58.7408 85.4156 58.6832 85.6717 58.6498C85.9279 58.6163 86.1823 58.6093 86.4351 58.6286C86.6891 58.643 86.939 58.6831 87.1847 58.7489C89.7918 59.4474 92.3667 59.3636 94.9094 58.4973C97.4636 57.6287 99.5587 56.1267 101.195 53.9912C102.842 51.8533 103.752 49.4424 103.923 46.7585C104.102 44.0658 103.52 41.5537 102.178 39.222C100.831 36.889 98.9494 35.1274 96.5332 33.9372C94.1169 32.7471 91.575 32.3266 88.9075 32.6758C86.2337 33.0287 83.8853 34.0921 81.8623 35.8661C79.8381 37.6451 78.478 39.8331 77.7821 42.4301C77.7149 42.6808 77.6241 42.9198 77.5094 43.147C77.3948 43.3742 77.2615 43.591 77.1094 43.7975C76.9537 43.9976 76.7807 44.1823 76.5902 44.3515C76.3947 44.5195 76.1858 44.6677 75.9633 44.7961C75.7458 44.9259 75.5161 45.031 75.2743 45.1113C75.0311 45.1966 74.7821 45.2534 74.5273 45.2819C74.2749 45.3217 74.0197 45.3313 73.762 45.3106C73.5079 45.2962 73.258 45.2561 73.0124 45.1903C72.7617 45.1231 72.5227 45.0322 72.2955 44.9176C72.0683 44.803 71.8546 44.6678 71.6545 44.5121C71.4481 44.3601 71.2609 44.1863 71.093 43.9909C70.9287 43.8018 70.7798 43.5953 70.6463 43.3715C70.5229 43.1503 70.4185 42.9182 70.3332 42.675C70.2516 42.4382 70.194 42.1917 70.1606 41.9355C70.1271 41.6794 70.1201 41.4249 70.1394 41.1722C70.1538 40.9181 70.1939 40.6682 70.2597 40.4226L70.2522 40.4205ZM77.7726 42.4356C77.7054 42.6863 77.6145 42.9253 77.4999 43.1525C77.3853 43.3797 77.252 43.5965 77.0999 43.803C76.9442 44.0031 76.7711 44.1878 76.5807 44.357C76.3852 44.525 76.1762 44.6732 75.9537 44.8016C75.7363 44.9314 75.5066 45.0365 75.2648 45.1168C75.0216 45.2021 74.7726 45.259 74.5178 45.2874C74.2653 45.3272 74.0102 45.3368 73.7524 45.3161C73.4984 45.3017 73.2485 45.2616 73.0028 45.1958C72.7521 45.1286 72.5132 45.0378 72.286 44.9231C72.0587 44.8085 71.8451 44.6733 71.645 44.5176C71.4386 44.3656 71.2514 44.1918 71.0834 43.9964C70.9191 43.8073 70.7703 43.6008 70.6368 43.377C70.5134 43.1558 70.409 42.9237 70.3237 42.6805C70.242 42.4437 70.1845 42.1972 70.151 41.941C70.1176 41.6849 70.1105 41.4304 70.1299 41.1777C70.1442 40.9236 70.1843 40.6737 70.2501 40.4281C70.3173 40.1774 70.4082 39.9384 70.5228 39.7112C70.6375 39.484 70.7708 39.2672 70.9228 39.0607C71.0785 38.8606 71.2516 38.6759 71.4421 38.5067C71.6375 38.3387 71.844 38.1898 72.0615 38.06C72.284 37.9316 72.5161 37.8272 72.758 37.7469C73.0011 37.6616 73.2501 37.6047 73.5049 37.5763C73.7574 37.5365 74.01 37.5262 74.2628 37.5456C74.5219 37.5613 74.7742 37.602 75.0199 37.6679C75.2706 37.735 75.507 37.8253 75.7292 37.9385C75.9615 38.0545 76.1776 38.1903 76.3777 38.3461C76.5842 38.4981 76.7714 38.6718 76.9393 38.8673C77.1036 39.0564 77.25 39.2622 77.3784 39.4847C77.5069 39.7072 77.6137 39.94 77.6991 40.1832C77.7807 40.42 77.8382 40.6665 77.8717 40.9227C77.9051 41.1788 77.9122 41.4333 77.8928 41.686C77.8785 41.9401 77.8377 42.1925 77.7706 42.4432L77.7726 42.4356ZM89.9374 63.5166C89.8702 63.7673 89.7793 64.0063 89.6647 64.2335C89.5551 64.462 89.4224 64.6764 89.2667 64.8765C89.1146 65.0829 88.9409 65.2701 88.7454 65.438C88.5563 65.6023 88.3499 65.7512 88.126 65.8847C87.9049 66.0081 87.6727 66.1125 87.4295 66.1978C87.1927 66.2794 86.9462 66.337 86.6901 66.3704C86.4339 66.4039 86.1795 66.4109 85.9267 66.3916C85.6727 66.3772 85.4203 66.3365 85.1696 66.2693C84.9239 66.2035 84.6875 66.1133 84.4603 65.9986C84.233 65.884 84.0162 65.7507 83.8098 65.5986C83.6097 65.4429 83.425 65.2699 83.2557 65.0794C83.0878 64.8839 82.9389 64.6775 82.8091 64.46C82.6806 64.2375 82.5763 64.0053 82.496 63.7635C82.4107 63.5203 82.3538 63.2713 82.3253 63.0165C82.2855 62.7641 82.2753 62.5114 82.2947 62.2587C82.3103 61.9996 82.3511 61.7472 82.4169 61.5015C82.4841 61.2509 82.5743 61.0144 82.6876 60.7922C82.8036 60.56 82.9394 60.3438 83.0951 60.1437C83.2472 59.9373 83.4209 59.7501 83.6164 59.5822C83.8055 59.4179 84.0113 59.2715 84.2338 59.1431C84.4563 59.0146 84.6891 58.9077 84.9323 58.8224C85.1691 58.7408 85.4156 58.6832 85.6717 58.6498C85.9279 58.6163 86.1823 58.6093 86.4351 58.6286C86.6891 58.643 86.939 58.6831 87.1847 58.7489C87.4354 58.8161 87.6743 58.9069 87.9015 59.0216C88.1288 59.1362 88.3456 59.2695 88.552 59.4216C88.7521 59.5773 88.9368 59.7503 89.1061 59.9408C89.274 60.1362 89.4222 60.3452 89.5507 60.5677C89.6805 60.7852 89.7855 61.0149 89.8658 61.2567C89.9511 61.4999 90.008 61.7489 90.0365 62.0037C90.0763 62.2561 90.0858 62.5113 90.0651 62.769C90.0508 63.0231 90.0107 63.273 89.9449 63.5186L89.9374 63.5166ZM62.4982 99.4404C61.8023 102.037 61.8862 104.612 62.7497 107.165C63.6197 109.714 65.1217 111.809 67.2559 113.451C69.3965 115.088 71.808 115.995 74.4906 116.171C77.1833 116.35 79.6936 115.765 82.0216 114.417C84.3546 113.07 86.1162 111.188 87.3064 108.772C88.4965 106.356 88.917 103.814 88.5678 101.146C88.2149 98.4723 87.1515 96.124 85.3775 94.101C83.5985 92.0768 81.4105 90.7167 78.8135 90.0208C78.5628 89.9536 78.3238 89.8627 78.0966 89.7481C77.8694 89.6335 77.6526 89.5002 77.4461 89.3481C77.246 89.1924 77.0613 89.0193 76.892 88.8289C76.7241 88.6334 76.5759 88.4245 76.4474 88.202C76.3176 87.9845 76.2126 87.7548 76.1323 87.513C76.047 87.2698 75.9901 87.0208 75.9617 86.766C75.9219 86.5135 75.9123 86.2584 75.933 86.0007C75.9474 85.7466 75.9874 85.4967 76.0533 85.251C76.1204 85.0004 76.2113 84.7614 76.326 84.5342C76.4406 84.307 76.5757 84.0933 76.7315 83.8932C76.8835 83.6868 77.0572 83.4996 77.2527 83.3316C77.4418 83.1674 77.6483 83.0185 77.8721 82.885C78.0933 82.7616 78.3254 82.6572 78.5686 82.5719C78.8054 82.4903 79.0519 82.4327 79.3081 82.3993C79.5642 82.3658 79.8187 82.3588 80.0714 82.3781C80.3255 82.3925 80.5754 82.4325 80.821 82.4984C84.9472 83.604 88.4155 85.7612 91.2259 88.9699C94.0413 92.18 95.7288 95.8993 96.2884 100.128C96.8417 104.36 96.1759 108.389 94.2909 112.215C92.4046 116.046 89.6123 119.027 85.9139 121.158C82.2191 123.296 78.2412 124.223 73.9803 123.941C69.7244 123.661 65.9022 122.223 62.5137 119.628C59.1265 117.027 56.7492 113.706 55.3819 109.664C54.0082 105.626 53.8742 101.544 54.9798 97.4178C55.0456 97.1722 55.1358 96.9357 55.2505 96.7085C55.3651 96.4813 55.4984 96.2644 55.6504 96.058C55.8062 95.8579 55.9792 95.6732 56.1697 95.5039C56.3651 95.336 56.5716 95.1871 56.7891 95.0573C57.0116 94.9289 57.2438 94.8245 57.4856 94.7442C57.7288 94.6589 57.9777 94.602 58.2326 94.5736C58.485 94.5337 58.7377 94.5235 58.9904 94.5429C59.2495 94.5586 59.5019 94.5993 59.7475 94.6651C59.9982 94.7323 60.2347 94.8225 60.4569 94.9358C60.6891 95.0518 60.9053 95.1876 61.1054 95.3433C61.3118 95.4954 61.499 95.6691 61.6669 95.8646C61.8312 96.0537 61.9776 96.2595 62.106 96.482C62.2345 96.7045 62.3414 96.9373 62.4267 97.1805C62.5083 97.4173 62.5659 97.6638 62.5993 97.9199C62.6328 98.1761 62.6398 98.4305 62.6205 98.6833C62.6061 98.9374 62.566 99.1872 62.5002 99.4329L62.4982 99.4404ZM62.4982 99.4404C62.4324 99.6861 62.3421 99.9225 62.2275 100.15C62.1129 100.377 61.9796 100.594 61.8275 100.8C61.6718 101 61.4987 101.185 61.3083 101.354C61.1128 101.522 60.9039 101.67 60.6814 101.799C60.4639 101.929 60.2342 102.034 59.9924 102.114C59.7492 102.199 59.5002 102.256 59.2454 102.285C58.9929 102.325 58.7378 102.334 58.4801 102.313C58.226 102.299 57.9761 102.259 57.7304 102.193C57.4798 102.126 57.2408 102.035 57.0136 101.92C56.7864 101.806 56.5727 101.671 56.3726 101.515C56.1662 101.363 55.979 101.189 55.811 100.994C55.6468 100.805 55.4979 100.598 55.3644 100.374C55.241 100.153 55.1366 99.9209 55.0513 99.6778C54.9697 99.4409 54.9121 99.1945 54.8787 98.9383C54.8452 98.6822 54.8382 98.4277 54.8575 98.175C54.8719 97.9209 54.9126 97.6685 54.9798 97.4178C55.0456 97.1722 55.1358 96.9357 55.2505 96.7085C55.3651 96.4813 55.4984 96.2644 55.6504 96.058C55.8062 95.8579 55.9792 95.6732 56.1697 95.5039C56.3651 95.336 56.5716 95.1871 56.7891 95.0573C57.0116 94.9289 57.2438 94.8245 57.4856 94.7442C57.7288 94.6589 57.9777 94.602 58.2326 94.5736C58.485 94.5337 58.7377 94.5235 58.9904 94.5429C59.2495 94.5586 59.5019 94.5993 59.7475 94.6651C59.9982 94.7323 60.2347 94.8225 60.4569 94.9358C60.6891 95.0518 60.9053 95.1876 61.1054 95.3433C61.3118 95.4954 61.499 95.6691 61.6669 95.8646C61.8312 96.0537 61.9776 96.2595 62.106 96.482C62.2345 96.7045 62.3414 96.9373 62.4267 97.1805C62.5083 97.4173 62.5659 97.6638 62.5993 97.9199C62.6328 98.1761 62.6398 98.4305 62.6205 98.6833C62.6061 98.9374 62.566 99.1872 62.5002 99.4329L62.4982 99.4404ZM83.5737 87.2661C83.5065 87.5168 83.4163 87.7532 83.303 87.9755C83.1921 88.209 83.0587 88.4259 82.903 88.6259C82.751 88.8324 82.5772 89.0196 82.3818 89.1875C82.1927 89.3518 81.9869 89.4982 81.7644 89.6266C81.5419 89.7551 81.3091 89.862 81.0659 89.9473C80.8291 90.0289 80.5826 90.0865 80.3264 90.1199C80.0703 90.1534 79.8158 90.1604 79.5631 90.1411C79.309 90.1267 79.0566 90.086 78.8059 90.0188C78.5603 89.953 78.3238 89.8627 78.0966 89.7481C77.8694 89.6335 77.6526 89.5002 77.4461 89.3481C77.246 89.1924 77.0613 89.0193 76.892 88.8289C76.7241 88.6334 76.5759 88.4245 76.4474 88.202C76.3176 87.9845 76.2126 87.7548 76.1323 87.513C76.047 87.2698 75.9901 87.0208 75.9617 86.766C75.9219 86.5135 75.9123 86.2584 75.933 86.0007C75.9474 85.7466 75.9874 85.4967 76.0533 85.251C76.1204 85.0004 76.2113 84.7614 76.326 84.5342C76.4406 84.307 76.5757 84.0933 76.7315 83.8932C76.8835 83.6868 77.0572 83.4996 77.2527 83.3316C77.4418 83.1674 77.6483 83.0185 77.8721 82.885C78.0933 82.7616 78.3254 82.6572 78.5686 82.5719C78.8054 82.4903 79.0519 82.4327 79.3081 82.3993C79.5642 82.3658 79.8187 82.3588 80.0714 82.3781C80.3255 82.3925 80.5754 82.4325 80.821 82.4984C81.0717 82.5655 81.3107 82.6564 81.5379 82.7711C81.7651 82.8857 81.9819 83.019 82.1884 83.171C82.3885 83.3268 82.5732 83.4998 82.7424 83.6903C82.9104 83.8857 83.0593 84.0922 83.1891 84.3097C83.3175 84.5322 83.4219 84.7644 83.5022 85.0062C83.5875 85.2494 83.6443 85.4983 83.6728 85.7532C83.7126 86.0056 83.7229 86.2582 83.7035 86.511C83.6878 86.7701 83.647 87.0225 83.5812 87.2681L83.5737 87.2661ZM38.7487 93.0768C37.6444 97.198 35.4879 100.664 32.2792 103.474C29.0691 106.289 25.3497 107.977 21.1212 108.537C16.8891 109.09 12.86 108.424 9.03394 106.539C5.2029 104.653 2.22185 101.861 0.0907953 98.1621C-2.04662 94.4673 -2.97435 90.4895 -2.69241 86.2285C-2.41181 81.9726 -0.973889 78.1504 1.62137 74.7619C4.22163 71.3747 7.54272 68.9974 11.5846 67.6301C15.6228 66.2564 19.7051 66.1224 23.8313 67.228C24.0769 67.2938 24.3134 67.3841 24.5406 67.4987C24.7678 67.6133 24.9847 67.7466 25.1911 67.8987C25.3912 68.0544 25.5759 68.2275 25.7452 68.4179C25.9131 68.6134 26.062 68.8198 26.1918 69.0373C26.3202 69.2598 26.4246 69.492 26.5049 69.7338C26.5902 69.977 26.6471 70.226 26.6755 70.4808C26.7153 70.7333 26.7256 70.9859 26.7062 71.2386C26.6905 71.4977 26.6498 71.7501 26.5839 71.9958C26.5168 72.2464 26.4265 72.4829 26.3133 72.7051C26.1973 72.9373 26.0615 73.1535 25.9058 73.3536C25.7537 73.56 25.58 73.7472 25.3845 73.9152C25.1954 74.0794 24.9896 74.2258 24.7671 74.3543C24.5446 74.4827 24.3118 74.5896 24.0686 74.6749C23.8318 74.7565 23.5853 74.8141 23.3292 74.8475C23.073 74.881 22.8186 74.8881 22.5658 74.8687C22.3117 74.8543 22.0618 74.8143 21.8162 74.7484C19.2091 74.0499 16.6342 74.1337 14.0914 75C11.5373 75.8686 9.44216 77.3706 7.80598 79.5062C6.15842 81.644 5.24912 84.0549 5.07807 86.7388C4.89931 89.4315 5.48409 91.9418 6.8324 94.2698C8.17937 96.6028 10.061 98.3644 12.4772 99.5546C14.8935 100.745 17.4354 101.165 20.1029 100.816C22.7767 100.463 25.1251 99.3997 27.1481 97.6257C29.1723 95.8467 30.5324 93.6587 31.2283 91.0617C31.2955 90.811 31.3863 90.5721 31.501 90.3448C31.6156 90.1176 31.7489 89.9008 31.901 89.6943C32.0567 89.4943 32.2297 89.3096 32.4202 89.1403C32.6157 88.9723 32.8246 88.8241 33.0471 88.6957C33.2646 88.5659 33.4943 88.4608 33.7361 88.3805C33.9793 88.2952 34.2283 88.2384 34.4831 88.2099C34.7355 88.1701 34.9882 88.1599 35.2409 88.1792C35.5 88.1949 35.7524 88.2357 35.9981 88.3015C36.2487 88.3687 36.4877 88.4596 36.7149 88.5742C36.9421 88.6888 37.1558 88.824 37.3559 88.9797C37.5623 89.1317 37.7495 89.3055 37.9174 89.5009C38.0817 89.69 38.2306 89.8965 38.3641 90.1203C38.4875 90.3415 38.5919 90.5737 38.6772 90.8168C38.7588 91.0536 38.8164 91.3001 38.8498 91.5563C38.8833 91.8124 38.8903 92.0669 38.871 92.3196C38.8566 92.5737 38.8165 92.8236 38.7507 93.0693L38.7487 93.0768ZM38.7487 93.0768C38.6829 93.3224 38.5927 93.5589 38.478 93.7861C38.3634 94.0133 38.2301 94.2302 38.078 94.4366C37.9223 94.6367 37.7493 94.8214 37.5588 94.9907C37.3633 95.1586 37.1569 95.3075 36.9394 95.4373C36.7169 95.5657 36.4847 95.6701 36.2429 95.7504C35.9997 95.8357 35.7507 95.8926 35.4959 95.921C35.2435 95.9608 34.9908 95.9711 34.7381 95.9517C34.479 95.936 34.2266 95.8953 33.9809 95.8294C33.7303 95.7623 33.4938 95.672 33.2716 95.5588C33.0394 95.4428 32.8232 95.307 32.6231 95.1513C32.4167 94.9992 32.2295 94.8255 32.0616 94.63C31.8973 94.4409 31.7509 94.2351 31.6225 94.0126C31.494 93.7901 31.3871 93.5573 31.3018 93.3141C31.2202 93.0773 31.1626 92.8308 31.1292 92.5747C31.0957 92.3185 31.0887 92.0641 31.108 91.8113C31.1224 91.5572 31.1631 91.3048 31.2303 91.0542C31.2961 90.8085 31.3863 90.5721 31.501 90.3448C31.6156 90.1176 31.7489 89.9008 31.901 89.6943C32.0567 89.4943 32.2297 89.3096 32.4202 89.1403C32.6157 88.9723 32.8246 88.8241 33.0471 88.6957C33.2646 88.5659 33.4943 88.4608 33.7361 88.3805C33.9793 88.2952 34.2283 88.2384 34.4831 88.2099C34.7355 88.1701 34.9882 88.1599 35.2409 88.1792C35.5 88.1949 35.7524 88.2357 35.9981 88.3015C36.2487 88.3687 36.4877 88.4596 36.7149 88.5742C36.9421 88.6888 37.1558 88.824 37.3559 88.9797C37.5623 89.1317 37.7495 89.3055 37.9174 89.5009C38.0817 89.69 38.2306 89.8965 38.3641 90.1203C38.4875 90.3415 38.5919 90.5737 38.6772 90.8168C38.7588 91.0536 38.8164 91.3001 38.8498 91.5563C38.8833 91.8124 38.8903 92.0669 38.871 92.3196C38.8566 92.5737 38.8165 92.8236 38.7507 93.0693L38.7487 93.0768ZM26.5839 71.9958C26.5168 72.2464 26.4265 72.4829 26.3133 72.7051C26.1973 72.9373 26.0615 73.1535 25.9058 73.3536C25.7537 73.56 25.58 73.7472 25.3845 73.9152C25.1954 74.0794 24.9896 74.2258 24.7671 74.3543C24.5446 74.4827 24.3118 74.5896 24.0686 74.6749C23.8318 74.7565 23.5853 74.8141 23.3292 74.8475C23.073 74.881 22.8186 74.8881 22.5658 74.8687C22.3117 74.8543 22.0618 74.8143 21.8162 74.7484C21.5655 74.6813 21.3265 74.5904 21.0993 74.4758C20.8721 74.3611 20.6553 74.2278 20.4488 74.0758C20.2487 73.92 20.0641 73.747 19.8948 73.5565C19.7268 73.3611 19.5786 73.1521 19.4502 72.9296C19.3204 72.7121 19.2153 72.4825 19.135 72.2406C19.0497 71.9974 18.9929 71.7485 18.9644 71.4936C18.9246 71.2412 18.915 70.9861 18.9357 70.7283C18.9501 70.4742 18.9902 70.2243 19.056 69.9787C19.1232 69.728 19.2141 69.489 19.3287 69.2618C19.4433 69.0346 19.5785 68.8209 19.7342 68.6209C19.8862 68.4144 20.06 68.2272 20.2554 68.0593C20.4445 67.895 20.651 67.7461 20.8748 67.6127C21.096 67.4892 21.3282 67.3848 21.5713 67.2995C21.8081 67.2179 22.0546 67.1604 22.3108 67.1269C22.5669 67.0934 22.8214 67.0864 23.0741 67.1057C23.3282 67.1201 23.5806 67.1608 23.8313 67.228C24.0769 67.2938 24.3134 67.3841 24.5406 67.4987C24.7678 67.6133 24.9847 67.7466 25.1911 67.8987C25.3912 68.0544 25.5759 68.2275 25.7452 68.4179C25.9131 68.6134 26.062 68.8198 26.1918 69.0373C26.3202 69.2598 26.4246 69.492 26.5049 69.7338C26.5902 69.977 26.6471 70.226 26.6755 70.4808C26.7153 70.7333 26.7256 70.9859 26.7062 71.2386C26.6905 71.4977 26.6498 71.7501 26.5839 71.9958ZM46.5027 34.0569C47.1985 31.4598 47.1147 28.8849 46.2511 26.3321C45.3812 23.783 43.8791 21.6879 41.7449 20.0467C39.6044 18.4092 37.1928 17.5024 34.5102 17.3263C31.8176 17.1475 29.3055 17.7291 26.9738 19.0711C24.6408 20.4181 22.8792 22.2997 21.689 24.7159C20.4988 27.1322 20.0784 29.674 20.4276 32.3416C20.7805 35.0154 21.8439 37.3638 23.6178 39.3868C25.3968 41.411 27.5848 42.7711 30.1819 43.467C30.4326 43.5341 30.6715 43.625 30.8988 43.7397C31.126 43.8543 31.3428 43.9876 31.5492 44.1396C31.7493 44.2954 31.934 44.4684 32.1033 44.6589C32.2713 44.8543 32.4195 45.0633 32.5479 45.2858C32.6777 45.5033 32.7828 45.733 32.863 45.9748C32.9483 46.218 33.0052 46.4669 33.0337 46.7218C33.0735 46.9742 33.0831 47.2294 33.0623 47.4871C33.048 47.7412 33.0079 47.9911 32.9421 48.2367C32.8749 48.4874 32.784 48.7264 32.6694 48.9536C32.5548 49.1808 32.4196 49.3945 32.2639 49.5946C32.1119 49.801 31.9381 49.9882 31.7427 50.1561C31.5536 50.3204 31.3471 50.4693 31.1232 50.6028C30.9021 50.7262 30.6699 50.8306 30.4268 50.9159C30.1899 50.9975 29.9435 51.055 29.6873 51.0885C29.4312 51.122 29.1767 51.129 28.924 51.1097C28.6699 51.0953 28.42 51.0552 28.1743 50.9894C24.0481 49.8838 20.5798 47.7266 17.7695 44.5178C14.9541 41.3077 13.2666 37.5884 12.7069 33.3599C12.1536 29.1278 12.8195 25.0987 14.7044 21.2726C16.5907 17.4416 19.3831 14.4605 23.0815 12.3295C26.7763 10.1921 30.7541 9.26434 35.0151 9.54628C39.271 9.82687 43.0932 11.2648 46.4817 13.8601C49.8689 16.4603 52.2461 19.7814 53.6135 23.8233C54.9872 27.8615 55.1212 31.9438 54.0156 36.07C53.9497 36.3156 53.8595 36.5521 53.7449 36.7793C53.6303 37.0065 53.497 37.2233 53.3449 37.4298C53.1892 37.6299 53.0161 37.8146 52.8257 37.9838C52.6302 38.1518 52.4237 38.3007 52.2063 38.4305C51.9838 38.5589 51.7516 38.6633 51.5098 38.7436C51.2666 38.8289 51.0176 38.8858 50.7628 38.9142C50.5103 38.954 50.2577 38.9643 50.005 38.9449C49.7459 38.9292 49.4935 38.8884 49.2478 38.8226C48.9971 38.7555 48.7607 38.6652 48.5385 38.552C48.3063 38.436 48.0901 38.3002 47.89 38.1444C47.6836 37.9924 47.4964 37.8187 47.3284 37.6232C47.1641 37.4341 47.0178 37.2283 46.8893 37.0058C46.7609 36.7833 46.654 36.5505 46.5687 36.3073C46.4871 36.0705 46.4295 35.824 46.396 35.5678C46.3626 35.3117 46.3555 35.0572 46.3749 34.8045C46.3892 34.5504 46.4293 34.3005 46.4952 34.0549L46.5027 34.0569ZM54.0231 36.072C53.9559 36.3227 53.865 36.5616 53.7504 36.7888C53.6358 37.016 53.5025 37.2329 53.3504 37.4393C53.1947 37.6394 53.0216 37.8241 52.8312 37.9934C52.6357 38.1613 52.4292 38.3102 52.2118 38.44C51.9893 38.5685 51.7571 38.6728 51.5153 38.7531C51.2721 38.8384 51.0231 38.8953 50.7683 38.9237C50.5158 38.9636 50.2632 38.9738 50.0105 38.9544C49.7514 38.9387 49.499 38.898 49.2533 38.8322C49.0026 38.765 48.7662 38.6748 48.544 38.5615C48.3118 38.4455 48.0956 38.3097 47.8955 38.154C47.6891 38.0019 47.5019 37.8282 47.3339 37.6327C47.1697 37.4436 47.0233 37.2378 46.8948 37.0153C46.7664 36.7928 46.6595 36.56 46.5742 36.3168C46.4926 36.08 46.435 35.8335 46.4015 35.5774C46.3681 35.3212 46.361 35.0668 46.3804 34.814C46.3947 34.5599 46.4348 34.3101 46.5007 34.0644C46.5678 33.8137 46.6587 33.5748 46.7733 33.3476C46.888 33.1203 47.0213 32.9035 47.1733 32.6971C47.329 32.497 47.5021 32.3123 47.6926 32.143C47.888 31.9751 48.097 31.8269 48.3195 31.6984C48.537 31.5686 48.7666 31.4635 49.0085 31.3833C49.2516 31.298 49.5006 31.2411 49.7554 31.2126C50.0079 31.1728 50.2605 31.1626 50.5133 31.1819C50.7724 31.1976 51.0248 31.2384 51.2704 31.3042C51.5211 31.3714 51.7601 31.4623 51.9873 31.5769C52.2145 31.6915 52.4281 31.8267 52.6282 31.9824C52.8347 32.1344 53.0219 32.3082 53.1898 32.5036C53.3541 32.6928 53.503 32.8992 53.6364 33.1231C53.7599 33.3442 53.8643 33.5764 53.9496 33.8195C54.0312 34.0564 54.0887 34.3028 54.1222 34.559C54.1557 34.8152 54.1627 35.0696 54.1434 35.3223C54.129 35.5764 54.0882 35.8288 54.0211 36.0795L54.0231 36.072ZM32.9476 48.2463C32.8804 48.497 32.7895 48.7359 32.6749 48.9631C32.5603 49.1903 32.4251 49.404 32.2694 49.6041C32.1174 49.8105 31.9436 49.9977 31.7482 50.1657C31.5591 50.3299 31.3526 50.4788 31.1287 50.6123C30.9076 50.7357 30.6754 50.8401 30.4323 50.9254C30.1954 51.007 29.949 51.0646 29.6928 51.098C29.4367 51.1315 29.1822 51.1386 28.9295 51.1192C28.6754 51.1049 28.4255 51.0648 28.1798 50.9989C27.9292 50.9318 27.6902 50.8409 27.463 50.7263C27.2358 50.6116 27.0189 50.4783 26.8125 50.3263C26.6124 50.1706 26.4277 49.9975 26.2584 49.807C26.0905 49.6116 25.9416 49.4051 25.8118 49.1876C25.6834 48.9651 25.579 48.733 25.4987 48.4911C25.4134 48.248 25.3565 47.999 25.3281 47.7442C25.2882 47.4917 25.278 47.2391 25.2974 46.9863C25.3131 46.7272 25.3538 46.4748 25.4197 46.2292C25.4868 45.9785 25.577 45.742 25.6903 45.5198C25.8063 45.2876 25.9421 45.0714 26.0978 44.8714C26.2499 44.6649 26.4236 44.4777 26.6191 44.3098C26.8082 44.1455 27.014 43.9991 27.2365 43.8707C27.459 43.7422 27.6918 43.6353 27.935 43.55C28.1718 43.4684 28.4183 43.4109 28.6744 43.3774C28.9306 43.3439 29.185 43.3369 29.4378 43.3562C29.6919 43.3706 29.9442 43.4114 30.1949 43.4785C30.4406 43.5443 30.677 43.6346 30.9043 43.7492C31.1315 43.8638 31.3483 43.9971 31.5548 44.1492C31.7548 44.3049 31.9395 44.478 32.1088 44.6684C32.2768 44.8639 32.425 45.0729 32.5534 45.2953C32.6832 45.5128 32.7883 45.7425 32.8686 45.9843C32.9539 46.2275 33.0107 46.4765 33.0392 46.7313C33.079 46.9838 33.0886 47.2389 33.0679 47.4966C33.0535 47.7507 33.0134 48.0006 32.9476 48.2463Z" fill="#FFBCBD"/>
</g>
<defs>
<clipPath id="clip0_6645_6150">
<rect width="109" height="109" fill="white" transform="translate(15.9629) rotate(15)"/>
</clipPath>
</defs>
</svg>
