<svg width="44" height="44" viewBox="0 0 44 44" fill="none" xmlns="http://www.w3.org/2000/svg">
<g id="Frame">
<path id="Vector" d="M28.072 25.8499L35.0208 32.7957C35.0941 32.8711 35.1591 32.9518 35.2157 33.0377C35.2743 33.1215 35.3225 33.2116 35.3602 33.3079C35.4021 33.4043 35.4325 33.5028 35.4514 33.6034C35.4723 33.7039 35.4828 33.8056 35.4828 33.9082C35.4828 34.013 35.4723 34.1157 35.4514 34.2162C35.4304 34.3168 35.4 34.4153 35.3602 34.5117C35.3225 34.6059 35.2743 34.696 35.2157 34.7819C35.1591 34.8679 35.0941 34.9475 35.0208 35.0208C34.9475 35.0941 34.8679 35.1591 34.7819 35.2157C34.6981 35.2743 34.608 35.3225 34.5117 35.3602C34.4153 35.4021 34.3168 35.4325 34.2162 35.4514C34.1157 35.4723 34.013 35.4828 33.9082 35.4828C33.8056 35.4828 33.704 35.4723 33.6034 35.4514C33.5028 35.4304 33.4043 35.4 33.308 35.3602C33.2137 35.3225 33.1236 35.2743 33.0377 35.2157C32.9518 35.1591 32.8721 35.0941 32.7988 35.0208L25.8531 28.0751C25.7798 28.0018 25.7138 27.9221 25.6551 27.8362C25.5985 27.7503 25.5503 27.6592 25.5105 27.5628C25.4707 27.4685 25.4414 27.37 25.4225 27.2674C25.4016 27.1668 25.3911 27.0652 25.3911 26.9625C25.3911 26.8578 25.4016 26.7551 25.4225 26.6545C25.4435 26.5539 25.4728 26.4565 25.5105 26.3622C25.5503 26.2659 25.5985 26.1747 25.6551 26.0888C25.7138 26.005 25.7787 25.9254 25.8499 25.8499C25.9233 25.7787 26.0029 25.7138 26.0888 25.6551C26.1747 25.5985 26.2659 25.5503 26.3622 25.5105C26.4565 25.4707 26.554 25.4414 26.6545 25.4225C26.7572 25.4016 26.8599 25.3911 26.9625 25.3911C27.0673 25.3911 27.1689 25.4016 27.2674 25.4225C27.37 25.4435 27.4685 25.4728 27.5628 25.5105C27.6592 25.5503 27.7503 25.5985 27.8362 25.6551C27.92 25.7138 27.9986 25.7787 28.072 25.8499ZM15.9248 18.1499L8.97909 11.2042C8.90576 11.1288 8.8408 11.0481 8.78423 10.9622C8.72557 10.8784 8.67738 10.7883 8.63966 10.6919C8.59776 10.5956 8.56738 10.4971 8.54852 10.3965C8.52757 10.2959 8.51709 10.1943 8.51709 10.0917C8.51709 9.9869 8.52757 9.88423 8.54852 9.78366C8.56947 9.68309 8.59985 9.58461 8.63966 9.48823C8.67738 9.39395 8.72557 9.30385 8.78423 9.21795C8.8408 9.13204 8.90576 9.05242 8.97909 8.97909C9.05242 8.90576 9.13204 8.8408 9.21795 8.78423C9.30176 8.72557 9.39185 8.67738 9.48823 8.63966C9.58461 8.59776 9.68309 8.56738 9.78366 8.54852C9.88423 8.52757 9.9869 8.51709 10.0917 8.51709C10.1943 8.51709 10.2959 8.52757 10.3965 8.54852C10.4971 8.56947 10.5956 8.59985 10.6919 8.63966C10.7862 8.67738 10.8763 8.72557 10.9622 8.78423C11.0481 8.8408 11.1278 8.90576 11.2011 8.97909L18.1468 15.9248C18.2201 15.9981 18.2861 16.0778 18.3448 16.1637C18.4014 16.2496 18.4496 16.3407 18.4894 16.4371C18.5292 16.5314 18.5585 16.6299 18.5774 16.7325C18.5983 16.8331 18.6088 16.9347 18.6088 17.0374C18.6088 17.1421 18.5983 17.2448 18.5774 17.3454C18.5564 17.4459 18.5271 17.5434 18.4894 17.6377C18.4496 17.734 18.4014 17.8252 18.3448 17.9111C18.2861 17.9949 18.2212 18.0745 18.1499 18.1499C18.0766 18.2212 17.997 18.2861 17.9111 18.3448C17.8252 18.4014 17.734 18.4496 17.6377 18.4894C17.5434 18.5292 17.4459 18.5585 17.3454 18.5774C17.2427 18.5983 17.14 18.6088 17.0374 18.6088C16.9326 18.6088 16.831 18.5983 16.7325 18.5774C16.6299 18.5564 16.5314 18.5271 16.4371 18.4894C16.3407 18.4496 16.2496 18.4014 16.1637 18.3448C16.0799 18.2861 16.0002 18.2212 15.9248 18.1499ZM28.5371 26.9625C28.5371 27.0673 28.5266 27.1689 28.5057 27.2674C28.4847 27.37 28.4554 27.4685 28.4177 27.5628C28.3779 27.6592 28.3297 27.7503 28.2731 27.8362C28.2144 27.92 28.1484 27.9986 28.0751 28.0719C28.0039 28.1453 27.9253 28.2113 27.8394 28.2699C27.7535 28.3265 27.6623 28.3747 27.566 28.4145C27.4717 28.4543 27.3732 28.4837 27.2705 28.5025C27.17 28.5235 27.0683 28.534 26.9657 28.534C26.8609 28.534 26.7582 28.5235 26.6577 28.5025C26.5571 28.4816 26.4597 28.4522 26.3654 28.4145C26.269 28.3747 26.1779 28.3265 26.0919 28.2699C26.0081 28.2113 25.9285 28.1453 25.8531 28.0719C25.7819 28.0007 25.7169 27.9221 25.6582 27.8362C25.6017 27.7503 25.5535 27.6592 25.5137 27.5628C25.4739 27.4685 25.4445 27.37 25.4257 27.2674C25.4047 27.1668 25.3942 27.0652 25.3942 26.9625C25.3942 26.8578 25.4047 26.7551 25.4257 26.6545C25.4466 26.5539 25.476 26.4565 25.5137 26.3622C25.5535 26.2659 25.6017 26.1747 25.6582 26.0888C25.7169 26.005 25.7819 25.9254 25.8531 25.8499C25.9264 25.7787 26.006 25.7138 26.0919 25.6551C26.1779 25.5985 26.269 25.5503 26.3654 25.5105C26.4597 25.4707 26.5571 25.4414 26.6577 25.4225C26.7603 25.4016 26.863 25.3911 26.9657 25.3911C27.0704 25.3911 27.172 25.4016 27.2705 25.4225C27.3732 25.4435 27.4717 25.4728 27.566 25.5105C27.6623 25.5503 27.7535 25.5985 27.8394 25.6551C27.9232 25.7138 28.0018 25.7787 28.0751 25.8499C28.1484 25.9233 28.2144 26.0029 28.2731 26.0888C28.3297 26.1747 28.3779 26.2659 28.4177 26.3622C28.4575 26.4565 28.4868 26.5539 28.5057 26.6545C28.5266 26.7572 28.5371 26.8599 28.5371 26.9625ZM35.4828 33.9082C35.4828 34.013 35.4723 34.1157 35.4514 34.2162C35.4325 34.3168 35.4032 34.4153 35.3634 34.5117C35.3257 34.6059 35.2775 34.696 35.2188 34.7819C35.1622 34.8679 35.0973 34.9475 35.024 35.0208C34.9506 35.0941 34.871 35.1591 34.7851 35.2157C34.7013 35.2743 34.6112 35.3225 34.5148 35.3602C34.4184 35.4021 34.32 35.4325 34.2194 35.4514C34.1188 35.4723 34.0161 35.4828 33.9114 35.4828C33.8087 35.4828 33.7071 35.4723 33.6065 35.4514C33.506 35.4304 33.4075 35.4 33.3111 35.3602C33.2168 35.3225 33.1267 35.2743 33.0408 35.2157C32.9549 35.1591 32.8753 35.0941 32.802 35.0208C32.7286 34.9475 32.6637 34.8679 32.6071 34.7819C32.5484 34.6981 32.5002 34.608 32.4625 34.5117C32.4206 34.4153 32.3902 34.3168 32.3714 34.2162C32.3504 34.1157 32.34 34.013 32.34 33.9082C32.34 33.8056 32.3504 33.7039 32.3714 33.6034C32.3923 33.5028 32.4227 33.4043 32.4625 33.3079C32.5002 33.2137 32.5484 33.1236 32.6071 33.0377C32.6637 32.9518 32.7286 32.8721 32.802 32.7988C32.8753 32.7255 32.9549 32.6605 33.0408 32.6039C33.1246 32.5453 33.2147 32.4971 33.3111 32.4594C33.4075 32.4175 33.506 32.3871 33.6065 32.3682C33.7071 32.3473 33.8087 32.3368 33.9114 32.3368C34.0161 32.3368 34.1188 32.3473 34.2194 32.3682C34.32 32.3892 34.4184 32.4196 34.5148 32.4594C34.6091 32.4971 34.6992 32.5453 34.7851 32.6039C34.871 32.6605 34.9506 32.7255 35.024 32.7988C35.0973 32.8721 35.1622 32.9518 35.2188 33.0377C35.2775 33.1215 35.3257 33.2116 35.3634 33.3079C35.4053 33.4043 35.4357 33.5028 35.4545 33.6034C35.4755 33.7039 35.486 33.8056 35.486 33.9082H35.4828ZM18.6088 17.0374C18.6088 17.1421 18.5983 17.2448 18.5774 17.3454C18.5564 17.4459 18.5271 17.5434 18.4894 17.6377C18.4496 17.734 18.4014 17.8252 18.3448 17.9111C18.2861 17.9949 18.2212 18.0745 18.1499 18.1499C18.0766 18.2212 17.997 18.2861 17.9111 18.3448C17.8252 18.4014 17.734 18.4496 17.6377 18.4894C17.5434 18.5292 17.4459 18.5585 17.3454 18.5774C17.2427 18.5983 17.14 18.6088 17.0374 18.6088C16.9326 18.6088 16.831 18.5983 16.7325 18.5774C16.6299 18.5564 16.5314 18.5271 16.4371 18.4894C16.3407 18.4496 16.2496 18.4014 16.1637 18.3448C16.0799 18.2861 16.0002 18.2212 15.9248 18.1499C15.8536 18.0766 15.7886 17.997 15.7299 17.9111C15.6734 17.8252 15.6252 17.734 15.5854 17.6377C15.5456 17.5434 15.5162 17.4459 15.4974 17.3454C15.4764 17.2427 15.4659 17.14 15.4659 17.0374C15.4659 16.9326 15.4764 16.831 15.4974 16.7325C15.5183 16.6299 15.5477 16.5314 15.5854 16.4371C15.6252 16.3407 15.6734 16.2496 15.7299 16.1637C15.7886 16.0799 15.8536 16.0002 15.9248 15.9248C15.9981 15.8536 16.0778 15.7886 16.1637 15.7299C16.2496 15.6734 16.3407 15.6252 16.4371 15.5854C16.5314 15.5456 16.6299 15.5162 16.7325 15.4974C16.8331 15.4764 16.9347 15.4659 17.0374 15.4659C17.1421 15.4659 17.2448 15.4764 17.3454 15.4974C17.4459 15.5183 17.5434 15.5477 17.6377 15.5854C17.734 15.6252 17.8252 15.6734 17.9111 15.7299C17.9949 15.7886 18.0745 15.8536 18.1499 15.9248C18.2212 15.9981 18.2861 16.0778 18.3448 16.1637C18.4014 16.2496 18.4496 16.3407 18.4894 16.4371C18.5292 16.5314 18.5585 16.6299 18.5774 16.7325C18.5983 16.8331 18.6088 16.9347 18.6088 17.0374ZM11.6631 10.0917C11.6631 10.1943 11.6526 10.2959 11.6317 10.3965C11.6107 10.4971 11.5803 10.5956 11.5405 10.6919C11.5028 10.7862 11.4546 10.8763 11.3959 10.9622C11.3394 11.0481 11.2744 11.1278 11.2011 11.2011C11.1278 11.2744 11.0481 11.3394 10.9622 11.3959C10.8784 11.4546 10.7883 11.5028 10.6919 11.5405C10.5956 11.5824 10.4971 11.6128 10.3965 11.6317C10.2959 11.6526 10.1943 11.6631 10.0917 11.6631C9.9869 11.6631 9.88423 11.6526 9.78366 11.6317C9.68309 11.6107 9.58461 11.5803 9.48823 11.5405C9.39395 11.5028 9.30385 11.4546 9.21795 11.3959C9.13204 11.3394 9.05242 11.2744 8.97909 11.2011C8.90576 11.1278 8.8408 11.0481 8.78423 10.9622C8.72557 10.8784 8.67738 10.7883 8.63966 10.6919C8.59776 10.5956 8.56738 10.4971 8.54852 10.3965C8.52757 10.2959 8.51709 10.1943 8.51709 10.0917C8.51709 9.9869 8.52757 9.88423 8.54852 9.78366C8.56947 9.68309 8.59985 9.58461 8.63966 9.48823C8.67738 9.39395 8.72557 9.30385 8.78423 9.21795C8.8408 9.13204 8.90576 9.05242 8.97909 8.97909C9.05242 8.90576 9.13204 8.8408 9.21795 8.78423C9.30176 8.72557 9.39185 8.67738 9.48823 8.63966C9.58461 8.59776 9.68309 8.56738 9.78366 8.54852C9.88423 8.52757 9.9869 8.51709 10.0917 8.51709C10.1943 8.51709 10.2959 8.52757 10.3965 8.54852C10.4971 8.56947 10.5956 8.59985 10.6919 8.63966C10.7862 8.67738 10.8763 8.72557 10.9622 8.78423C11.0481 8.8408 11.1278 8.90576 11.2011 8.97909C11.2744 9.05242 11.3394 9.13204 11.3959 9.21795C11.4546 9.30176 11.5028 9.39185 11.5405 9.48823C11.5824 9.58461 11.6128 9.68309 11.6317 9.78366C11.6526 9.88423 11.6631 9.9869 11.6631 10.0917ZM18.1499 28.0719L11.2042 35.0208C11.1288 35.0941 11.0481 35.1591 10.9622 35.2157C10.8784 35.2743 10.7883 35.3225 10.6919 35.3602C10.5956 35.4021 10.4971 35.4325 10.3965 35.4514C10.2959 35.4723 10.1943 35.4828 10.0917 35.4828C9.9869 35.4828 9.88423 35.4723 9.78366 35.4514C9.68309 35.4304 9.58461 35.4 9.48823 35.3602C9.39395 35.3225 9.30385 35.2743 9.21795 35.2157C9.13204 35.1591 9.05242 35.0941 8.97909 35.0208C8.90576 34.9475 8.8408 34.8679 8.78423 34.7819C8.72557 34.6981 8.67738 34.608 8.63966 34.5117C8.59776 34.4153 8.56738 34.3168 8.54852 34.2162C8.52757 34.1157 8.51709 34.013 8.51709 33.9082C8.51709 33.8056 8.52757 33.7039 8.54852 33.6034C8.56947 33.5028 8.59985 33.4043 8.63966 33.3079C8.67738 33.2137 8.72557 33.1236 8.78423 33.0377C8.8408 32.9518 8.90576 32.8721 8.97909 32.7988L15.9248 25.8531C15.9981 25.7798 16.0778 25.7138 16.1637 25.6551C16.2496 25.5985 16.3407 25.5503 16.4371 25.5105C16.5314 25.4707 16.6299 25.4414 16.7325 25.4225C16.8331 25.4016 16.9347 25.3911 17.0374 25.3911C17.1421 25.3911 17.2448 25.4016 17.3454 25.4225C17.4459 25.4435 17.5434 25.4728 17.6377 25.5105C17.734 25.5503 17.8252 25.5985 17.9111 25.6551C17.9949 25.7138 18.0745 25.7787 18.1499 25.8499C18.2212 25.9233 18.2861 26.0029 18.3448 26.0888C18.4014 26.1747 18.4496 26.2659 18.4894 26.3622C18.5292 26.4565 18.5585 26.5539 18.5774 26.6545C18.5983 26.7572 18.6088 26.8599 18.6088 26.9625C18.6088 27.0673 18.5983 27.1689 18.5774 27.2674C18.5564 27.37 18.5271 27.4685 18.4894 27.5628C18.4496 27.6592 18.4014 27.7503 18.3448 27.8362C18.2861 27.92 18.2212 27.9986 18.1499 28.0719ZM25.8499 15.9248L32.7957 8.97909C32.8711 8.90576 32.9518 8.8408 33.0377 8.78423C33.1215 8.72557 33.2116 8.67738 33.308 8.63966C33.4043 8.59776 33.5028 8.56738 33.6034 8.54852C33.704 8.52757 33.8056 8.51709 33.9082 8.51709C34.013 8.51709 34.1157 8.52757 34.2162 8.54852C34.3168 8.56947 34.4153 8.59985 34.5117 8.63966C34.6059 8.67738 34.696 8.72557 34.7819 8.78423C34.8679 8.8408 34.9475 8.90576 35.0208 8.97909C35.0941 9.05242 35.1591 9.13204 35.2157 9.21795C35.2743 9.30176 35.3225 9.39185 35.3602 9.48823C35.4021 9.58461 35.4325 9.68309 35.4514 9.78366C35.4723 9.88423 35.4828 9.9869 35.4828 10.0917C35.4828 10.1943 35.4723 10.2959 35.4514 10.3965C35.4304 10.4971 35.4 10.5956 35.3602 10.6919C35.3225 10.7862 35.2743 10.8763 35.2157 10.9622C35.1591 11.0481 35.0941 11.1278 35.0208 11.2011L28.0751 18.1468C28.0018 18.2201 27.9221 18.2861 27.8362 18.3448C27.7503 18.4014 27.6592 18.4496 27.5628 18.4894C27.4685 18.5292 27.37 18.5585 27.2674 18.5774C27.1668 18.5983 27.0652 18.6088 26.9625 18.6088C26.8578 18.6088 26.7551 18.5983 26.6545 18.5774C26.554 18.5564 26.4565 18.5271 26.3622 18.4894C26.2659 18.4496 26.1747 18.4014 26.0888 18.3448C26.005 18.2861 25.9254 18.2212 25.8499 18.1499C25.7787 18.0766 25.7138 17.997 25.6551 17.9111C25.5985 17.8252 25.5503 17.734 25.5105 17.6377C25.4707 17.5434 25.4414 17.4459 25.4225 17.3454C25.4016 17.2427 25.3911 17.14 25.3911 17.0374C25.3911 16.9326 25.4016 16.831 25.4225 16.7325C25.4435 16.6299 25.4728 16.5314 25.5105 16.4371C25.5503 16.3407 25.5985 16.2496 25.6551 16.1637C25.7138 16.0799 25.7787 16.0002 25.8499 15.9248ZM18.6088 26.9657C18.6088 27.0704 18.5983 27.172 18.5774 27.2705C18.5564 27.3732 18.5271 27.4717 18.4894 27.566C18.4496 27.6623 18.4014 27.7535 18.3448 27.8394C18.2861 27.9232 18.2212 28.0018 18.1499 28.0751C18.0766 28.1484 17.997 28.2144 17.9111 28.2731C17.8252 28.3297 17.734 28.3779 17.6377 28.4177C17.5434 28.4575 17.4459 28.4868 17.3454 28.5057C17.2427 28.5266 17.14 28.5371 17.0374 28.5371C16.9326 28.5371 16.831 28.5266 16.7325 28.5057C16.6299 28.4847 16.5314 28.4554 16.4371 28.4177C16.3407 28.3779 16.2496 28.3297 16.1637 28.2731C16.0799 28.2144 16.0002 28.1484 15.9248 28.0751C15.8536 28.0039 15.7886 27.9253 15.7299 27.8394C15.6734 27.7535 15.6252 27.6623 15.5854 27.566C15.5456 27.4717 15.5162 27.3732 15.4974 27.2705C15.4764 27.17 15.4659 27.0683 15.4659 26.9657C15.4659 26.8609 15.4764 26.7582 15.4974 26.6577C15.5183 26.5571 15.5477 26.4597 15.5854 26.3654C15.6252 26.269 15.6734 26.1779 15.7299 26.0919C15.7886 26.0081 15.8536 25.9285 15.9248 25.8531C15.9981 25.7819 16.0778 25.7169 16.1637 25.6582C16.2496 25.6017 16.3407 25.5535 16.4371 25.5137C16.5314 25.4739 16.6299 25.4445 16.7325 25.4257C16.8331 25.4047 16.9347 25.3942 17.0374 25.3942C17.1421 25.3942 17.2448 25.4047 17.3454 25.4257C17.4459 25.4466 17.5434 25.476 17.6377 25.5137C17.734 25.5535 17.8252 25.6017 17.9111 25.6582C17.9949 25.7169 18.0745 25.7819 18.1499 25.8531C18.2212 25.9264 18.2861 26.006 18.3448 26.0919C18.4014 26.1779 18.4496 26.269 18.4894 26.3654C18.5292 26.4597 18.5585 26.5571 18.5774 26.6577C18.5983 26.7603 18.6088 26.863 18.6088 26.9657ZM11.6631 33.9114C11.6631 34.0161 11.6526 34.1188 11.6317 34.2194C11.6107 34.32 11.5803 34.4184 11.5405 34.5148C11.5028 34.6091 11.4546 34.6992 11.3959 34.7851C11.3394 34.871 11.2744 34.9506 11.2011 35.0239C11.1278 35.0973 11.0481 35.1622 10.9622 35.2188C10.8784 35.2775 10.7883 35.3257 10.6919 35.3634C10.5956 35.4053 10.4971 35.4357 10.3965 35.4545C10.2959 35.4755 10.1943 35.4859 10.0917 35.4859C9.9869 35.4859 9.88423 35.4755 9.78366 35.4545C9.68309 35.4336 9.58461 35.4032 9.48823 35.3634C9.39395 35.3257 9.30385 35.2775 9.21795 35.2188C9.13204 35.1622 9.05242 35.0973 8.97909 35.0239C8.90576 34.9506 8.8408 34.871 8.78423 34.7851C8.72557 34.7013 8.67738 34.6112 8.63966 34.5148C8.59776 34.4184 8.56738 34.32 8.54852 34.2194C8.52757 34.1188 8.51709 34.0161 8.51709 33.9114C8.51709 33.8087 8.52757 33.7071 8.54852 33.6065C8.56947 33.5059 8.59985 33.4075 8.63966 33.3111C8.67738 33.2168 8.72557 33.1267 8.78423 33.0408C8.8408 32.9549 8.90576 32.8753 8.97909 32.8019C9.05242 32.7286 9.13204 32.6637 9.21795 32.6071C9.30176 32.5484 9.39185 32.5002 9.48823 32.4625C9.58461 32.4206 9.68309 32.3902 9.78366 32.3714C9.88423 32.3504 9.9869 32.3399 10.0917 32.3399C10.1943 32.3399 10.2959 32.3504 10.3965 32.3714C10.4971 32.3923 10.5956 32.4227 10.6919 32.4625C10.7862 32.5002 10.8763 32.5484 10.9622 32.6071C11.0481 32.6637 11.1278 32.7286 11.2011 32.8019C11.2744 32.8753 11.3394 32.9549 11.3959 33.0408C11.4546 33.1246 11.5028 33.2147 11.5405 33.3111C11.5824 33.4075 11.6128 33.5059 11.6317 33.6065C11.6526 33.7071 11.6631 33.8087 11.6631 33.9114ZM28.534 17.0405C28.534 17.1453 28.5235 17.2479 28.5025 17.3485C28.4816 17.4491 28.4522 17.5465 28.4145 17.6408C28.3747 17.7372 28.3265 17.8283 28.27 17.9142C28.2113 17.998 28.1453 18.0777 28.072 18.1531C28.0007 18.2243 27.9221 18.2893 27.8362 18.3479C27.7503 18.4045 27.6592 18.4527 27.5628 18.4925C27.4685 18.5323 27.37 18.5617 27.2674 18.5805C27.1668 18.6015 27.0652 18.6119 26.9625 18.6119C26.8578 18.6119 26.7551 18.6015 26.6545 18.5805C26.554 18.5596 26.4565 18.5302 26.3622 18.4925C26.2659 18.4527 26.1747 18.4045 26.0888 18.3479C26.005 18.2893 25.9254 18.2243 25.8499 18.1531C25.7787 18.0798 25.7138 18.0001 25.6551 17.9142C25.5985 17.8283 25.5503 17.7372 25.5105 17.6408C25.4707 17.5465 25.4414 17.4491 25.4225 17.3485C25.4016 17.2459 25.3911 17.1432 25.3911 17.0405C25.3911 16.9358 25.4016 16.8341 25.4225 16.7357C25.4435 16.633 25.4728 16.5345 25.5105 16.4402C25.5503 16.3439 25.5985 16.2527 25.6551 16.1668C25.7138 16.083 25.7787 16.0034 25.8499 15.9279C25.9233 15.8567 26.0029 15.7918 26.0888 15.7331C26.1747 15.6765 26.2659 15.6283 26.3622 15.5885C26.4565 15.5487 26.554 15.5194 26.6545 15.5005C26.7572 15.4796 26.8599 15.4691 26.9625 15.4691C27.0673 15.4691 27.1689 15.4796 27.2674 15.5005C27.37 15.5215 27.4685 15.5508 27.5628 15.5885C27.6592 15.6283 27.7503 15.6765 27.8362 15.7331C27.92 15.7918 27.9986 15.8567 28.072 15.9279C28.1453 16.0013 28.2113 16.0809 28.27 16.1668C28.3265 16.2527 28.3747 16.3439 28.4145 16.4402C28.4543 16.5345 28.4837 16.633 28.5025 16.7357C28.5235 16.8362 28.534 16.9379 28.534 17.0405ZM35.4797 10.0948C35.4797 10.1975 35.4692 10.2991 35.4482 10.3997C35.4294 10.5002 35.4 10.5987 35.3602 10.6951C35.3225 10.7894 35.2743 10.8795 35.2157 10.9654C35.1591 11.0513 35.0941 11.1309 35.0208 11.2042C34.9475 11.2776 34.8679 11.3425 34.7819 11.3991C34.6981 11.4578 34.608 11.5059 34.5117 11.5437C34.4153 11.5856 34.3168 11.6159 34.2162 11.6348C34.1157 11.6558 34.013 11.6662 33.9082 11.6662C33.8056 11.6662 33.704 11.6558 33.6034 11.6348C33.5028 11.6139 33.4043 11.5835 33.308 11.5437C33.2137 11.5059 33.1236 11.4578 33.0377 11.3991C32.9518 11.3425 32.8721 11.2776 32.7988 11.2042C32.7255 11.1309 32.6605 11.0513 32.604 10.9654C32.5453 10.8816 32.4971 10.7915 32.4594 10.6951C32.4175 10.5987 32.3871 10.5002 32.3682 10.3997C32.3473 10.2991 32.3368 10.1975 32.3368 10.0948C32.3368 9.99004 32.3473 9.88738 32.3682 9.7868C32.3892 9.68623 32.4196 9.58776 32.4594 9.49138C32.4971 9.39709 32.5453 9.30699 32.604 9.22109C32.6605 9.13519 32.7255 9.05557 32.7988 8.98223C32.8721 8.9089 32.9518 8.84395 33.0377 8.78738C33.1215 8.72871 33.2116 8.68052 33.308 8.6428C33.4043 8.6009 33.5028 8.57052 33.6034 8.55166C33.704 8.53071 33.8056 8.52023 33.9082 8.52023C34.013 8.52023 34.1157 8.53071 34.2162 8.55166C34.3168 8.57261 34.4153 8.60299 34.5117 8.6428C34.6059 8.68052 34.696 8.72871 34.7819 8.78738C34.8679 8.84395 34.9475 8.9089 35.0208 8.98223C35.0941 9.05557 35.1591 9.13519 35.2157 9.22109C35.2743 9.3049 35.3225 9.39499 35.3602 9.49138C35.4021 9.58776 35.4325 9.68623 35.4514 9.7868C35.4723 9.88738 35.4828 9.99004 35.4828 10.0948H35.4797Z" fill="#FE3F3F"/>
<path id="Vector_2" d="M15.466 26.9626V17.0343C15.466 16.9296 15.4765 16.8279 15.4975 16.7295C15.5184 16.6268 15.5478 16.5283 15.5855 16.434C15.6253 16.3377 15.6735 16.2465 15.73 16.1606C15.7887 16.0768 15.8537 15.9972 15.9249 15.9218C15.9982 15.8505 16.0778 15.7856 16.1638 15.7269C16.2497 15.6703 16.3408 15.6221 16.4372 15.5823C16.5315 15.5425 16.6299 15.5132 16.7326 15.4943C16.8332 15.4734 16.9348 15.4629 17.0375 15.4629H26.9658C27.0705 15.4629 27.1721 15.4734 27.2706 15.4943C27.3733 15.5153 27.4718 15.5446 27.566 15.5823C27.6624 15.6221 27.7536 15.6703 27.8395 15.7269C27.9233 15.7856 28.0029 15.8505 28.0783 15.9218C28.1496 15.9951 28.2145 16.0747 28.2732 16.1606C28.3298 16.2465 28.3779 16.3377 28.4178 16.434C28.4576 16.5283 28.4869 16.6268 28.5058 16.7295C28.5267 16.83 28.5372 16.9317 28.5372 17.0343V26.9658C28.5372 27.0705 28.5267 27.1721 28.5058 27.2706C28.4848 27.3733 28.4555 27.4718 28.4178 27.566C28.3779 27.6624 28.3298 27.7536 28.2732 27.8395C28.2145 27.9233 28.1496 28.0029 28.0783 28.0783C28.005 28.1496 27.9254 28.2145 27.8395 28.2732C27.7536 28.3298 27.6624 28.3779 27.566 28.4178C27.4718 28.4576 27.3733 28.4869 27.2706 28.5058C27.17 28.5267 27.0684 28.5372 26.9658 28.5372H17.0343C16.9296 28.5372 16.8279 28.5267 16.7295 28.5058C16.6268 28.4848 16.5283 28.4555 16.434 28.4178C16.3377 28.3779 16.2465 28.3298 16.1606 28.2732C16.0768 28.2145 15.9972 28.1496 15.9218 28.0783C15.8505 28.005 15.7856 27.9254 15.7269 27.8395C15.6703 27.7536 15.6221 27.6624 15.5823 27.566C15.5425 27.4718 15.5132 27.3733 15.4943 27.2706C15.4734 27.17 15.4629 27.0684 15.4629 26.9658L15.466 26.9626ZM18.6089 18.6089V25.3943H25.3943V18.6058H18.6058L18.6089 18.6089ZM25.3912 10.0886C25.3912 8.36632 25.8699 6.78966 26.8275 5.35861C27.785 3.92547 29.0589 2.8789 30.6492 2.2189C32.2416 1.56099 33.8821 1.39966 35.5709 1.7349C37.2617 2.07013 38.7158 2.84747 39.9332 4.0669C41.1526 5.28423 41.9299 6.73832 42.2652 8.42918C42.6004 10.1179 42.4391 11.7585 41.7812 13.3509C41.1212 14.9433 40.0746 16.2172 38.6415 17.1726C37.2104 18.1301 35.6327 18.6089 33.9083 18.6089C33.8057 18.6089 33.704 18.5984 33.6035 18.5775C33.5029 18.5565 33.4044 18.5272 33.308 18.4895C33.2138 18.4497 33.1237 18.4015 33.0377 18.3449C32.9518 18.2862 32.8722 18.2213 32.7989 18.15C32.7256 18.0767 32.6606 17.9971 32.604 17.9112C32.5454 17.8253 32.4972 17.7341 32.4595 17.6378C32.4176 17.5435 32.3872 17.446 32.3683 17.3455C32.3474 17.2428 32.3369 17.1401 32.3369 17.0375C32.3369 16.9327 32.3474 16.8311 32.3683 16.7326C32.3893 16.6299 32.4197 16.5315 32.4595 16.4372C32.4972 16.3408 32.5454 16.2497 32.604 16.1638C32.6606 16.0799 32.7256 16.0014 32.7989 15.928C32.8722 15.8547 32.9518 15.7887 33.0377 15.73C33.1216 15.6735 33.2117 15.6253 33.308 15.5855C33.4044 15.5457 33.5029 15.5163 33.6035 15.4975C33.704 15.4765 33.8057 15.466 33.9083 15.466C34.9978 15.466 35.9931 15.1643 36.894 14.5609C37.7992 13.9554 38.4592 13.1508 38.874 12.1472C39.2931 11.1415 39.3958 10.1064 39.182 9.04204C38.9704 7.97347 38.4812 7.0547 37.7143 6.28575C36.9454 5.5168 36.0277 5.02651 34.9612 4.81489C33.8947 4.60328 32.8597 4.70489 31.856 5.11975C30.8503 5.5367 30.0457 6.1967 29.4423 7.09975C28.8389 8.0049 28.5372 9.00013 28.5372 10.0855C28.5372 10.1902 28.5267 10.2929 28.5058 10.3935C28.4848 10.494 28.4555 10.5925 28.4178 10.6889C28.3779 10.7832 28.3298 10.8733 28.2732 10.9592C28.2145 11.0451 28.1485 11.1247 28.0752 11.198C28.0039 11.2714 27.9254 11.3363 27.8395 11.3929C27.7536 11.4516 27.6624 11.4998 27.566 11.5375C27.4718 11.5794 27.3733 11.6098 27.2706 11.6286C27.17 11.6496 27.0684 11.66 26.9658 11.66C26.861 11.66 26.7583 11.6496 26.6577 11.6286C26.5572 11.6077 26.4598 11.5773 26.3655 11.5375C26.2691 11.4998 26.1779 11.4516 26.092 11.3929C26.0082 11.3363 25.9286 11.2714 25.8532 11.198C25.7819 11.1247 25.717 11.0451 25.6583 10.9592C25.6018 10.8754 25.5536 10.7853 25.5138 10.6889C25.4739 10.5925 25.4446 10.494 25.4258 10.3935C25.4048 10.2929 25.3943 10.1913 25.3943 10.0886H25.3912ZM28.534 10.0886C28.534 10.1934 28.5236 10.296 28.5026 10.3966C28.4817 10.4972 28.4523 10.5957 28.4146 10.692C28.3748 10.7863 28.3266 10.8764 28.27 10.9623C28.2114 11.0482 28.1454 11.1278 28.072 11.2012C28.0008 11.2745 27.9222 11.3395 27.8363 11.396C27.7504 11.4547 27.6593 11.5029 27.5629 11.5406C27.4686 11.5825 27.3701 11.6129 27.2675 11.6318C27.1669 11.6527 27.0653 11.6632 26.9626 11.6632C26.8578 11.6632 26.7552 11.6527 26.6546 11.6318C26.554 11.6108 26.4566 11.5804 26.3623 11.5406C26.2659 11.5029 26.1748 11.4547 26.0889 11.396C26.0051 11.3395 25.9255 11.2745 25.85 11.2012C25.7788 11.1278 25.7138 11.0482 25.6552 10.9623C25.5986 10.8785 25.5504 10.7884 25.5106 10.692C25.4708 10.5957 25.4415 10.4972 25.4226 10.3966C25.4017 10.296 25.3912 10.1944 25.3912 10.0918C25.3912 9.98699 25.4017 9.88432 25.4226 9.78375C25.4436 9.68318 25.4729 9.5847 25.5106 9.48832C25.5504 9.39404 25.5986 9.30394 25.6552 9.21804C25.7138 9.13213 25.7788 9.05251 25.85 8.97918C25.9234 8.90585 26.003 8.84089 26.0889 8.78432C26.1748 8.72566 26.2659 8.67747 26.3623 8.63975C26.4566 8.59785 26.554 8.56747 26.6546 8.54861C26.7573 8.52766 26.8599 8.51718 26.9626 8.51718C27.0674 8.51718 27.169 8.52766 27.2675 8.54861C27.3701 8.56956 27.4686 8.59994 27.5629 8.63975C27.6593 8.67747 27.7504 8.72566 27.8363 8.78432C27.9201 8.84089 27.9987 8.90585 28.072 8.97918C28.1454 9.05251 28.2114 9.13213 28.27 9.21804C28.3266 9.30185 28.3748 9.39194 28.4146 9.48832C28.4544 9.5847 28.4837 9.68318 28.5026 9.78375C28.5236 9.88432 28.534 9.98699 28.534 10.0918V10.0886ZM35.4798 17.0375C35.4798 17.1422 35.4693 17.2449 35.4483 17.3455C35.4295 17.446 35.4001 17.5435 35.3603 17.6378C35.3226 17.7341 35.2744 17.8253 35.2158 17.9112C35.1592 17.995 35.0942 18.0746 35.0209 18.15C34.9476 18.2213 34.8679 18.2862 34.782 18.3449C34.6982 18.4015 34.6081 18.4497 34.5117 18.4895C34.4154 18.5293 34.3169 18.5586 34.2163 18.5775C34.1157 18.5984 34.0131 18.6089 33.9083 18.6089C33.8057 18.6089 33.704 18.5984 33.6035 18.5775C33.5029 18.5565 33.4044 18.5272 33.308 18.4895C33.2138 18.4497 33.1237 18.4015 33.0377 18.3449C32.9518 18.2862 32.8722 18.2213 32.7989 18.15C32.7256 18.0767 32.6606 17.9971 32.604 17.9112C32.5454 17.8253 32.4972 17.7341 32.4595 17.6378C32.4176 17.5435 32.3872 17.446 32.3683 17.3455C32.3474 17.2428 32.3369 17.1401 32.3369 17.0375C32.3369 16.9327 32.3474 16.8311 32.3683 16.7326C32.3893 16.6299 32.4197 16.5315 32.4595 16.4372C32.4972 16.3408 32.5454 16.2497 32.604 16.1638C32.6606 16.0799 32.7256 16.0014 32.7989 15.928C32.8722 15.8547 32.9518 15.7887 33.0377 15.73C33.1216 15.6735 33.2117 15.6253 33.308 15.5855C33.4044 15.5457 33.5029 15.5163 33.6035 15.4975C33.704 15.4765 33.8057 15.466 33.9083 15.466C34.0131 15.466 34.1157 15.4765 34.2163 15.4975C34.3169 15.5184 34.4154 15.5478 34.5117 15.5855C34.606 15.6253 34.6961 15.6735 34.782 15.73C34.8679 15.7887 34.9476 15.8547 35.0209 15.928C35.0942 15.9993 35.1592 16.0778 35.2158 16.1638C35.2744 16.2497 35.3226 16.3408 35.3603 16.4372C35.4022 16.5315 35.4326 16.6299 35.4515 16.7326C35.4724 16.8332 35.4829 16.9348 35.4829 17.0375H35.4798ZM28.534 33.9115C28.534 34.9968 28.8358 35.992 29.4392 36.8972C30.0447 37.8002 30.8493 38.4602 31.8529 38.8772C32.8586 39.292 33.8937 39.3937 34.958 39.182C36.0266 38.9704 36.9443 38.4801 37.7112 37.7112C38.4801 36.9422 38.9704 36.0245 39.182 34.958C39.3937 33.8916 39.292 32.8565 38.8772 31.8529C38.4602 30.8472 37.8002 30.0426 36.8972 29.4392C35.992 28.8358 34.9968 28.534 33.9115 28.534C33.8067 28.534 33.704 28.5236 33.6035 28.5026C33.5029 28.4817 33.4044 28.4523 33.308 28.4146C33.2138 28.3748 33.1237 28.3266 33.0377 28.27C32.9518 28.2114 32.8722 28.1454 32.7989 28.072C32.7256 28.0008 32.6606 27.9222 32.604 27.8363C32.5454 27.7504 32.4972 27.6593 32.4595 27.5629C32.4176 27.4686 32.3872 27.3701 32.3683 27.2675C32.3474 27.1669 32.3369 27.0653 32.3369 26.9626C32.3369 26.8578 32.3474 26.7552 32.3683 26.6546C32.3893 26.554 32.4197 26.4566 32.4595 26.3623C32.4972 26.2659 32.5454 26.1748 32.604 26.0889C32.6606 26.0051 32.7256 25.9255 32.7989 25.85C32.8722 25.7788 32.9518 25.7138 33.0377 25.6552C33.1216 25.5986 33.2117 25.5504 33.308 25.5106C33.4044 25.4708 33.5029 25.4415 33.6035 25.4226C33.704 25.4017 33.8057 25.3912 33.9083 25.3912C35.6327 25.3912 37.2104 25.8699 38.6415 26.8275C40.0746 27.785 41.1212 29.0589 41.7812 30.6492C42.4391 32.2416 42.6004 33.8821 42.2652 35.5709C41.9299 37.2617 41.1526 38.7158 39.9332 39.9332C38.7158 41.1526 37.2617 41.9299 35.5709 42.2652C33.8821 42.6004 32.2416 42.4391 30.6492 41.7812C29.0568 41.1212 27.7829 40.0746 26.8275 38.6415C25.8699 37.2104 25.3912 35.6327 25.3912 33.9083C25.3912 33.8057 25.4017 33.704 25.4226 33.6035C25.4436 33.5029 25.4729 33.4044 25.5106 33.308C25.5504 33.2138 25.5986 33.1237 25.6552 33.0377C25.7138 32.9518 25.7788 32.8722 25.85 32.7989C25.9234 32.7256 26.003 32.6606 26.0889 32.604C26.1748 32.5454 26.2659 32.4972 26.3623 32.4595C26.4566 32.4176 26.554 32.3872 26.6546 32.3683C26.7573 32.3474 26.8599 32.3369 26.9626 32.3369C27.0674 32.3369 27.169 32.3474 27.2675 32.3683C27.3701 32.3893 27.4686 32.4197 27.5629 32.4595C27.6593 32.4972 27.7504 32.5454 27.8363 32.604C27.9201 32.6606 27.9987 32.7256 28.072 32.7989C28.1454 32.8722 28.2114 32.9518 28.27 33.0377C28.3266 33.1216 28.3748 33.2117 28.4146 33.308C28.4544 33.4044 28.4837 33.5029 28.5026 33.6035C28.5236 33.704 28.534 33.8057 28.534 33.9083V33.9115ZM28.534 33.9115C28.534 34.0141 28.5236 34.1157 28.5026 34.2163C28.4817 34.3169 28.4523 34.4154 28.4146 34.5117C28.3748 34.606 28.3266 34.6961 28.27 34.782C28.2114 34.8679 28.1454 34.9476 28.072 35.0209C28.0008 35.0942 27.9222 35.1592 27.8363 35.2158C27.7504 35.2744 27.6593 35.3226 27.5629 35.3603C27.4686 35.4022 27.3701 35.4326 27.2675 35.4515C27.1669 35.4724 27.0653 35.4829 26.9626 35.4829C26.8578 35.4829 26.7552 35.4724 26.6546 35.4515C26.554 35.4305 26.4566 35.4001 26.3623 35.3603C26.2659 35.3226 26.1748 35.2744 26.0889 35.2158C26.0051 35.1592 25.9255 35.0942 25.85 35.0209C25.7788 34.9476 25.7138 34.8679 25.6552 34.782C25.5986 34.6982 25.5504 34.6081 25.5106 34.5117C25.4708 34.4154 25.4415 34.3169 25.4226 34.2163C25.4017 34.1157 25.3912 34.0131 25.3912 33.9083C25.3912 33.8057 25.4017 33.704 25.4226 33.6035C25.4436 33.5029 25.4729 33.4044 25.5106 33.308C25.5504 33.2138 25.5986 33.1237 25.6552 33.0377C25.7138 32.9518 25.7788 32.8722 25.85 32.7989C25.9234 32.7256 26.003 32.6606 26.0889 32.604C26.1748 32.5454 26.2659 32.4972 26.3623 32.4595C26.4566 32.4176 26.554 32.3872 26.6546 32.3683C26.7573 32.3474 26.8599 32.3369 26.9626 32.3369C27.0674 32.3369 27.169 32.3474 27.2675 32.3683C27.3701 32.3893 27.4686 32.4197 27.5629 32.4595C27.6593 32.4972 27.7504 32.5454 27.8363 32.604C27.9201 32.6606 27.9987 32.7256 28.072 32.7989C28.1454 32.8722 28.2114 32.9518 28.27 33.0377C28.3266 33.1216 28.3748 33.2117 28.4146 33.308C28.4544 33.4044 28.4837 33.5029 28.5026 33.6035C28.5236 33.704 28.534 33.8057 28.534 33.9083V33.9115ZM35.4798 26.9626C35.4798 27.0674 35.4693 27.169 35.4483 27.2675C35.4295 27.3701 35.4001 27.4686 35.3603 27.5629C35.3226 27.6593 35.2744 27.7504 35.2158 27.8363C35.1592 27.9201 35.0942 27.9987 35.0209 28.072C34.9476 28.1454 34.8679 28.2114 34.782 28.27C34.6982 28.3266 34.6081 28.3748 34.5117 28.4146C34.4154 28.4544 34.3169 28.4837 34.2163 28.5026C34.1157 28.5236 34.0131 28.534 33.9083 28.534C33.8057 28.534 33.704 28.5236 33.6035 28.5026C33.5029 28.4817 33.4044 28.4523 33.308 28.4146C33.2138 28.3748 33.1237 28.3266 33.0377 28.27C32.9518 28.2114 32.8722 28.1454 32.7989 28.072C32.7256 28.0008 32.6606 27.9222 32.604 27.8363C32.5454 27.7504 32.4972 27.6593 32.4595 27.5629C32.4176 27.4686 32.3872 27.3701 32.3683 27.2675C32.3474 27.1669 32.3369 27.0653 32.3369 26.9626C32.3369 26.8578 32.3474 26.7552 32.3683 26.6546C32.3893 26.554 32.4197 26.4566 32.4595 26.3623C32.4972 26.2659 32.5454 26.1748 32.604 26.0889C32.6606 26.0051 32.7256 25.9255 32.7989 25.85C32.8722 25.7788 32.9518 25.7138 33.0377 25.6552C33.1216 25.5986 33.2117 25.5504 33.308 25.5106C33.4044 25.4708 33.5029 25.4415 33.6035 25.4226C33.704 25.4017 33.8057 25.3912 33.9083 25.3912C34.0131 25.3912 34.1157 25.4017 34.2163 25.4226C34.3169 25.4436 34.4154 25.4729 34.5117 25.5106C34.606 25.5504 34.6961 25.5986 34.782 25.6552C34.8679 25.7138 34.9476 25.7788 35.0209 25.85C35.0942 25.9234 35.1592 26.003 35.2158 26.0889C35.2744 26.1748 35.3226 26.2659 35.3603 26.3623C35.4022 26.4566 35.4326 26.554 35.4515 26.6546C35.4724 26.7573 35.4829 26.8599 35.4829 26.9626H35.4798ZM18.6089 33.9115C18.6089 35.6338 18.1301 37.2104 17.1726 38.6415C16.2151 40.0746 14.9412 41.1212 13.3509 41.7812C11.7585 42.4391 10.1179 42.6004 8.42918 42.2652C6.73832 41.9299 5.28423 41.1526 4.0669 39.9332C2.84747 38.7158 2.07013 37.2617 1.7349 35.5709C1.39966 33.8821 1.56099 32.2416 2.2189 30.6492C2.8789 29.0568 3.92547 27.7829 5.35861 26.8275C6.78966 25.8699 8.36737 25.3912 10.0918 25.3912C10.1944 25.3912 10.296 25.4017 10.3966 25.4226C10.4972 25.4436 10.5957 25.4729 10.692 25.5106C10.7863 25.5504 10.8764 25.5986 10.9623 25.6552C11.0482 25.7138 11.1278 25.7788 11.2012 25.85C11.2745 25.9234 11.3395 26.003 11.396 26.0889C11.4547 26.1748 11.5029 26.2659 11.5406 26.3623C11.5825 26.4566 11.6129 26.554 11.6318 26.6546C11.6527 26.7573 11.6632 26.8599 11.6632 26.9626C11.6632 27.0674 11.6527 27.169 11.6318 27.2675C11.6108 27.3701 11.5804 27.4686 11.5406 27.5629C11.5029 27.6593 11.4547 27.7504 11.396 27.8363C11.3395 27.9201 11.2745 27.9987 11.2012 28.072C11.1278 28.1454 11.0482 28.2114 10.9623 28.27C10.8785 28.3266 10.7884 28.3748 10.692 28.4146C10.5957 28.4544 10.4972 28.4837 10.3966 28.5026C10.296 28.5236 10.1944 28.534 10.0918 28.534C9.00223 28.534 8.00699 28.8358 7.10604 29.4392C6.2009 30.0447 5.54089 30.8493 5.12604 31.8529C4.70699 32.8586 4.60432 33.8937 4.81804 34.958C5.02966 36.0266 5.51994 36.9443 6.28889 37.7112C7.05785 38.4801 7.97556 38.9704 9.04204 39.182C10.1085 39.3937 11.1436 39.292 12.1472 38.8772C13.1529 38.4602 13.9575 37.8002 14.5609 36.8972C15.1643 35.992 15.466 34.9968 15.466 33.9115C15.466 33.8067 15.4765 33.704 15.4975 33.6035C15.5184 33.5029 15.5478 33.4044 15.5855 33.308C15.6253 33.2138 15.6735 33.1237 15.73 33.0377C15.7887 32.9518 15.8547 32.8722 15.928 32.7989C15.9993 32.7256 16.0778 32.6606 16.1638 32.604C16.2497 32.5454 16.3408 32.4972 16.4372 32.4595C16.5315 32.4176 16.6289 32.3872 16.7295 32.3683C16.8321 32.3474 16.9348 32.3369 17.0375 32.3369C17.1422 32.3369 17.2449 32.3474 17.3455 32.3683C17.446 32.3893 17.5435 32.4197 17.6378 32.4595C17.7341 32.4972 17.8253 32.5454 17.9112 32.604C17.995 32.6606 18.0746 32.7256 18.15 32.7989C18.2213 32.8722 18.2862 32.9518 18.3449 33.0377C18.4015 33.1216 18.4497 33.2117 18.4895 33.308C18.5293 33.4044 18.5586 33.5029 18.5775 33.6035C18.5984 33.704 18.6089 33.8057 18.6089 33.9083V33.9115ZM18.6089 33.9115C18.6089 34.0141 18.5984 34.1157 18.5775 34.2163C18.5565 34.3169 18.5272 34.4154 18.4895 34.5117C18.4497 34.606 18.4015 34.6961 18.3449 34.782C18.2862 34.8679 18.2213 34.9476 18.15 35.0209C18.0767 35.0942 17.9971 35.1592 17.9112 35.2158C17.8253 35.2744 17.7341 35.3226 17.6378 35.3603C17.5435 35.4022 17.446 35.4326 17.3455 35.4515C17.2428 35.4724 17.1401 35.4829 17.0375 35.4829C16.9327 35.4829 16.8311 35.4724 16.7326 35.4515C16.6299 35.4305 16.5315 35.4001 16.4372 35.3603C16.3408 35.3226 16.2497 35.2744 16.1638 35.2158C16.0799 35.1592 16.0014 35.0942 15.928 35.0209C15.8547 34.9476 15.7887 34.8679 15.73 34.782C15.6735 34.6982 15.6253 34.6081 15.5855 34.5117C15.5457 34.4154 15.5163 34.3169 15.4975 34.2163C15.4765 34.1157 15.466 34.0131 15.466 33.9083C15.466 33.8057 15.4765 33.704 15.4975 33.6035C15.5184 33.5029 15.5478 33.4044 15.5855 33.308C15.6253 33.2138 15.6735 33.1237 15.73 33.0377C15.7887 32.9518 15.8547 32.8722 15.928 32.7989C15.9993 32.7256 16.0778 32.6606 16.1638 32.604C16.2497 32.5454 16.3408 32.4972 16.4372 32.4595C16.5315 32.4176 16.6289 32.3872 16.7295 32.3683C16.8321 32.3474 16.9348 32.3369 17.0375 32.3369C17.1422 32.3369 17.2449 32.3474 17.3455 32.3683C17.446 32.3893 17.5435 32.4197 17.6378 32.4595C17.7341 32.4972 17.8253 32.5454 17.9112 32.604C17.995 32.6606 18.0746 32.7256 18.15 32.7989C18.2213 32.8722 18.2862 32.9518 18.3449 33.0377C18.4015 33.1216 18.4497 33.2117 18.4895 33.308C18.5293 33.4044 18.5586 33.5029 18.5775 33.6035C18.5984 33.704 18.6089 33.8057 18.6089 33.9083V33.9115ZM11.6632 26.9626C11.6632 27.0674 11.6527 27.169 11.6318 27.2675C11.6108 27.3701 11.5804 27.4686 11.5406 27.5629C11.5029 27.6593 11.4547 27.7504 11.396 27.8363C11.3395 27.9201 11.2745 27.9987 11.2012 28.072C11.1278 28.1454 11.0482 28.2114 10.9623 28.27C10.8785 28.3266 10.7884 28.3748 10.692 28.4146C10.5957 28.4544 10.4972 28.4837 10.3966 28.5026C10.296 28.5236 10.1944 28.534 10.0918 28.534C9.98699 28.534 9.88432 28.5236 9.78375 28.5026C9.68318 28.4817 9.5847 28.4523 9.48832 28.4146C9.39404 28.3748 9.30394 28.3266 9.21804 28.27C9.13213 28.2114 9.05251 28.1454 8.97918 28.072C8.90585 28.0008 8.84089 27.9222 8.78432 27.8363C8.72566 27.7504 8.67747 27.6593 8.63975 27.5629C8.59785 27.4686 8.56747 27.3701 8.54861 27.2675C8.52766 27.1669 8.51718 27.0653 8.51718 26.9626C8.51718 26.8578 8.52766 26.7552 8.54861 26.6546C8.56956 26.554 8.59994 26.4566 8.63975 26.3623C8.67747 26.2659 8.72566 26.1748 8.78432 26.0889C8.84089 26.0051 8.90585 25.9255 8.97918 25.85C9.05251 25.7788 9.13213 25.7138 9.21804 25.6552C9.30185 25.5986 9.39194 25.5504 9.48832 25.5106C9.5847 25.4708 9.68318 25.4415 9.78375 25.4226C9.88432 25.4017 9.98699 25.3912 10.0918 25.3912C10.1944 25.3912 10.296 25.4017 10.3966 25.4226C10.4972 25.4436 10.5957 25.4729 10.692 25.5106C10.7863 25.5504 10.8764 25.5986 10.9623 25.6552C11.0482 25.7138 11.1278 25.7788 11.2012 25.85C11.2745 25.9234 11.3395 26.003 11.396 26.0889C11.4547 26.1748 11.5029 26.2659 11.5406 26.3623C11.5825 26.4566 11.6129 26.554 11.6318 26.6546C11.6527 26.7573 11.6632 26.8599 11.6632 26.9626ZM15.466 10.0886C15.466 9.00328 15.1643 8.00804 14.5609 7.10289C13.9554 6.19985 13.1508 5.53985 12.1472 5.12289C11.1415 4.70804 10.1064 4.60642 9.04204 4.81804C7.97347 5.02966 7.0547 5.5189 6.28575 6.28575C5.5168 7.0547 5.02651 7.97242 4.81489 9.03889C4.60328 10.1054 4.70489 11.1404 5.11975 12.144C5.5367 13.1498 6.1967 13.9543 7.09975 14.5578C8.0049 15.1612 9.00013 15.4629 10.0855 15.4629C10.1902 15.4629 10.2929 15.4734 10.3935 15.4943C10.494 15.5153 10.5925 15.5446 10.6889 15.5823C10.7832 15.6221 10.8733 15.6703 10.9592 15.7269C11.0451 15.7856 11.1247 15.8516 11.198 15.9249C11.2714 15.9961 11.3363 16.0747 11.3929 16.1606C11.4516 16.2465 11.4998 16.3377 11.5375 16.434C11.5794 16.5283 11.6098 16.6268 11.6286 16.7295C11.6496 16.83 11.66 16.9317 11.66 17.0343C11.66 17.1391 11.6496 17.2418 11.6286 17.3423C11.6077 17.4429 11.5773 17.5403 11.5375 17.6346C11.4998 17.731 11.4516 17.8221 11.3929 17.908C11.3363 17.9918 11.2714 18.0715 11.198 18.1469C11.1247 18.2181 11.0451 18.2831 10.9592 18.3418C10.8754 18.3983 10.7853 18.4465 10.6889 18.4863C10.5925 18.5261 10.494 18.5555 10.3935 18.5743C10.2929 18.5953 10.1913 18.6058 10.0886 18.6058C8.36423 18.6058 6.78651 18.127 5.35547 17.1695C3.92232 16.2119 2.87575 14.938 2.21575 13.3478C1.55785 11.7554 1.39651 10.1148 1.73175 8.42604C2.06699 6.73518 2.84432 5.28109 4.06375 4.06375C5.28109 2.84432 6.73518 2.06699 8.42604 1.73175C10.1148 1.39651 11.7554 1.55785 13.3478 2.21575C14.9401 2.87575 16.214 3.92232 17.1695 5.35547C18.127 6.78651 18.6058 8.36423 18.6058 10.0886C18.6058 10.1913 18.5953 10.2929 18.5743 10.3935C18.5534 10.494 18.524 10.5925 18.4863 10.6889C18.4465 10.7832 18.3983 10.8733 18.3418 10.9592C18.2831 11.0451 18.2181 11.1247 18.1469 11.198C18.0736 11.2714 17.9939 11.3363 17.908 11.3929C17.8221 11.4516 17.731 11.4998 17.6346 11.5375C17.5403 11.5794 17.4429 11.6098 17.3423 11.6286C17.2397 11.6496 17.137 11.66 17.0343 11.66C16.9296 11.66 16.8279 11.6496 16.7295 11.6286C16.6268 11.6077 16.5283 11.5773 16.434 11.5375C16.3377 11.4998 16.2465 11.4516 16.1606 11.3929C16.0768 11.3363 15.9982 11.2714 15.9249 11.198C15.8516 11.1247 15.7856 11.0451 15.7269 10.9592C15.6703 10.8754 15.6221 10.7853 15.5823 10.6889C15.5425 10.5925 15.5132 10.494 15.4943 10.3935C15.4734 10.2929 15.4629 10.1913 15.4629 10.0886H15.466ZM18.6089 10.0886C18.6089 10.1934 18.5984 10.296 18.5775 10.3966C18.5565 10.4972 18.5272 10.5957 18.4895 10.692C18.4497 10.7863 18.4015 10.8764 18.3449 10.9623C18.2862 11.0482 18.2213 11.1278 18.15 11.2012C18.0767 11.2745 17.9971 11.3395 17.9112 11.396C17.8253 11.4547 17.7341 11.5029 17.6378 11.5406C17.5435 11.5825 17.446 11.6129 17.3455 11.6318C17.2428 11.6527 17.1401 11.6632 17.0375 11.6632C16.9327 11.6632 16.8311 11.6527 16.7326 11.6318C16.6299 11.6108 16.5315 11.5804 16.4372 11.5406C16.3408 11.5029 16.2497 11.4547 16.1638 11.396C16.0799 11.3395 16.0014 11.2745 15.928 11.2012C15.8547 11.1278 15.7887 11.0482 15.73 10.9623C15.6735 10.8785 15.6253 10.7884 15.5855 10.692C15.5457 10.5957 15.5163 10.4972 15.4975 10.3966C15.4765 10.296 15.466 10.1944 15.466 10.0918C15.466 9.98699 15.4765 9.88432 15.4975 9.78375C15.5184 9.68318 15.5478 9.5847 15.5855 9.48832C15.6253 9.39404 15.6735 9.30394 15.73 9.21804C15.7887 9.13213 15.8547 9.05251 15.928 8.97918C15.9993 8.90585 16.0778 8.84089 16.1638 8.78432C16.2497 8.72566 16.3408 8.67747 16.4372 8.63975C16.5315 8.59785 16.6289 8.56747 16.7295 8.54861C16.8321 8.52766 16.9348 8.51718 17.0375 8.51718C17.1422 8.51718 17.2449 8.52766 17.3455 8.54861C17.446 8.56956 17.5435 8.59994 17.6378 8.63975C17.7341 8.67747 17.8253 8.72566 17.9112 8.78432C17.995 8.84089 18.0746 8.90585 18.15 8.97918C18.2213 9.05251 18.2862 9.13213 18.3449 9.21804C18.4015 9.30185 18.4497 9.39194 18.4895 9.48832C18.5293 9.5847 18.5586 9.68318 18.5775 9.78375C18.5984 9.88432 18.6089 9.98699 18.6089 10.0918V10.0886ZM11.6632 17.0375C11.6632 17.1422 11.6527 17.2449 11.6318 17.3455C11.6108 17.446 11.5804 17.5435 11.5406 17.6378C11.5029 17.7341 11.4547 17.8253 11.396 17.9112C11.3395 17.995 11.2745 18.0746 11.2012 18.15C11.1278 18.2213 11.0482 18.2862 10.9623 18.3449C10.8785 18.4015 10.7884 18.4497 10.692 18.4895C10.5957 18.5293 10.4972 18.5586 10.3966 18.5775C10.296 18.5984 10.1944 18.6089 10.0918 18.6089C9.98699 18.6089 9.88432 18.5984 9.78375 18.5775C9.68318 18.5565 9.5847 18.5272 9.48832 18.4895C9.39404 18.4497 9.30394 18.4015 9.21804 18.3449C9.13213 18.2862 9.05251 18.2213 8.97918 18.15C8.90585 18.0767 8.84089 17.9971 8.78432 17.9112C8.72566 17.8253 8.67747 17.7341 8.63975 17.6378C8.59785 17.5435 8.56747 17.446 8.54861 17.3455C8.52766 17.2428 8.51718 17.1401 8.51718 17.0375C8.51718 16.9327 8.52766 16.8311 8.54861 16.7326C8.56956 16.6299 8.59994 16.5315 8.63975 16.4372C8.67747 16.3408 8.72566 16.2497 8.78432 16.1638C8.84089 16.0799 8.90585 16.0014 8.97918 15.928C9.05251 15.8547 9.13213 15.7887 9.21804 15.73C9.30185 15.6735 9.39194 15.6253 9.48832 15.5855C9.5847 15.5457 9.68318 15.5163 9.78375 15.4975C9.88432 15.4765 9.98699 15.466 10.0918 15.466C10.1944 15.466 10.296 15.4765 10.3966 15.4975C10.4972 15.5184 10.5957 15.5478 10.692 15.5855C10.7863 15.6253 10.8764 15.6735 10.9623 15.73C11.0482 15.7887 11.1278 15.8547 11.2012 15.928C11.2745 15.9993 11.3395 16.0778 11.396 16.1638C11.4547 16.2497 11.5029 16.3408 11.5406 16.4372C11.5825 16.5315 11.6129 16.6299 11.6318 16.7326C11.6527 16.8332 11.6632 16.9348 11.6632 17.0375Z" fill="white"/>
</g>
</svg>
