<svg width="50" height="50" viewBox="0 0 50 50" fill="none" xmlns="http://www.w3.org/2000/svg">
<path d="M43.3594 25H6.73828C6.41453 25 6.10404 24.8714 5.87511 24.6425C5.64619 24.4135 5.51758 24.103 5.51758 23.7793C5.51758 23.4555 5.64619 23.1451 5.87511 22.9161C6.10404 22.6872 6.41453 22.5586 6.73828 22.5586H43.3594C43.6831 22.5586 43.9936 22.6872 44.2225 22.9161C44.4515 23.1451 44.5801 23.4555 44.5801 23.7793C44.5801 24.103 44.4515 24.4135 44.2225 24.6425C43.9936 24.8714 43.6831 25 43.3594 25Z" fill="white"/>
<path d="M15.625 23.7793C15.3012 23.7793 14.9908 23.6507 14.7618 23.4218C14.5329 23.1928 14.4043 22.8823 14.4043 22.5586V20.7031C14.4043 20.3794 14.5329 20.0689 14.7618 19.84C14.9908 19.611 15.3012 19.4824 15.625 19.4824C15.9488 19.4824 16.2592 19.611 16.4882 19.84C16.7171 20.0689 16.8457 20.3794 16.8457 20.7031V22.5586C16.8457 22.8823 16.7171 23.1928 16.4882 23.4218C16.2592 23.6507 15.9488 23.7793 15.625 23.7793ZM35.0098 23.7793C34.686 23.7793 34.3755 23.6507 34.1466 23.4218C33.9177 23.1928 33.7891 22.8823 33.7891 22.5586V20.7031C33.7891 20.3794 33.9177 20.0689 34.1466 19.84C34.3755 19.611 34.686 19.4824 35.0098 19.4824C35.3335 19.4824 35.644 19.611 35.8729 19.84C36.1019 20.0689 36.2305 20.3794 36.2305 20.7031V22.5586C36.2305 22.8823 36.1019 23.1928 35.8729 23.4218C35.644 23.6507 35.3335 23.7793 35.0098 23.7793ZM28.4668 34.7168H20.9473C20.6235 34.7168 20.313 34.5882 20.0841 34.3593C19.8552 34.1303 19.7266 33.8198 19.7266 33.4961C19.7266 33.1723 19.8552 32.8619 20.0841 32.6329C20.313 32.404 20.6235 32.2754 20.9473 32.2754H28.4668C28.7905 32.2754 29.101 32.404 29.33 32.6329C29.5589 32.8619 29.6875 33.1723 29.6875 33.4961C29.6875 33.8198 29.5589 34.1303 29.33 34.3593C29.101 34.5882 28.7905 34.7168 28.4668 34.7168Z" fill="#FE3F3F"/>
<path d="M24.707 38.4766C24.3833 38.4766 24.0728 38.348 23.8439 38.119C23.6149 37.8901 23.4863 37.5796 23.4863 37.2559V29.7363C23.4863 29.4126 23.6149 29.1021 23.8439 28.8732C24.0728 28.6442 24.3833 28.5156 24.707 28.5156C25.0308 28.5156 25.3413 28.6442 25.5702 28.8732C25.7991 29.1021 25.9277 29.4126 25.9277 29.7363V37.2559C25.9277 37.5796 25.7991 37.8901 25.5702 38.119C25.3413 38.348 25.0308 38.4766 24.707 38.4766Z" fill="#FE3F3F"/>
<path d="M39.1382 43.6655H10.9062C9.28805 43.6637 7.73665 43.0201 6.59241 41.8759C5.44817 40.7316 4.80454 39.1802 4.80273 37.562V17.9126C4.80454 16.2944 5.44817 14.743 6.59241 13.5988C7.73665 12.4545 9.28805 11.8109 10.9062 11.8091H39.1382C40.7563 11.811 42.3077 12.4547 43.4519 13.5989C44.5961 14.7431 45.2398 16.2944 45.2417 17.9126V37.562C45.2398 39.1802 44.5961 40.7315 43.4519 41.8757C42.3077 43.0199 40.7563 43.6636 39.1382 43.6655ZM10.9062 14.2505C9.93536 14.2517 9.00456 14.6379 8.31803 15.3244C7.63151 16.0109 7.2453 16.9417 7.24414 17.9126V37.562C7.2453 38.5329 7.63151 39.4637 8.31803 40.1502C9.00456 40.8368 9.93536 41.223 10.9062 41.2241H39.1382C40.1091 41.223 41.0399 40.8368 41.7264 40.1502C42.4129 39.4637 42.7991 38.5329 42.8003 37.562V17.9126C42.7991 16.9417 42.4129 16.0109 41.7264 15.3244C41.0399 14.6379 40.1091 14.2517 39.1382 14.2505H10.9062Z" fill="white"/>
<path d="M33.9355 14.2578H16.0645C15.7407 14.2578 15.4302 14.1292 15.2013 13.9003C14.9724 13.6714 14.8438 13.3609 14.8438 13.0371V10.4492C14.845 9.34886 15.2827 8.29395 16.0608 7.51588C16.8389 6.73781 17.8938 6.30012 18.9941 6.29883H31.1768C32.2318 6.29999 33.2434 6.71963 33.9894 7.46568C34.7354 8.21173 35.1551 9.22325 35.1562 10.2783V13.0371C35.1562 13.3609 35.0276 13.6714 34.7987 13.9003C34.5698 14.1292 34.2593 14.2578 33.9355 14.2578ZM17.2852 11.8164H32.7148V10.2783C32.7145 9.87051 32.5523 9.47952 32.2639 9.19116C31.9756 8.90279 31.5846 8.74062 31.1768 8.74023H18.9941C18.5409 8.74023 18.1062 8.92029 17.7857 9.24078C17.4652 9.56128 17.2852 9.99597 17.2852 10.4492V11.8164Z" fill="white"/>
</svg>
