<svg width="59" height="59" viewBox="0 0 59 59" fill="none" xmlns="http://www.w3.org/2000/svg">
<path d="M43.3915 54.8956H11.6271C9.5309 54.8956 7.815 53.1797 7.815 51.0834V7.96272C7.815 5.86647 9.5309 4.15057 11.6271 4.15057H43.3915C45.4878 4.15057 47.2037 5.86647 47.2037 7.96272V51.0892C47.2037 53.1793 45.4881 54.8956 43.3915 54.8956Z" fill="#FFEBEC" stroke="white" stroke-width="0.88"/>
<path d="M47.6438 13.0042V9.16694C47.6438 7.01782 45.8864 5.2605 43.7373 5.2605H11.2873C9.13818 5.2605 7.38086 7.01782 7.38086 9.16694V13.0042H47.6438Z" fill="#FF9798"/>
<path d="M47.6438 11.4543V7.61702C47.6438 5.4679 45.8864 3.71057 43.7373 3.71057H11.2873C9.13818 3.71057 7.38086 5.4679 7.38086 7.61702V11.4543H47.6438Z" fill="#FE696B"/>
<path d="M12.5371 18.6796H27.5061V21.2608H12.5371V18.6796Z" fill="#FF9798"/>
<path d="M12.5371 24.8792H37.8311V27.4604H12.5371V24.8792Z" fill="#FF7E71"/>
<path d="M12.5371 31.073H27.5061V33.6542H12.5371V31.073Z" fill="#FF9798"/>
<path d="M12.5371 37.2668H37.8311V39.8481H12.5371V37.2668Z" fill="#FF7E71"/>
<path d="M13.714 48.2449V51.2973C13.714 52.741 12.4516 53.9601 10.7549 54.3038C11.0965 54.368 11.4498 54.4047 11.8204 54.4047H47.7819C50.162 54.4047 52.1135 53.0068 52.1135 51.2973V48.2449H13.714Z" fill="#FE696B"/>
<path d="M43.4494 13.0043C43.6568 13.4767 43.7721 14.0011 43.7721 14.5542C43.7721 16.6918 42.0378 18.426 39.9002 18.426C37.7626 18.426 36.0283 16.6918 36.0283 14.5542C36.0283 14.0011 36.1436 13.4825 36.351 13.0043H34.7031C34.5591 13.494 34.4727 14.0126 34.4727 14.5542C34.4727 17.5445 36.9041 19.976 39.8944 19.976C42.8848 19.976 45.3162 17.5445 45.3162 14.5542C45.3162 14.0183 45.2355 13.494 45.0857 13.0043H43.4494Z" fill="#B91818"/>
<path d="M12.5371 7.58237C12.5371 7.92467 12.6731 8.25294 12.9151 8.49498C13.1572 8.73702 13.4854 8.873 13.8277 8.873C14.17 8.873 14.4983 8.73702 14.7403 8.49498C14.9824 8.25294 15.1184 7.92467 15.1184 7.58237C15.1184 7.24008 14.9824 6.9118 14.7403 6.66976C14.4983 6.42772 14.17 6.29175 13.8277 6.29175C13.4854 6.29175 13.1572 6.42772 12.9151 6.66976C12.6731 6.9118 12.5371 7.24008 12.5371 7.58237Z" fill="white"/>
<path d="M18.2188 7.58237C18.2188 7.92467 18.3547 8.25294 18.5968 8.49498C18.8388 8.73702 19.1671 8.873 19.5094 8.873C19.8517 8.873 20.1799 8.73702 20.422 8.49498C20.664 8.25294 20.8 7.92467 20.8 7.58237C20.8 7.24008 20.664 6.9118 20.422 6.66976C20.1799 6.42772 19.8517 6.29175 19.5094 6.29175C19.1671 6.29175 18.8388 6.42772 18.5968 6.66976C18.3547 6.9118 18.2188 7.24008 18.2188 7.58237Z" fill="white"/>
<path d="M23.8994 7.58237C23.8994 7.92467 24.0354 8.25294 24.2774 8.49498C24.5195 8.73702 24.8477 8.873 25.19 8.873C25.5323 8.873 25.8606 8.73702 26.1026 8.49498C26.3447 8.25294 26.4807 7.92467 26.4807 7.58237C26.4807 7.24008 26.3447 6.9118 26.1026 6.66976C25.8606 6.42772 25.5323 6.29175 25.19 6.29175C24.8477 6.29175 24.5195 6.42772 24.2774 6.66976C24.0354 6.9118 23.8994 7.24008 23.8994 7.58237Z" fill="white"/>
</svg>
