<svg width="44" height="44" viewBox="0 0 44 44" fill="none" xmlns="http://www.w3.org/2000/svg">
<g id="Frame 23" clip-path="url(#clip0_6645_5800)">
<g id="Group">
<path id="Vector" d="M14.0755 19.541L13.9783 20.1294L13.5962 22.4752C13.5962 22.4752 34.7074 22.4903 34.8672 22.4752H34.8811C35.4507 22.4375 35.9995 22.3319 36.5344 22.1735C38.1114 21.6983 39.4938 20.7177 40.5149 19.3902C41.4319 18.206 42.0641 16.7502 42.3003 15.1511V15.1134L42.5573 13.5897H20.9042C17.5559 13.5897 14.7563 16.1467 14.0755 19.5486V19.541Z" fill="#B91818"/>
<path id="Vector_2" d="M16.6784 3.49721C16.0046 3.64053 15.3516 3.8291 14.7125 4.06293C11.0446 5.39047 7.9463 8.07573 5.92479 11.5681C5.54271 12.2092 5.20927 12.8805 4.9175 13.5745C4.32008 14.9548 3.88938 16.4257 3.63235 17.972L1.61084 30.4177H10.4332L12.2464 19.2316H12.2533C12.6354 17.2101 13.601 15.4149 14.9556 14.0798C15.1362 13.8988 15.3168 13.7329 15.5113 13.5745C17.0049 12.3224 18.8666 11.5832 20.902 11.5832V11.5681H42.8816L44.2501 3.1427H19.9712C18.8458 3.1427 17.7482 3.26339 16.6853 3.49721H16.6784Z" fill="black"/>
<path id="Vector_3" d="M28.6831 30.4251C27.1895 31.6847 25.3139 32.4315 23.2855 32.4315H20.7985L22.0906 24.4738H13.2752L11.9831 32.4315H1.28502L-0.0834961 40.8568H24.0288C29.9752 40.8568 35.1922 37.5003 38.1724 32.4315C38.5475 31.7903 38.8879 31.119 39.1936 30.4251C39.9924 28.5846 40.5135 26.5858 40.708 24.4738H31.9828C31.6077 26.8799 30.399 28.9844 28.69 30.4251H28.6831Z" fill="black"/>
</g>
</g>
<defs>
<clipPath id="clip0_6645_5800">
<rect width="44" height="44" fill="white"/>
</clipPath>
</defs>
</svg>
